<svg width="36" height="36" viewBox="0 0 36 36" fill="none" xmlns="http://www.w3.org/2000/svg">
<rect width="36" height="36" rx="18" fill="#E1F9FF"/>
<path fill-rule="evenodd" clip-rule="evenodd" d="M8.584 25.4346C8.555 25.2266 7.888 20.2896 10.792 16.9426C12.39 15.1006 14.74 14.1216 17.785 14.0256L17.786 11.5426C17.787 10.9896 18.1 10.4996 18.603 10.2676C19.105 10.0356 19.681 10.1136 20.104 10.4716L27.003 16.3166C27.313 16.5796 27.495 16.9616 27.502 17.3676L27.502 17.3906C27.502 17.7866 27.334 18.1636 27.04 18.4306L20.131 24.6746C19.714 25.0516 19.135 25.1446 18.621 24.9166C18.105 24.6876 17.784 24.1936 17.784 23.6276L17.784 20.4726C13.68 20.5936 11.051 22.2216 9.535 25.5706C9.443 25.7736 9.229 25.8906 9.008 25.8596C8.789 25.8286 8.616 25.6556 8.584 25.4346Z" fill="#00B9ED"/>
</svg>
