<svg width="41" height="40" viewBox="0 0 41 40" fill="none" xmlns="http://www.w3.org/2000/svg">
<path d="M20.4997 3.33301C11.3163 3.33301 3.83301 10.8163 3.83301 19.9997C3.83301 29.183 11.3163 36.6663 20.4997 36.6663C29.683 36.6663 37.1663 29.183 37.1663 19.9997C37.1663 10.8163 29.683 3.33301 20.4997 3.33301ZM28.4663 16.1663L19.0163 25.6163C18.783 25.8497 18.4663 25.983 18.133 25.983C17.7997 25.983 17.483 25.8497 17.2497 25.6163L12.533 20.8997C12.0497 20.4163 12.0497 19.6163 12.533 19.133C13.0163 18.6497 13.8163 18.6497 14.2997 19.133L18.133 22.9663L26.6997 14.3997C27.183 13.9163 27.983 13.9163 28.4663 14.3997C28.9497 14.883 28.9497 15.6663 28.4663 16.1663Z" fill="#1EBB4D"/>
</svg>
