<svg width="61" height="60" viewBox="0 0 61 60" fill="none" xmlns="http://www.w3.org/2000/svg">
<ellipse cx="30.5" cy="30" rx="28.3337" ry="28.3337" transform="rotate(176.523 30.5 30)" fill="url(#paint0_linear_3073_31575)"/>
<ellipse opacity="0.2" cx="25.9694" cy="3.76197" rx="25.9694" ry="3.76197" transform="matrix(-0.999881 0.0154327 0.0154327 0.999881 55.5708 48.994)" fill="url(#paint1_linear_3073_31575)"/>
<path opacity="0.6" d="M13.1938 31.4317C13.1938 31.2202 13.3659 31.0488 13.5782 31.0488H15.1154C15.3277 31.0488 15.4997 31.2202 15.4997 31.4317V32.9633C15.4997 33.1748 15.3277 33.3463 15.1154 33.3463H13.5782C13.3659 33.3463 13.1938 33.1748 13.1938 32.9633V31.4317Z" fill="white"/>
<path opacity="0.4" d="M10.0229 21.9165C10.0229 21.705 10.195 21.5336 10.4073 21.5336H11.9445C12.1568 21.5336 12.3288 21.705 12.3288 21.9165V23.4481C12.3288 23.6596 12.1568 23.8311 11.9445 23.8311H10.4073C10.195 23.8311 10.0229 23.6596 10.0229 23.4481V21.9165Z" fill="white"/>
<path opacity="0.2" d="M6.85107 40.1538C6.85107 39.9423 7.02313 39.7708 7.23538 39.7708H8.77263C8.98488 39.7708 9.15694 39.9423 9.15694 40.1538V41.6854C9.15694 41.8969 8.98488 42.0683 8.77263 42.0683H7.23538C7.02313 42.0683 6.85107 41.8969 6.85107 41.6854V40.1538Z" fill="white"/>
<mask id="mask0_3073_31575" style="mask-type:alpha" maskUnits="userSpaceOnUse" x="6" y="12" width="43" height="41">
<rect x="6.37353" y="12.0973" width="41.9471" height="40.3338" fill="#D9D9D9"/>
</mask>
<g mask="url(#mask0_3073_31575)">
<path d="M44.4312 29.2272L43.6449 29.2129C43.3347 29.2072 43.0876 28.9512 43.0933 28.641L43.2035 22.5329C43.2093 22.2227 43.4652 21.9756 43.7754 21.9813L44.5617 21.9956C44.8719 22.0013 45.119 22.2573 45.1133 22.5675L45.0031 28.6756C44.9973 28.9858 44.7414 29.2329 44.4312 29.2272Z" fill="#2670DB"/>
<path d="M44.4164 30.0569L43.63 30.0428C43.3198 30.0372 43.0638 30.2842 43.0583 30.5944L42.9484 36.7025C42.9429 37.0127 43.1898 37.2687 43.5 37.2742L44.2864 37.2884C44.5966 37.294 44.8526 37.047 44.8582 36.7368L44.968 30.6287C44.9736 30.3185 44.7266 30.0625 44.4164 30.0569Z" fill="#2670DB"/>
<path d="M38.5043 72.9069L14.3453 72.4703C11.7953 72.4243 9.7656 70.3198 9.81165 67.7698L10.6855 19.38C10.7315 16.83 12.836 14.8003 15.3861 14.8463L39.5452 15.2826C42.0952 15.3287 44.1249 17.4331 44.0789 19.9832L43.2046 68.373C43.1586 70.9231 41.0541 72.9528 38.504 72.9067L38.5043 72.9069Z" fill="#3B82F4"/>
<path d="M10.869 67.2513L11.7238 19.9383C11.764 17.7132 13.6003 15.9423 15.8251 15.9824L39.0659 16.4021C41.2909 16.4423 43.0618 18.2787 43.0218 20.5034L42.167 67.8165C42.1268 70.0416 40.2905 71.8125 38.0657 71.7724L14.8249 71.3526C12.5999 71.3124 10.8289 69.4761 10.869 67.2513Z" fill="white"/>
<path fill-rule="evenodd" clip-rule="evenodd" d="M17.8027 25.6083C17.8027 26.0148 18.1322 26.3442 18.5386 26.3442C18.945 26.3442 19.2745 26.0148 19.2745 25.6083V23.2001C19.2745 22.7194 19.6635 22.3304 20.1441 22.3304H22.5524C22.9588 22.3304 23.2883 22.0009 23.2883 21.5945C23.2883 21.1881 22.9588 20.8587 22.5524 20.8587H20.1441C18.8507 20.8587 17.8027 21.9066 17.8027 23.2001V25.6083ZM31.9438 21.5955C31.9438 21.1891 32.2733 20.8596 32.6797 20.8596H35.088C36.3815 20.8596 37.4294 21.9075 37.4294 23.201V25.6093C37.4294 26.0157 37.0999 26.3452 36.6935 26.3452C36.2871 26.3452 35.9577 26.0157 35.9577 25.6093V23.201C35.9577 22.7204 35.5686 22.3313 35.088 22.3313H32.6797C32.2733 22.3313 31.9438 22.0019 31.9438 21.5955ZM23.2895 39.747C23.2895 40.1534 22.9601 40.4828 22.5537 40.4828H20.1454C18.8519 40.4828 17.804 39.4349 17.804 38.1414L17.804 35.7332C17.804 35.3267 18.1335 34.9973 18.5399 34.9973C18.9463 34.9973 19.2757 35.3267 19.2757 35.7332L19.2757 38.1414C19.2757 38.6221 19.6648 39.0111 20.1454 39.0111L22.5537 39.0111C22.9601 39.0111 23.2895 39.3406 23.2895 39.747ZM36.6935 34.9992C37.0999 34.9992 37.4294 35.3287 37.4294 35.7351V38.1434C37.4294 39.4368 36.3815 40.4848 35.088 40.4848H32.6797C32.2733 40.4848 31.9438 40.1553 31.9438 39.7489C31.9438 39.3425 32.2733 39.013 32.6797 39.013H35.088C35.5686 39.013 35.9577 38.624 35.9577 38.1434V35.7351C35.9577 35.3287 36.2871 34.9992 36.6935 34.9992Z" fill="#005FEB"/>
<rect x="16.8223" y="29.6932" width="21.5854" height="1.69475" rx="0.847375" fill="#005FEB"/>
</g>
<g clip-path="url(#clip0_3073_31575)">
<path d="M46.2531 53.8362C44.6457 53.4782 43.3279 52.882 42.2509 52.1233C36.8476 48.3204 37.4716 40.4287 37.83 37.901C37.8986 37.4202 38.2456 37.0294 38.713 36.9069L44.7057 35.3328C45.559 35.1086 46.4547 35.0992 47.3134 35.3053L49.7376 35.8871L53.346 36.7512C53.8171 36.8638 54.1743 37.2491 54.2549 37.7287C54.7654 40.7537 55.8573 51.4781 46.2531 53.8362Z" fill="#07C968"/>
<path d="M45.7765 46.3325C45.599 46.3346 45.4203 46.2698 45.2801 46.1383L42.8052 43.8069C42.5176 43.536 42.5022 43.0827 42.7711 42.7945C43.0399 42.506 43.4914 42.4925 43.7788 42.763L45.7397 44.6098L49.5516 40.6265C49.8242 40.3417 50.2755 40.3335 50.5597 40.6081C50.8439 40.8827 50.8533 41.336 50.5806 41.6208L46.2813 46.1134C46.1437 46.2569 45.9603 46.3304 45.776 46.3323L45.7765 46.3325Z" fill="white"/>
</g>
<defs>
<linearGradient id="paint0_linear_3073_31575" x1="30.5" y1="1.66635" x2="30.5" y2="58.3337" gradientUnits="userSpaceOnUse">
<stop offset="0.11" stop-color="white"/>
<stop offset="0.725" stop-color="#8BB9FF"/>
</linearGradient>
<linearGradient id="paint1_linear_3073_31575" x1="25.9694" y1="0" x2="25.9694" y2="7.52393" gradientUnits="userSpaceOnUse">
<stop stop-color="#478DFE"/>
<stop offset="1" stop-color="#004BBA"/>
</linearGradient>
<clipPath id="clip0_3073_31575">
<rect width="17.6534" height="18.3072" fill="white" transform="translate(35.9619 37.6441) rotate(-15)"/>
</clipPath>
</defs>
</svg>
