<svg width="375" height="164" viewBox="0 0 375 164" fill="none" xmlns="http://www.w3.org/2000/svg">
<g clip-path="url(#clip0_5055_27468)">
<g style="mix-blend-mode:overlay" opacity="0.2">
<path d="M-161.73 148.877C-151.413 156.563 -109.297 183 -68.5689 101.758C-22.0223 8.90958 29.1086 53.3103 84.9882 107.549C140.972 161.796 163.813 37.0851 273.17 38.6285C348.62 39.7066 444.38 165.088 543.432 92.975" stroke="white" stroke-width="1.78226" stroke-miterlimit="10" stroke-linecap="round"/>
<path d="M-161.562 145.113C-150.456 152.521 -105.909 182.541 -64.5414 103.066C-17.756 13.1866 30.9197 50.5726 86.9488 103.243C143.298 155.942 166.764 41.5366 277.206 42.6209C353.135 43.4061 446.415 157.969 542.772 86.9822" stroke="white" stroke-width="1.73449" stroke-miterlimit="10" stroke-linecap="round"/>
<path d="M-161.443 141.368C-149.547 148.387 -102.51 182.001 -60.5108 104.373C-13.4886 17.4614 32.6258 47.9509 88.9146 98.9344C145.521 150.205 169.721 45.9859 281.249 46.6132C357.658 47.1034 448.456 150.853 542.116 80.9934" stroke="white" stroke-width="1.68671" stroke-miterlimit="10" stroke-linecap="round"/>
<path d="M-161.371 137.648C-148.679 144.177 -99.0979 181.378 -56.4814 105.681C-9.22035 21.7365 34.4035 45.259 90.8792 94.6285C147.814 144.397 172.678 50.4375 285.291 50.6058C362.178 50.8031 450.497 143.742 541.461 75.0008" stroke="white" stroke-width="1.63893" stroke-miterlimit="10" stroke-linecap="round"/>
<path d="M-161.323 133.959C-147.807 139.929 -95.6558 180.64 -52.4516 106.988C-4.95158 26.0115 36.1838 42.5628 92.8444 90.3204C150.109 138.587 175.634 54.8891 289.334 54.5962C366.698 54.5006 452.539 136.632 540.807 69.008" stroke="white" stroke-width="1.59116" stroke-miterlimit="10" stroke-linecap="round"/>
<path d="M-161.294 130.303C-146.918 135.662 -92.1809 179.801 -48.4241 108.297C-0.68522 30.2867 37.9658 39.8689 94.807 86.0145C152.409 132.779 178.588 59.3408 293.371 58.591C371.213 58.2005 454.575 129.53 540.146 63.0217" stroke="white" stroke-width="1.54338" stroke-miterlimit="10" stroke-linecap="round"/>
<path d="M-161.286 126.672C-146.025 131.367 -88.6829 178.875 -44.3943 109.604C3.58347 34.5616 39.7542 37.1685 96.77 81.7064C154.712 126.965 181.544 63.7903 297.412 62.5813C375.729 61.8979 456.615 122.428 539.492 57.0289" stroke="white" stroke-width="1.4956" stroke-miterlimit="10" stroke-linecap="round"/>
<path d="M-161.284 123.072C-145.1 127.082 -85.1512 177.861 -40.3662 110.912C7.8484 38.8388 41.5452 34.4704 98.7334 77.4004C157.018 121.153 184.498 68.2419 301.452 66.5739C380.246 65.5976 458.653 115.333 538.834 51.0425" stroke="white" stroke-width="1.44783" stroke-miterlimit="10" stroke-linecap="round"/>
<path d="M-161.294 119.493C-144.161 122.788 -81.5995 176.777 -36.3367 112.221C12.1167 43.1136 43.3416 31.7698 100.698 73.0942C159.332 115.339 187.453 72.6933 305.494 70.5662C384.763 69.297 460.694 108.243 538.181 45.0537" stroke="white" stroke-width="1.40005" stroke-miterlimit="10" stroke-linecap="round"/>
<path d="M-161.305 115.935C-143.181 118.515 -78.0182 175.616 -32.3067 113.528C16.3856 47.3888 45.1427 29.0635 102.663 68.7863C161.648 109.519 190.409 77.143 309.534 74.5589C389.277 72.9948 462.734 101.158 537.525 39.0674" stroke="white" stroke-width="1.35228" stroke-miterlimit="10" stroke-linecap="round"/>
<path d="M-161.324 112.395C-142.19 114.244 -74.4187 174.404 -28.2773 114.836C20.6539 51.6631 46.9454 26.3562 104.628 64.4796C163.968 103.698 193.367 81.5939 313.576 78.5507C393.795 76.6937 464.776 94.078 536.872 33.0781" stroke="white" stroke-width="1.3045" stroke-miterlimit="10" stroke-linecap="round"/>
<path d="M-161.35 108.87C-141.184 109.977 -70.8037 173.146 -24.2489 116.145C24.9212 55.9405 48.7533 23.6479 106.592 60.1739C166.291 97.8756 196.322 86.0478 317.617 82.5435C398.309 80.3936 466.818 87.0054 536.223 27.0898" stroke="white" stroke-width="1.25465" stroke-miterlimit="10" stroke-linecap="round"/>
<path d="M-161.371 105.357C-140.138 105.737 -67.1646 171.835 -20.2193 117.451C29.1876 60.2126 50.5644 20.9322 108.554 55.865C168.617 92.0461 199.275 90.4965 321.657 86.5352C402.821 84.0924 468.86 79.938 535.57 21.1025" stroke="white" stroke-width="1.20687" stroke-miterlimit="10" stroke-linecap="round"/>
<path d="M-161.398 101.855C-139.085 101.5 -63.5153 170.491 -16.1919 118.758C33.4539 64.488 52.3775 18.2115 110.517 51.5573C170.946 86.2137 202.229 94.9464 325.697 90.5261C407.332 87.7904 470.902 72.8779 534.92 15.1123" stroke="white" stroke-width="1.15909" stroke-miterlimit="10" stroke-linecap="round"/>
<path d="M-161.419 98.3636C-137.994 97.2938 -59.8487 169.108 -12.1618 120.066C37.7229 68.7652 54.1973 15.4905 112.482 47.2513C173.281 80.381 205.187 99.398 329.738 94.5186C411.844 91.49 472.944 65.828 534.27 9.12793" stroke="white" stroke-width="1.11132" stroke-miterlimit="10" stroke-linecap="round"/>
<path d="M-161.433 94.876C-136.872 93.1104 -56.1633 167.691 -8.13157 121.373C41.992 73.0381 56.0195 12.7632 114.448 42.9432C175.62 74.54 208.143 103.848 333.78 98.5091C416.354 95.1897 474.986 58.7863 533.618 3.14355" stroke="white" stroke-width="1.06354" stroke-miterlimit="10" stroke-linecap="round"/>
<path d="M-161.462 91.3979C-135.769 88.9073 -52.4786 166.259 -4.10199 122.681C46.2604 77.3143 57.843 10.0329 116.413 38.6363C177.961 68.6959 211.099 108.298 337.822 102.503C420.866 98.8905 477.032 51.754 532.974 -2.8418" stroke="white" stroke-width="1.01576" stroke-miterlimit="10" stroke-linecap="round"/>
<path d="M-161.487 87.9257C-134.639 84.7289 -48.7811 164.804 -0.072137 123.991C50.5271 81.5902 59.671 7.29813 118.376 34.3312C180.302 62.8474 214.055 112.751 341.862 106.496C425.371 102.591 479.076 44.7339 532.328 -8.82324" stroke="white" stroke-width="0.967988" stroke-miterlimit="10" stroke-linecap="round"/>
<path d="M-161.506 84.4568C-133.485 80.5724 -45.0735 163.327 3.95528 125.297C54.7934 85.8651 61.4987 4.55618 120.338 30.023C182.647 56.9917 217.008 117.202 345.9 110.487C429.874 106.291 481.117 37.7233 531.677 -14.8057" stroke="white" stroke-width="0.920212" stroke-miterlimit="10" stroke-linecap="round"/>
<path d="M-161.521 80.9895C-132.308 76.4321 -41.357 161.829 7.98341 126.605C59.0604 90.1397 63.3291 1.80971 122.302 25.7165C184.994 51.1314 219.962 121.653 349.941 114.481C434.378 109.992 483.162 30.7289 531.032 -20.7822" stroke="white" stroke-width="0.872436" stroke-miterlimit="10" stroke-linecap="round"/>
<path d="M-161.55 77.5291C-131.156 72.2695 -37.6411 160.325 12.013 127.912C63.3288 94.4149 65.161 -0.942372 124.266 21.4086C187.344 45.2635 222.918 126.103 353.983 118.471C438.883 113.692 485.212 23.7413 530.394 -26.7686" stroke="white" stroke-width="0.82466" stroke-miterlimit="10" stroke-linecap="round"/>
<path d="M-161.564 74.069C-129.964 68.1448 -33.9125 158.803 16.0427 129.221C67.5975 98.6925 66.9971 -3.70034 126.231 17.1031C189.695 39.3918 225.876 130.555 358.025 122.464C443.385 117.394 487.26 16.777 529.754 -32.7441" stroke="white" stroke-width="0.776883" stroke-miterlimit="10" stroke-linecap="round"/>
<path d="M-161.583 70.6114C-128.771 64.0141 -30.1796 157.271 20.0727 130.527C71.8642 102.964 68.8315 -6.46623 128.197 12.7938C192.048 33.51 228.832 135.003 362.065 126.454C447.884 121.092 489.308 9.82132 529.116 -38.7256" stroke="white" stroke-width="0.729107" stroke-miterlimit="10" stroke-linecap="round"/>
<path d="M-161.6 67.1554C-127.568 59.8954 -26.4427 155.726 24.1025 131.834C76.1329 107.24 70.6678 -9.23678 130.16 8.48613C194.4 27.6236 231.786 139.453 366.106 130.446C452.379 124.794 491.356 2.89216 528.478 -44.6992" stroke="white" stroke-width="0.681331" stroke-miterlimit="10" stroke-linecap="round"/>
<path d="M-161.623 63.7028C-126.37 55.7719 -22.7058 154.176 28.1302 133.142C80.3995 111.514 72.5018 -12.0101 132.122 4.17979C196.751 21.7303 234.74 143.905 370.146 134.439C456.872 128.496 493.409 -4.02111 527.847 -50.6777" stroke="white" stroke-width="0.633555" stroke-miterlimit="10" stroke-linecap="round"/>
<path d="M-161.644 60.2528C-125.161 51.6614 -18.965 152.619 32.1577 134.451C84.6659 115.792 74.3337 -14.7912 134.085 -0.125952C199.1 15.8313 237.695 148.358 374.186 138.431C461.365 132.198 495.461 -10.913 527.217 -56.6494" stroke="white" stroke-width="0.583701" stroke-miterlimit="10" stroke-linecap="round"/>
<path d="M-161.658 56.8019C-123.938 47.5603 -15.2157 151.052 36.1895 135.759C88.9365 120.066 76.1699 -17.5795 136.052 -4.43267C201.456 9.92513 240.653 152.809 378.228 142.425C465.856 135.903 497.517 -17.7768 526.592 -62.6221" stroke="white" stroke-width="0.535925" stroke-miterlimit="10" stroke-linecap="round"/>
<path d="M-161.68 53.3542C-122.724 43.4521 -11.4675 149.48 40.2181 137.067C93.202 124.341 78.0008 -20.3728 138.016 -8.74037C203.804 4.01174 243.608 157.259 382.269 146.416C470.344 139.605 499.576 -24.6229 525.974 -68.5957" stroke="white" stroke-width="0.488149" stroke-miterlimit="10" stroke-linecap="round"/>
<path d="M-161.691 49.9042C-121.482 39.3664 -7.71221 147.9 44.2476 138.373C97.4703 128.617 79.8325 -23.1727 139.979 -13.0483C206.151 -1.90813 246.563 161.709 386.309 150.407C474.826 143.307 501.637 -31.4318 525.356 -74.5654" stroke="white" stroke-width="0.440372" stroke-miterlimit="10" stroke-linecap="round"/>
<path d="M-161.71 46.4582C-120.253 35.2723 -3.95693 146.317 48.2771 139.682C101.739 132.892 81.6602 -25.9769 141.943 -17.3543C208.496 -7.83436 249.519 166.161 390.351 154.401C479.308 147.013 503.701 -38.2138 524.748 -80.5332" stroke="white" stroke-width="0.392596" stroke-miterlimit="10" stroke-linecap="round"/>
<path d="M-161.727 43.0113C-119.015 31.1856 -0.201294 144.727 52.3048 140.988C106.005 137.166 83.4923 -28.865 143.906 -21.6632C210.847 -13.8528 252.473 170.609 394.389 158.391C483.783 150.714 505.766 -44.9697 524.141 -86.5039" stroke="white" stroke-width="0.34482" stroke-miterlimit="10" stroke-linecap="round"/>
<path d="M-161.747 39.5677C-117.783 27.0919 3.55668 143.134 56.3349 142.297C110.274 141.441 85.306 -31.6023 145.872 -25.9688C213.178 -19.7081 255.429 175.061 398.432 162.384C488.263 154.42 507.841 -51.7057 523.547 -92.4775" stroke="white" stroke-width="0.297044" stroke-miterlimit="10" stroke-linecap="round"/>
</g>
</g>
<defs>
<clipPath id="clip0_5055_27468">
<rect width="710.52" height="257.126" fill="white" transform="translate(-165 -94)"/>
</clipPath>
</defs>
</svg>
