<svg width="375" height="812" viewBox="0 0 375 812" fill="none" xmlns="http://www.w3.org/2000/svg">
<g clip-path="url(#clip0_3201_3514)">
<rect width="375" height="812" fill="url(#paint0_linear_3201_3514)"/>
<g filter="url(#filter0_di_3201_3514)">
<rect x="105.302" y="237.298" width="163.698" height="163.607" rx="81.8034" fill="url(#paint1_linear_3201_3514)" shape-rendering="crispEdges"/>
<rect x="106.317" y="238.313" width="161.668" height="161.577" rx="80.7885" stroke="white" stroke-width="2.02989" shape-rendering="crispEdges"/>
<path d="M173.484 327.209C169.213 324.551 167.626 318.437 170.189 313.784L188.127 279.757C190.567 275.105 196.181 273.377 200.452 276.168C204.723 278.827 206.309 284.941 203.746 289.593L185.808 323.62C183.246 328.406 177.755 330.001 173.484 327.209Z" fill="url(#paint2_linear_3201_3514)"/>
<path d="M219 327.283C214.729 329.941 209.116 328.346 206.675 323.694L188.615 289.534C186.175 284.882 187.639 278.768 191.91 276.109C196.181 273.451 201.794 275.046 204.235 279.698L222.295 313.725C224.735 318.51 223.271 324.492 219 327.283Z" fill="url(#paint3_linear_3201_3514)"/>
<path fill-rule="evenodd" clip-rule="evenodd" d="M196.208 303.894L188.615 289.533C186.175 284.881 187.639 278.766 191.91 276.108C193.239 275.281 194.698 274.865 196.151 274.826C197.624 274.857 199.105 275.288 200.452 276.168C204.723 278.827 206.309 284.941 203.746 289.593L196.208 303.894Z" fill="#00E0FF" fill-opacity="0.4"/>
<path d="M182.392 327.343C178.121 330.002 172.508 328.406 170.067 323.754L152.007 289.727C149.567 285.075 151.031 278.961 155.302 276.302C159.573 273.644 165.186 275.239 167.627 279.891L185.687 313.918C188.249 318.57 186.663 324.685 182.392 327.343Z" fill="url(#paint4_linear_3201_3514)"/>
<path fill-rule="evenodd" clip-rule="evenodd" d="M170.189 313.784C167.626 318.437 169.213 324.551 173.484 327.209C177.054 329.543 181.477 328.811 184.329 325.712C187.082 322.649 187.814 317.78 185.687 313.918L177.876 299.202L170.189 313.784Z" fill="#3E8DFF"/>
<path d="M137.986 360.459V343.885H140.88L148.529 354.44H148.713V343.885H152.033V360.459H149.161L141.489 349.858H141.305V360.459H137.986ZM156.158 360.459V343.885H162.682C167.609 343.885 170.458 346.86 170.458 352.051V352.074C170.458 357.427 167.644 360.459 162.682 360.459H156.158ZM159.627 357.599H162.131C165.197 357.599 166.92 355.669 166.92 352.132V352.109C166.92 348.698 165.14 346.745 162.131 346.745H159.627V357.599ZM171.907 360.459L177.662 343.885H181.739L187.505 360.459H183.852L182.623 356.439H176.777L175.548 360.459H171.907ZM179.603 347.193L177.57 353.843H181.831L179.809 347.193H179.603ZM196.572 360.459V343.885H200.04V351.328H200.247L206.369 343.885H210.228L204.187 351.144L210.653 360.459H206.495L201.683 353.418L200.04 355.394V360.459H196.572ZM217.604 360.723C213.756 360.723 211.425 358.208 211.425 354.153V354.142C211.425 350.122 213.779 347.538 217.466 347.538C221.153 347.538 223.45 350.064 223.45 353.889V354.934H214.744C214.779 357.013 215.893 358.219 217.673 358.219C219.143 358.219 219.959 357.438 220.188 356.956L220.223 356.887H223.347L223.324 357.002C222.933 358.587 221.302 360.723 217.604 360.723ZM217.524 350.053C216.065 350.053 214.985 351.041 214.779 352.832H220.234C220.028 350.995 218.982 350.053 217.524 350.053ZM227.45 364.915C227.059 364.915 226.634 364.904 226.244 364.881V362.354C226.473 362.377 226.806 362.389 227.116 362.389C228.311 362.389 229 361.929 229.241 360.941L229.356 360.459L224.911 347.813H228.598L231.251 357.392H231.481L234.134 347.813H237.672L233.365 360.447C232.239 363.79 230.574 364.915 227.45 364.915Z" fill="#0E3588"/>
</g>
<g clip-path="url(#clip1_3201_3514)">
<g style="mix-blend-mode:overlay" opacity="0.2">
<path d="M-161.251 245.602C-150.933 253.287 -108.817 279.724 -68.0891 198.482C-21.5426 105.634 29.5884 150.035 85.4679 204.273C141.451 258.52 164.292 133.809 273.65 135.353C349.099 136.431 444.86 261.812 543.912 189.699" stroke="white" stroke-width="1.78226" stroke-miterlimit="10" stroke-linecap="round"/>
<path d="M-161.082 241.838C-149.975 249.245 -105.429 279.265 -64.0613 199.791C-17.2759 109.911 31.3998 147.297 87.4289 199.967C143.778 252.666 167.244 138.261 277.686 139.345C353.615 140.13 446.895 254.694 543.252 183.707" stroke="white" stroke-width="1.73449" stroke-miterlimit="10" stroke-linecap="round"/>
<path d="M-160.964 238.093C-149.068 245.112 -102.031 278.725 -60.0315 201.097C-13.0093 114.186 33.1052 144.675 89.3939 195.659C146 246.929 170.2 142.71 281.729 143.338C358.137 143.828 448.935 247.577 542.595 177.718" stroke="white" stroke-width="1.68671" stroke-miterlimit="10" stroke-linecap="round"/>
<path d="M-160.891 234.372C-148.199 240.901 -98.6181 278.102 -56.0017 202.406C-8.74061 118.461 34.8833 141.983 91.359 191.353C148.294 241.121 173.158 147.162 285.771 147.33C362.657 147.527 450.977 240.467 541.941 171.725" stroke="white" stroke-width="1.63893" stroke-miterlimit="10" stroke-linecap="round"/>
<path d="M-160.844 230.683C-147.327 236.653 -95.1761 277.365 -51.9718 203.712C-4.47184 122.736 36.6635 139.287 93.3241 187.045C150.589 235.311 176.114 151.613 289.813 151.321C367.178 151.225 453.019 233.357 541.287 165.732" stroke="white" stroke-width="1.59116" stroke-miterlimit="10" stroke-linecap="round"/>
<path d="M-160.814 227.027C-146.438 232.386 -91.7009 276.525 -47.9441 205.021C-0.205239 127.011 38.4457 136.593 95.287 182.739C152.889 229.503 179.068 156.065 293.851 155.315C371.693 154.925 455.055 226.254 540.626 159.746" stroke="white" stroke-width="1.54338" stroke-miterlimit="10" stroke-linecap="round"/>
<path d="M-160.806 223.396C-145.545 228.091 -88.2028 275.599 -43.9142 206.328C4.06357 131.286 40.2343 133.893 97.2501 178.43C155.192 223.689 182.024 160.514 297.892 159.305C376.209 158.622 457.095 219.152 539.972 153.753" stroke="white" stroke-width="1.4956" stroke-miterlimit="10" stroke-linecap="round"/>
<path d="M-160.804 219.796C-144.62 223.805 -84.6716 274.585 -39.8865 207.636C8.32801 135.563 42.0248 131.194 99.213 174.124C157.498 217.877 184.978 164.966 301.932 163.298C380.725 162.322 459.132 212.057 539.313 147.766" stroke="white" stroke-width="1.44783" stroke-miterlimit="10" stroke-linecap="round"/>
<path d="M-160.814 216.217C-143.681 219.512 -81.1195 273.501 -35.8567 208.945C12.5967 139.838 43.8216 128.494 101.178 169.818C159.812 212.063 187.933 169.417 305.974 167.29C385.243 166.021 461.174 204.967 538.661 141.778" stroke="white" stroke-width="1.40005" stroke-miterlimit="10" stroke-linecap="round"/>
<path d="M-160.825 212.659C-142.701 215.239 -77.5382 272.34 -31.8268 210.251C16.8655 144.113 45.6227 125.787 103.143 165.51C162.128 206.242 190.889 173.867 310.014 171.283C389.757 169.719 463.214 197.882 538.005 135.791" stroke="white" stroke-width="1.35228" stroke-miterlimit="10" stroke-linecap="round"/>
<path d="M-160.844 209.119C-141.71 210.968 -73.9385 271.129 -27.797 211.56C21.1342 148.387 47.4256 123.081 105.108 161.204C164.448 200.422 193.847 178.318 314.057 175.275C394.275 173.418 465.256 190.802 537.352 129.803" stroke="white" stroke-width="1.3045" stroke-miterlimit="10" stroke-linecap="round"/>
<path d="M-160.87 205.594C-140.705 206.701 -70.324 269.87 -23.7691 212.869C25.4009 152.664 49.233 120.372 107.071 156.898C166.771 194.6 196.801 182.772 318.097 179.268C398.789 177.118 467.298 183.729 536.702 123.814" stroke="white" stroke-width="1.25465" stroke-miterlimit="10" stroke-linecap="round"/>
<path d="M-160.891 202.082C-139.658 202.462 -66.6849 268.559 -19.7395 214.175C29.6674 156.937 51.0441 117.657 109.034 152.59C169.097 188.771 199.755 187.221 322.137 183.26C403.301 180.817 469.34 176.663 536.05 117.827" stroke="white" stroke-width="1.20687" stroke-miterlimit="10" stroke-linecap="round"/>
<path d="M-160.918 198.58C-138.605 198.224 -63.0352 267.215 -15.7118 215.482C33.934 161.212 52.8576 114.936 110.997 148.282C171.426 182.938 202.709 191.671 326.177 187.25C407.812 184.515 471.382 169.602 535.4 111.837" stroke="white" stroke-width="1.15909" stroke-miterlimit="10" stroke-linecap="round"/>
<path d="M-160.939 195.088C-137.514 194.018 -59.3687 265.832 -11.6818 216.791C38.2028 165.489 54.6773 112.215 112.962 143.975C173.761 177.105 205.667 196.122 330.218 191.243C412.324 188.214 473.424 162.552 534.75 105.852" stroke="white" stroke-width="1.11132" stroke-miterlimit="10" stroke-linecap="round"/>
<path d="M-160.954 191.6C-136.392 189.834 -55.6838 264.415 -7.65208 218.097C42.4714 169.762 56.499 109.487 114.927 139.667C176.1 171.264 208.623 200.572 334.26 195.233C416.834 191.914 475.466 155.51 534.097 99.8675" stroke="white" stroke-width="1.06354" stroke-miterlimit="10" stroke-linecap="round"/>
<path d="M-160.983 188.123C-135.289 185.632 -51.9987 262.984 -3.62213 219.406C46.7403 174.039 58.3229 106.758 116.892 135.361C178.441 165.421 211.579 205.023 338.302 199.228C421.345 195.615 477.512 148.479 533.454 93.8831" stroke="white" stroke-width="1.01576" stroke-miterlimit="10" stroke-linecap="round"/>
<path d="M-161.008 184.65C-134.159 181.453 -48.3013 261.528 0.407599 220.714C51.0068 178.314 60.1507 104.022 118.855 131.055C180.782 159.571 214.535 209.475 342.342 203.22C425.851 199.315 479.556 141.458 532.807 87.9006" stroke="white" stroke-width="0.967988" stroke-miterlimit="10" stroke-linecap="round"/>
<path d="M-161.026 181.181C-133.005 177.296 -44.5936 260.051 4.43526 222.021C55.2734 182.589 61.9787 101.28 120.818 126.747C183.127 153.716 217.488 213.926 346.38 207.21C430.354 203.014 481.597 134.447 532.157 81.9182" stroke="white" stroke-width="0.920212" stroke-miterlimit="10" stroke-linecap="round"/>
<path d="M-161.041 177.714C-131.829 173.156 -40.8773 258.553 8.46315 223.33C59.5401 186.864 63.8088 98.534 122.781 122.441C185.474 147.856 220.442 218.378 350.421 211.205C434.858 206.716 483.642 127.453 531.511 75.942" stroke="white" stroke-width="0.872436" stroke-miterlimit="10" stroke-linecap="round"/>
<path d="M-161.07 174.253C-130.676 168.994 -37.1612 257.049 12.4929 224.636C63.8087 191.139 65.6408 95.7816 124.746 118.133C187.823 141.988 223.398 222.827 354.463 215.195C439.363 210.416 485.692 120.465 530.873 69.9555" stroke="white" stroke-width="0.82466" stroke-miterlimit="10" stroke-linecap="round"/>
<path d="M-161.084 170.792C-129.484 164.868 -33.4326 255.527 16.5227 225.945C68.0774 195.416 67.4771 93.0231 126.711 113.827C190.175 136.115 226.356 227.278 358.505 219.188C443.865 214.117 487.74 113.5 530.234 63.9793" stroke="white" stroke-width="0.776883" stroke-miterlimit="10" stroke-linecap="round"/>
<path d="M-161.103 167.336C-128.291 160.739 -29.6998 253.996 20.5525 227.252C72.3441 199.689 69.3113 90.2583 128.676 109.518C192.528 130.235 229.312 231.728 362.545 223.178C448.364 217.817 489.788 106.546 529.596 57.9989" stroke="white" stroke-width="0.729107" stroke-miterlimit="10" stroke-linecap="round"/>
<path d="M-161.12 163.879C-127.089 156.619 -25.9628 252.45 24.5824 228.558C76.6128 203.964 71.1476 87.4873 130.639 105.21C194.88 124.348 232.266 236.177 366.586 227.17C452.859 221.518 491.836 99.6162 528.958 52.0248" stroke="white" stroke-width="0.681331" stroke-miterlimit="10" stroke-linecap="round"/>
<path d="M-161.143 160.427C-125.89 152.496 -22.2259 250.901 28.6101 229.867C80.8794 208.239 72.9818 84.7142 132.602 100.904C197.231 118.455 235.22 240.629 370.626 231.163C457.352 225.22 493.888 92.7032 528.327 46.0466" stroke="white" stroke-width="0.633555" stroke-miterlimit="10" stroke-linecap="round"/>
<path d="M-161.163 156.977C-124.681 148.385 -18.4847 249.343 32.6379 231.175C85.1461 212.516 74.8139 81.9328 134.565 96.598C199.581 112.555 238.176 245.082 374.666 235.155C461.845 228.922 495.941 85.8109 527.697 40.0745" stroke="white" stroke-width="0.583701" stroke-miterlimit="10" stroke-linecap="round"/>
<path d="M-161.178 153.527C-123.457 144.285 -14.7353 247.777 36.6698 232.484C89.4169 216.791 76.6503 79.1451 136.533 92.2919C201.936 106.65 241.133 249.534 378.708 239.15C466.336 232.627 497.997 78.9478 527.072 34.1025" stroke="white" stroke-width="0.535925" stroke-miterlimit="10" stroke-linecap="round"/>
<path d="M-161.201 150.078C-122.244 140.176 -10.9881 246.204 40.6975 233.791C93.6814 221.066 78.4802 76.3513 138.495 87.9837C204.283 100.736 244.087 253.983 382.748 243.14C470.823 236.329 500.056 72.1012 526.453 28.1284" stroke="white" stroke-width="0.488149" stroke-miterlimit="10" stroke-linecap="round"/>
<path d="M-161.211 146.628C-121.002 136.09 -7.23235 244.623 44.7274 235.097C97.9502 225.34 80.3124 73.5512 140.459 83.6756C206.631 94.8157 247.043 258.433 386.789 247.131C475.306 240.031 502.116 65.2921 525.836 22.1584" stroke="white" stroke-width="0.440372" stroke-miterlimit="10" stroke-linecap="round"/>
<path d="M-161.23 143.182C-119.773 131.996 -3.47683 243.041 48.7572 236.406C102.219 229.615 82.1403 70.7469 142.424 79.3695C208.976 88.8894 249.999 262.884 390.831 251.125C479.788 243.736 504.181 58.5099 525.228 16.1906" stroke="white" stroke-width="0.392596" stroke-miterlimit="10" stroke-linecap="round"/>
<path d="M-161.246 139.736C-118.534 127.91 0.278809 241.451 52.7849 237.712C106.485 233.89 83.9724 67.8595 144.387 75.0613C211.327 82.8717 252.953 267.334 394.869 255.115C484.263 247.438 506.246 51.7548 524.621 10.2206" stroke="white" stroke-width="0.34482" stroke-miterlimit="10" stroke-linecap="round"/>
<path d="M-161.267 136.292C-117.303 123.816 4.03654 239.858 56.8148 239.021C110.754 238.165 85.7858 65.1218 146.352 70.7552C213.658 77.016 255.909 271.785 398.911 259.108C488.743 251.144 508.321 45.0183 524.027 4.2465" stroke="white" stroke-width="0.297044" stroke-miterlimit="10" stroke-linecap="round"/>
</g>
</g>
<g clip-path="url(#clip2_3201_3514)">
<g style="mix-blend-mode:overlay">
<path d="M-314.146 377.935C-300.503 367.772 -244.817 332.817 -190.965 440.238C-129.42 563.004 -61.8129 504.296 12.0725 432.58C86.0952 360.854 116.296 525.749 260.892 523.709C360.653 522.283 487.27 356.5 618.24 451.85" stroke="white" stroke-width="2.35655" stroke-miterlimit="10" stroke-linecap="round"/>
<path d="M-313.923 382.911C-299.237 373.117 -240.337 333.424 -185.639 438.507C-123.778 557.349 -59.4179 507.916 14.6653 438.274C89.1714 368.594 120.199 519.863 266.229 518.43C366.624 517.392 489.961 365.913 617.366 459.774" stroke="white" stroke-width="2.29338" stroke-miterlimit="10" stroke-linecap="round"/>
<path d="M-313.766 387.863C-298.037 378.583 -235.844 334.138 -180.311 436.78C-118.137 551.696 -57.163 511.382 17.2635 443.97C92.1102 376.18 124.108 513.98 271.574 513.151C372.603 512.503 492.658 375.323 616.498 467.692" stroke="white" stroke-width="2.23021" stroke-miterlimit="10" stroke-linecap="round"/>
<path d="M-313.67 392.783C-296.889 384.15 -231.331 334.962 -174.983 435.049C-112.493 546.044 -54.812 514.942 19.8617 449.664C95.1423 383.859 128.019 508.094 276.918 507.872C378.58 507.611 495.358 384.724 615.633 475.616" stroke="white" stroke-width="2.16704" stroke-miterlimit="10" stroke-linecap="round"/>
<path d="M-313.607 397.66C-295.735 389.767 -226.78 335.937 -169.654 433.322C-106.848 540.391 -52.4581 518.507 22.46 455.36C98.1774 391.541 131.927 502.208 282.263 502.596C384.556 502.722 498.058 394.126 614.768 483.54" stroke="white" stroke-width="2.10387" stroke-miterlimit="10" stroke-linecap="round"/>
<path d="M-313.569 402.494C-294.56 395.408 -222.185 337.046 -164.328 431.592C-101.207 534.739 -50.1015 522.069 25.0556 461.054C101.218 399.22 135.833 496.323 287.603 497.314C390.527 497.83 500.75 403.516 613.895 491.456" stroke="white" stroke-width="2.0407" stroke-miterlimit="10" stroke-linecap="round"/>
<path d="M-313.558 407.295C-293.379 401.088 -217.56 338.271 -159 429.864C-95.5627 529.086 -47.7368 525.639 27.651 466.75C104.264 406.908 139.741 490.439 292.945 492.038C396.499 492.942 503.447 412.907 613.03 499.38" stroke="white" stroke-width="1.97753" stroke-miterlimit="10" stroke-linecap="round"/>
<path d="M-313.555 412.055C-292.157 406.754 -212.891 339.612 -153.675 428.134C-89.9241 523.431 -45.3693 529.207 30.2464 472.444C107.312 414.593 143.647 484.554 298.287 486.759C402.469 488.05 506.141 422.289 612.159 507.295" stroke="white" stroke-width="1.91436" stroke-miterlimit="10" stroke-linecap="round"/>
<path d="M-313.569 416.788C-290.915 412.431 -208.194 341.045 -148.346 426.403C-84.2798 517.779 -42.9934 532.778 32.8448 478.138C110.372 422.281 147.555 478.668 303.632 481.48C408.443 483.158 508.841 431.663 611.296 515.214" stroke="white" stroke-width="1.85119" stroke-miterlimit="10" stroke-linecap="round"/>
<path d="M-313.582 421.492C-289.619 418.081 -203.459 342.581 -143.018 424.676C-78.6356 512.126 -40.6121 536.357 35.4431 483.834C113.435 429.977 151.464 472.785 308.974 476.201C414.412 478.269 511.538 441.031 610.429 523.129" stroke="white" stroke-width="1.78801" stroke-miterlimit="10" stroke-linecap="round"/>
<path d="M-313.607 426.173C-288.309 423.728 -198.699 344.182 -137.69 422.945C-72.9915 506.474 -38.2282 539.935 38.0412 489.528C116.502 437.672 155.375 466.899 314.318 470.922C420.385 473.378 514.238 450.392 609.566 531.047" stroke="white" stroke-width="1.72484" stroke-miterlimit="10" stroke-linecap="round"/>
<path d="M-313.643 430.833C-286.979 429.369 -193.92 345.846 -132.364 421.215C-67.35 500.819 -35.8386 543.517 40.6368 495.221C119.573 445.371 159.28 461.01 319.661 465.643C426.354 468.486 516.938 459.744 608.706 538.966" stroke="white" stroke-width="1.65893" stroke-miterlimit="10" stroke-linecap="round"/>
<path d="M-313.67 435.478C-285.595 434.975 -189.108 347.58 -127.036 419.487C-61.7086 495.169 -33.4437 547.107 43.2322 500.918C122.649 453.078 163.186 455.127 325.003 460.365C432.319 463.595 519.638 469.088 607.844 546.881" stroke="white" stroke-width="1.59576" stroke-miterlimit="10" stroke-linecap="round"/>
<path d="M-313.706 440.109C-284.202 440.578 -184.282 349.357 -121.71 417.76C-56.0671 489.517 -31.0459 550.705 45.8278 506.614C125.728 460.79 167.091 449.244 330.345 455.088C438.285 458.706 522.338 478.423 606.984 554.802" stroke="white" stroke-width="1.53258" stroke-miterlimit="10" stroke-linecap="round"/>
<path d="M-313.734 444.726C-282.76 446.14 -179.435 351.186 -116.382 416.029C-50.4229 483.861 -28.6399 554.303 48.426 512.308C128.815 468.503 171.003 443.358 335.687 449.809C444.25 453.814 525.038 487.745 606.125 562.715" stroke="white" stroke-width="1.46941" stroke-miterlimit="10" stroke-linecap="round"/>
<path d="M-313.753 449.337C-281.277 451.672 -174.562 353.059 -111.053 414.302C-44.7787 478.212 -26.2311 557.909 51.0243 518.004C131.908 476.226 174.911 437.475 341.032 444.533C450.213 448.922 527.738 497.056 605.262 570.628" stroke="white" stroke-width="1.40624" stroke-miterlimit="10" stroke-linecap="round"/>
<path d="M-313.791 453.935C-279.819 457.228 -169.69 354.951 -105.725 412.572C-39.1345 472.557 -23.8196 561.518 53.6226 523.698C135.003 483.952 178.819 431.589 346.376 439.252C456.179 444.028 530.443 506.353 604.411 578.541" stroke="white" stroke-width="1.34307" stroke-miterlimit="10" stroke-linecap="round"/>
<path d="M-313.824 458.527C-278.325 462.754 -164.801 356.877 -100.397 410.841C-33.493 466.904 -21.4026 565.135 56.2181 529.391C138.099 491.686 182.728 425.703 351.719 433.973C462.136 439.136 533.146 515.636 603.557 586.451" stroke="white" stroke-width="1.2799" stroke-miterlimit="10" stroke-linecap="round"/>
<path d="M-313.849 463.114C-276.798 468.25 -159.898 358.83 -95.0711 409.114C-27.8517 461.252 -18.9857 568.761 58.8135 535.088C141.2 499.429 186.633 419.817 357.058 428.697C468.09 434.245 535.845 524.906 602.697 594.361" stroke="white" stroke-width="1.21673" stroke-miterlimit="10" stroke-linecap="round"/>
<path d="M-313.868 467.698C-275.243 473.724 -154.985 360.81 -89.7455 407.383C-22.2101 455.599 -16.566 572.392 61.4091 540.781C144.303 507.177 190.539 413.931 362.4 423.415C474.045 429.35 538.548 534.154 601.843 602.263" stroke="white" stroke-width="1.15356" stroke-miterlimit="10" stroke-linecap="round"/>
<path d="M-313.906 472.274C-273.719 479.228 -150.071 362.798 -84.4171 405.656C-16.5659 449.947 -14.1434 576.031 64.0074 546.478C147.41 514.936 194.447 408.048 367.745 418.139C480.002 424.459 541.259 543.393 601 610.179" stroke="white" stroke-width="1.09039" stroke-miterlimit="10" stroke-linecap="round"/>
<path d="M-313.926 476.849C-272.142 484.683 -145.141 364.811 -79.0888 403.925C-10.9218 444.292 -11.7155 579.678 66.6056 552.171C150.519 522.701 198.358 402.162 373.089 412.86C485.954 419.564 543.967 552.602 600.154 618.081" stroke="white" stroke-width="1.02722" stroke-miterlimit="10" stroke-linecap="round"/>
<path d="M-313.951 481.42C-270.566 490.143 -140.205 366.836 -73.7605 402.198C-5.28039 438.642 -9.29038 583.334 69.2038 557.868C153.63 530.476 202.267 396.279 378.432 407.584C491.903 414.673 546.675 561.798 599.31 625.988" stroke="white" stroke-width="0.964045" stroke-miterlimit="10" stroke-linecap="round"/>
<path d="M-313.972 485.99C-268.975 495.589 -135.264 368.879 -68.4321 400.47C0.363918 432.99 -6.86228 586.998 71.7994 563.564C156.74 538.26 206.172 390.396 383.774 402.305C497.847 409.778 549.383 570.961 598.467 633.887" stroke="white" stroke-width="0.900874" stroke-miterlimit="10" stroke-linecap="round"/>
<path d="M-314.003 490.555C-267.391 501.041 -130.323 370.928 -63.1066 398.74C6.00531 427.337 -4.43714 590.664 74.3948 569.258C159.849 546.052 210.078 384.51 389.116 397.026C503.788 404.884 552.097 580.101 597.632 641.792" stroke="white" stroke-width="0.837703" stroke-miterlimit="10" stroke-linecap="round"/>
<path d="M-314.03 495.117C-265.792 506.477 -125.377 372.988 -57.7808 397.009C11.6469 421.682 -2.01456 594.342 76.9904 574.951C162.955 553.852 213.986 378.621 394.458 391.747C509.729 399.989 554.811 589.214 596.8 649.688" stroke="white" stroke-width="0.771785" stroke-miterlimit="10" stroke-linecap="round"/>
<path d="M-314.049 499.679C-264.174 511.898 -120.419 375.059 -52.4498 395.279C17.2937 416.029 0.413383 598.028 79.5914 580.645C166.07 561.661 217.897 372.735 399.803 386.465C515.667 395.09 557.53 598.289 595.973 657.585" stroke="white" stroke-width="0.708614" stroke-miterlimit="10" stroke-linecap="round"/>
<path d="M-314.08 504.238C-262.57 517.331 -115.464 377.138 -47.1243 393.552C22.9324 410.377 2.83303 601.722 82.1868 586.341C169.173 569.48 221.803 366.852 405.145 381.189C521.599 390.195 560.251 607.342 595.155 665.484" stroke="white" stroke-width="0.645443" stroke-miterlimit="10" stroke-linecap="round"/>
<path d="M-314.093 508.8C-260.928 522.734 -110.498 379.228 -41.7959 391.824C28.5767 404.725 5.25553 605.424 84.7824 592.038C172.277 577.308 225.712 360.969 410.487 375.913C527.526 385.301 562.976 616.345 594.339 673.377" stroke="white" stroke-width="0.582272" stroke-miterlimit="10" stroke-linecap="round"/>
<path d="M-314.118 513.357C-259.302 528.147 -105.533 381.321 -36.4675 390.094C34.2209 399.072 7.67262 609.132 87.3807 597.731C175.378 585.144 229.62 355.083 415.832 370.631C533.453 380.401 565.706 625.312 593.535 681.268" stroke="white" stroke-width="0.519101" stroke-miterlimit="10" stroke-linecap="round"/>
<path d="M-314.14 517.913C-257.665 533.55 -100.567 383.422 -31.142 388.366C39.8622 393.42 10.0949 612.95 89.976 603.428C178.487 593.101 233.525 349.2 421.171 365.355C539.369 375.507 568.436 634.244 592.732 689.162" stroke="white" stroke-width="0.45593" stroke-miterlimit="10" stroke-linecap="round"/>
<path d="M-314.167 522.467C-256.036 538.963 -95.5984 385.529 -25.8137 386.636C45.5064 387.767 12.4927 616.57 92.5743 609.121C181.569 600.843 237.434 343.314 426.516 360.076C545.294 370.607 571.18 643.151 591.947 697.061" stroke="white" stroke-width="0.392759" stroke-miterlimit="10" stroke-linecap="round"/>
</g>
</g>
</g>
<defs>
<filter id="filter0_di_3201_3514" x="97.1826" y="237.298" width="179.937" height="179.846" filterUnits="userSpaceOnUse" color-interpolation-filters="sRGB">
<feFlood flood-opacity="0" result="BackgroundImageFix"/>
<feColorMatrix in="SourceAlpha" type="matrix" values="0 0 0 0 0 0 0 0 0 0 0 0 0 0 0 0 0 0 127 0" result="hardAlpha"/>
<feOffset dy="8.11958"/>
<feGaussianBlur stdDeviation="4.05979"/>
<feComposite in2="hardAlpha" operator="out"/>
<feColorMatrix type="matrix" values="0 0 0 0 1 0 0 0 0 1 0 0 0 0 1 0 0 0 0.25 0"/>
<feBlend mode="normal" in2="BackgroundImageFix" result="effect1_dropShadow_3201_3514"/>
<feBlend mode="normal" in="SourceGraphic" in2="effect1_dropShadow_3201_3514" result="shape"/>
<feColorMatrix in="SourceAlpha" type="matrix" values="0 0 0 0 0 0 0 0 0 0 0 0 0 0 0 0 0 0 127 0" result="hardAlpha"/>
<feOffset dy="8.11958"/>
<feGaussianBlur stdDeviation="7.10463"/>
<feComposite in2="hardAlpha" operator="arithmetic" k2="-1" k3="1"/>
<feColorMatrix type="matrix" values="0 0 0 0 0.666634 0 0 0 0 0.851268 0 0 0 0 1 0 0 0 1 0"/>
<feBlend mode="normal" in2="shape" result="effect2_innerShadow_3201_3514"/>
</filter>
<linearGradient id="paint0_linear_3201_3514" x1="187.5" y1="4.74159e-09" x2="187" y2="620" gradientUnits="userSpaceOnUse">
<stop stop-color="#71C0FF"/>
<stop offset="1" stop-color="white"/>
</linearGradient>
<linearGradient id="paint1_linear_3201_3514" x1="187.151" y1="237.298" x2="187.151" y2="400.904" gradientUnits="userSpaceOnUse">
<stop offset="0.05" stop-color="white"/>
<stop offset="0.51" stop-color="white" stop-opacity="0.2"/>
<stop offset="0.995" stop-color="white"/>
</linearGradient>
<linearGradient id="paint2_linear_3201_3514" x1="186.968" y1="274.824" x2="186.968" y2="328.583" gradientUnits="userSpaceOnUse">
<stop stop-color="#1AE3FF"/>
<stop offset="0.571753" stop-color="#0058E8"/>
<stop offset="1" stop-color="#003893"/>
</linearGradient>
<linearGradient id="paint3_linear_3201_3514" x1="205.455" y1="274.824" x2="205.455" y2="328.568" gradientUnits="userSpaceOnUse">
<stop stop-color="#1AE3FF"/>
<stop offset="0.571753" stop-color="#0058E8"/>
<stop offset="1" stop-color="#003893"/>
</linearGradient>
<linearGradient id="paint4_linear_3201_3514" x1="168.874" y1="275.017" x2="168.874" y2="328.628" gradientUnits="userSpaceOnUse">
<stop stop-color="#1AE3FF"/>
<stop offset="0.571753" stop-color="#0058E8"/>
<stop offset="1" stop-color="#003893"/>
</linearGradient>
<clipPath id="clip0_3201_3514">
<rect width="375" height="812" fill="white"/>
</clipPath>
<clipPath id="clip1_3201_3514">
<rect width="710.52" height="257.126" fill="white" transform="translate(-164.52 2.72389)"/>
</clipPath>
<clipPath id="clip2_3201_3514">
<rect width="939.469" height="339.978" fill="white" transform="matrix(1 0 0 -1 -318.469 699.074)"/>
</clipPath>
</defs>
</svg>
