<svg width="169" height="186" viewBox="0 0 169 186" fill="none" xmlns="http://www.w3.org/2000/svg">
<g clip-path="url(#clip0_4988_48374)">
<path fill-rule="evenodd" clip-rule="evenodd" d="M42.8659 148.215C45.5744 146.169 64.3857 138.783 69.8685 136.305L70.0071 136.19C72.7249 134.679 73.8055 134.715 74.1861 133.284C56.6667 129.817 51.1135 115.506 48.9993 99.5162C46.366 96.251 44.3857 91.7502 43.7632 88.492C42.988 84.4586 44.4821 83.6811 47.3456 83.2818C46.1546 59.2038 53.0891 46.8054 53.0891 46.8054C53.0891 46.8054 60.0118 33.9348 72.4125 33.2888C73.1642 33.3076 73.9308 33.3147 74.7122 33.31C75.1813 33.348 75.6526 33.348 76.1217 33.31C95.6847 33.4556 106.488 39.6525 107.834 40.4606L107.977 40.5498C107.977 40.5498 109.185 41.3603 110.883 42.7556C114.045 45.699 115.1 48.7998 115.1 48.7998C117.611 48.1538 120.754 54.9755 120.926 55.356C121.525 56.9324 121.786 58.617 121.694 60.3008C121.318 65.7295 120.42 75.457 119.673 83.2865C122.518 83.6858 124.003 84.4727 123.23 88.492C122.605 91.7502 120.625 96.2439 117.996 99.5138C115.882 114.769 110.58 128.33 94.7052 132.65C94.9401 134.75 95.9338 134.484 98.9993 136.19L99.1379 136.305C104.621 138.783 123.434 146.171 126.152 148.215C131.217 149.906 134.205 156.751 136.042 164.705C136.618 167.208 136.622 169.808 136.053 172.312C135.485 174.817 134.36 177.16 132.761 179.17C131.161 181.179 129.13 182.801 126.817 183.917C124.504 185.032 121.969 185.612 119.401 185.612H49.5795C47.0116 185.612 44.4768 185.032 42.1638 183.917C39.8508 182.801 37.8191 181.179 36.2199 179.17C34.6207 177.16 33.4952 174.817 32.9271 172.312C32.359 169.808 32.363 167.208 32.9387 164.705C34.7757 156.751 37.7731 149.906 42.8659 148.215Z" fill="url(#paint0_linear_4988_48374)"/>
<path fill-rule="evenodd" clip-rule="evenodd" d="M93.7589 109.455C93.7589 109.455 113.364 106.47 113.364 92.1757C113.364 80.5596 108.901 75.0745 107.21 73.4255C106.437 72.6784 105.781 71.8192 105.265 70.8767C104.325 69.1337 103.54 66.6178 105.406 64.9101C105.406 64.9101 77.9943 71.2526 64.2969 60.3411C64.2969 60.3411 51.4756 64.1725 51.4756 87.4588C51.4756 110.745 66.8033 110.597 66.8033 110.597C66.8033 110.597 69.8971 103.522 80.0662 103.522C90.2353 103.522 93.7589 109.455 93.7589 109.455Z" fill="url(#paint1_linear_4988_48374)"/>
<path fill-rule="evenodd" clip-rule="evenodd" d="M48.9978 99.5169C46.3645 96.2517 44.3842 91.7509 43.7617 88.4927C42.9865 84.4594 44.4805 83.6818 47.3441 83.2825L48.9978 99.5169Z" fill="url(#paint2_linear_4988_48374)"/>
<path fill-rule="evenodd" clip-rule="evenodd" d="M117.968 99.5145C120.596 96.2469 122.577 91.7508 123.202 88.4926C123.974 84.4734 122.497 83.6864 119.645 83.2871L117.968 99.5145Z" fill="url(#paint3_linear_4988_48374)"/>
<path fill-rule="evenodd" clip-rule="evenodd" d="M80.086 113.689C80.086 113.689 86.2124 113.376 89.9286 115.878C91.9629 117.245 90.5934 120.431 88.188 119.966C85.7825 119.5 82.8157 119.068 80.086 119.068" fill="url(#paint4_linear_4988_48374)"/>
<path fill-rule="evenodd" clip-rule="evenodd" d="M80.0847 113.689C80.0847 113.689 74.05 113.381 70.3267 115.822C68.2337 117.196 69.5303 120.438 71.9898 119.966C74.3718 119.496 77.3574 119.068 80.0847 119.068" fill="url(#paint5_linear_4988_48374)"/>
<path fill-rule="evenodd" clip-rule="evenodd" d="M42.8659 148.215C45.5744 146.169 64.3857 138.784 69.8685 136.306L70.0071 136.19C72.7249 134.68 73.8055 134.715 74.1861 133.285C83.6458 135.291 94.6793 132.65 94.6793 132.65C94.9143 134.751 95.9079 134.485 98.9734 136.19L99.112 136.306C104.595 138.784 123.408 146.172 126.126 148.215C131.217 149.907 134.205 156.752 136.042 164.706C136.618 167.208 136.622 169.809 136.053 172.313C135.485 174.817 134.36 177.161 132.761 179.17C131.161 181.179 129.13 182.802 126.817 183.917C124.504 185.033 121.969 185.612 119.401 185.613H49.5795C47.0116 185.612 44.4768 185.033 42.1638 183.917C39.8508 182.802 37.8191 181.179 36.2199 179.17C34.6207 177.161 33.4952 174.817 32.9271 172.313C32.359 169.809 32.363 167.208 32.9387 164.706C34.7757 156.752 37.7731 149.907 42.8659 148.215Z" fill="black"/>
<path fill-rule="evenodd" clip-rule="evenodd" d="M42.8654 148.215C45.5739 146.169 64.3852 138.784 69.868 136.306L70.0066 136.19C72.7244 134.68 73.805 134.715 74.1856 133.285C83.6453 135.291 94.6789 132.65 94.6789 132.65C94.9138 134.751 95.9074 134.485 98.973 136.19L99.1115 136.306C104.594 138.784 123.408 146.172 126.126 148.215C132.172 150.214 135.264 159.538 136.967 169.334C138.444 177.844 131.86 185.624 123.229 185.624H45.7594C37.1196 185.624 30.5351 177.844 32.015 169.334C33.7158 159.538 36.8071 150.214 42.8654 148.215Z" fill="url(#paint6_linear_4988_48374)"/>
<path fill-rule="evenodd" clip-rule="evenodd" d="M98.9717 136.19C98.9717 136.19 84.391 141.055 69.8667 136.305C69.8667 136.305 64.7223 136.266 63.5806 138.979C63.5806 138.979 77.4566 147.494 104.88 138.765C104.88 138.765 102.467 135.279 98.9717 136.19Z" fill="url(#paint7_linear_4988_48374)"/>
<path fill-rule="evenodd" clip-rule="evenodd" d="M69.8699 136.306L70.0085 136.19C72.7263 134.68 73.8069 134.715 74.1875 133.285C83.6472 135.291 94.6808 132.65 94.6808 132.65C94.9157 134.751 95.9093 134.485 98.9749 136.19C98.9749 136.19 84.3942 141.055 69.8699 136.306Z" fill="url(#paint8_linear_4988_48374)"/>
<g opacity="0.8">
<path d="M83.9043 128.343C83.9262 128.345 83.9482 128.345 83.9701 128.343L100.566 124.57C100.637 124.556 100.7 124.515 100.742 124.455L109.972 111.796C109.993 111.769 110.009 111.738 110.019 111.705L117.383 86.5696C117.395 86.5249 117.395 86.478 117.383 86.4333L111.995 56.3112C111.986 56.2647 111.967 56.2209 111.938 56.1833C111.91 56.1458 111.873 56.1155 111.83 56.0951L84.0359 42.6208C83.9902 42.5984 83.9396 42.588 83.8888 42.5906C83.8379 42.5933 83.7887 42.6089 83.7456 42.636C83.7025 42.663 83.6671 42.7007 83.6426 42.7453C83.6182 42.7899 83.6056 42.8401 83.606 42.891V128.045C83.605 128.084 83.6121 128.123 83.6267 128.16C83.6414 128.197 83.6633 128.23 83.6912 128.258C83.7191 128.286 83.7524 128.308 83.789 128.322C83.8257 128.337 83.8649 128.344 83.9043 128.343ZM100.324 124.004L84.2027 127.669V43.3678L111.44 56.5672L116.789 86.4803L109.458 111.491L100.324 124.004Z" fill="url(#paint9_linear_4988_48374)"/>
<path d="M100.501 124.575C100.572 124.574 100.641 124.549 100.695 124.502C100.742 124.462 100.776 124.409 100.791 124.349C100.806 124.289 100.802 124.226 100.78 124.169L95.7014 110.809L109.707 111.913C109.762 111.918 109.818 111.907 109.868 111.881C109.918 111.855 109.96 111.816 109.988 111.768C110.018 111.721 110.034 111.666 110.034 111.61C110.034 111.555 110.018 111.5 109.988 111.453L97.8014 92.59L117.177 86.7761C117.205 86.7688 117.232 86.7569 117.256 86.7408C117.28 86.7254 117.301 86.7073 117.32 86.6868C117.35 86.6521 117.373 86.6112 117.386 86.567C117.392 86.532 117.392 86.4963 117.386 86.4613C117.387 86.4504 117.387 86.4394 117.386 86.4284L111.997 56.3133C111.988 56.26 111.965 56.2099 111.931 56.1686C111.896 56.1272 111.851 56.096 111.8 56.0784C111.749 56.0614 111.695 56.058 111.642 56.0688C111.59 56.0795 111.541 56.1039 111.501 56.1395L99.5491 66.863L84.1557 42.731C84.1345 42.698 84.1071 42.6695 84.075 42.6471C84.0428 42.6247 84.0066 42.6088 83.9683 42.6004C83.93 42.592 83.8904 42.5912 83.8519 42.5981C83.8133 42.605 83.7764 42.6194 83.7434 42.6406C83.7104 42.6617 83.6819 42.6891 83.6595 42.7213C83.6371 42.7534 83.6212 42.7897 83.6128 42.828C83.6044 42.8662 83.6036 42.9058 83.6105 42.9444C83.6174 42.983 83.6318 43.0198 83.653 43.0528L99.0793 67.2342L83.7422 77.1331C83.7063 77.1569 83.6757 77.1881 83.6526 77.2245C83.6296 77.2609 83.6145 77.3019 83.6083 77.3446C83.6029 77.3866 83.6066 77.4294 83.6192 77.4699C83.6318 77.5105 83.6529 77.5478 83.6812 77.5795L96.8712 92.3551L83.7493 100.283C83.7083 100.308 83.6739 100.342 83.6489 100.383C83.624 100.424 83.6093 100.47 83.606 100.518C83.6022 100.565 83.6093 100.612 83.6269 100.656C83.6444 100.699 83.6718 100.738 83.707 100.769L94.6772 110.382L83.801 114.427C83.7472 114.446 83.7002 114.481 83.6656 114.526C83.6311 114.572 83.6103 114.626 83.606 114.683C83.6016 114.74 83.6132 114.796 83.6393 114.846C83.6655 114.897 83.7052 114.938 83.754 114.967L100.35 124.537C100.396 124.563 100.448 124.576 100.501 124.575ZM95.0789 110.859L99.9226 123.598L84.6044 114.756L95.0789 110.859ZM97.24 92.8249L109.152 111.27L95.3748 110.185L84.4094 100.577L97.24 92.8249ZM116.552 86.3368L97.4303 92.0756L84.3601 77.4479L99.4411 67.7134L116.552 86.3368ZM111.506 56.9476L116.62 85.5264L99.9156 67.3446L111.506 56.9476Z" fill="url(#paint10_linear_4988_48374)"/>
<path d="M83.9035 128.345C83.9429 128.345 83.9822 128.338 84.0188 128.324C84.0554 128.309 84.0887 128.287 84.1166 128.259C84.1445 128.231 84.1664 128.198 84.1811 128.161C84.1957 128.125 84.2028 128.086 84.2018 128.046V42.8924C84.2031 42.8402 84.1906 42.7886 84.1657 42.7427C84.1408 42.6969 84.1043 42.6583 84.0599 42.631C84.0154 42.6036 83.9645 42.5885 83.9124 42.5869C83.8602 42.5854 83.8085 42.5975 83.7625 42.6222L55.9613 56.0965C55.9187 56.1169 55.8816 56.1472 55.8531 56.1848C55.8245 56.2223 55.8052 56.2661 55.7969 56.3126L50.4057 86.4347C50.394 86.4794 50.394 86.5263 50.4057 86.571L57.7701 111.706C57.781 111.739 57.7968 111.77 57.8171 111.798L67.0466 124.457C67.0887 124.516 67.1516 124.557 67.2227 124.572L83.8189 128.345C83.847 128.348 83.8754 128.348 83.9035 128.345ZM83.6052 43.3692V127.67L67.4835 124.006L58.3503 111.481L51.0188 86.4817L56.3677 56.5687L83.6052 43.3692Z" fill="url(#paint11_linear_4988_48374)"/>
<path d="M67.3061 124.575C67.3591 124.575 67.4111 124.56 67.4564 124.533L84.0526 114.956C84.1014 114.927 84.1411 114.885 84.1673 114.835C84.1934 114.784 84.205 114.728 84.2006 114.671C84.1963 114.614 84.1756 114.56 84.141 114.514C84.1064 114.469 84.0594 114.435 84.0056 114.415L73.1294 110.37L84.0996 100.758C84.1352 100.727 84.163 100.688 84.1806 100.644C84.1981 100.601 84.205 100.553 84.2006 100.506C84.1973 100.459 84.1826 100.412 84.1577 100.371C84.1327 100.331 84.0983 100.296 84.0573 100.271L70.9354 92.3551L84.1255 77.5912C84.1537 77.5596 84.1749 77.5222 84.1874 77.4817C84.2 77.4411 84.2037 77.3984 84.1983 77.3563C84.1922 77.3136 84.1771 77.2727 84.154 77.2362C84.1309 77.1998 84.1004 77.1687 84.0644 77.1449L68.7273 67.2342L84.1536 43.0528C84.1963 42.9862 84.2108 42.9053 84.1938 42.828C84.1768 42.7507 84.1299 42.6832 84.0632 42.6406C83.9965 42.5979 83.9157 42.5834 83.8383 42.6004C83.761 42.6174 83.6936 42.6643 83.6509 42.731L68.2575 66.8677L56.3054 56.1442C56.2659 56.108 56.2174 56.0831 56.165 56.0721C56.1125 56.0611 56.0581 56.0644 56.0074 56.0817C55.9567 56.099 55.9116 56.1296 55.8768 56.1704C55.842 56.2112 55.8189 56.2605 55.8098 56.3133L50.4045 86.4284C50.4045 86.4402 50.4045 86.4519 50.4045 86.4613C50.3985 86.4963 50.3985 86.532 50.4045 86.567C50.4174 86.6118 50.4408 86.6528 50.4727 86.6868C50.4897 86.7082 50.5104 86.7265 50.5337 86.7408C50.5572 86.7572 50.5835 86.7691 50.6113 86.7761L70.0052 92.59L57.8253 111.453C57.7954 111.5 57.7795 111.555 57.7795 111.61C57.7795 111.666 57.7954 111.721 57.8253 111.768C57.8542 111.816 57.8959 111.855 57.9456 111.88C57.9954 111.906 58.0513 111.918 58.1071 111.913L72.1123 110.809L67.0336 124.169C67.0115 124.226 67.0078 124.289 67.023 124.349C67.0381 124.409 67.0714 124.462 67.1182 124.502C67.1707 124.547 67.237 124.573 67.3061 124.575ZM83.2023 114.754L67.884 123.598L72.7207 110.859L83.2023 114.754ZM72.4318 110.185L58.6568 111.27L70.5666 92.8249L83.3972 100.577L72.4318 110.185ZM83.4466 77.4479L70.3716 92.0756L51.2502 86.3368L68.3655 67.7134L83.4466 77.4479ZM67.891 67.3469L51.1868 85.5287L56.3007 56.9476L67.891 67.3469Z" fill="url(#paint12_linear_4988_48374)"/>
<path d="M83.8818 128.568C83.9565 128.567 84.0284 128.539 84.0835 128.489C84.1387 128.438 84.1731 128.369 84.1801 128.295L100.565 124.569C100.636 124.555 100.699 124.513 100.741 124.454L109.75 112.086L129.931 134.697C129.955 134.73 129.987 134.758 130.022 134.779C130.058 134.8 130.098 134.813 130.139 134.817C130.181 134.822 130.222 134.818 130.262 134.806C130.301 134.793 130.338 134.773 130.369 134.746C130.401 134.719 130.426 134.685 130.444 134.648C130.462 134.611 130.472 134.57 130.473 134.529C130.475 134.487 130.467 134.446 130.452 134.407C130.437 134.369 130.414 134.334 130.384 134.305L109.956 111.419C109.928 111.385 109.892 111.358 109.851 111.34C109.81 111.322 109.766 111.314 109.721 111.316C109.675 111.316 109.63 111.328 109.589 111.349C109.548 111.37 109.513 111.401 109.486 111.438L100.325 124.006L83.8393 127.764C83.7771 127.777 83.7207 127.81 83.6784 127.857C83.6361 127.904 83.6102 127.964 83.6044 128.027L83.5834 128.25C83.5762 128.329 83.6006 128.408 83.6512 128.469C83.7018 128.531 83.7746 128.569 83.8536 128.577L83.8818 128.568Z" fill="url(#paint13_linear_4988_48374)"/>
<path d="M36.8466 136.64C36.8909 136.641 36.9349 136.632 36.9754 136.614C37.016 136.596 37.0522 136.57 37.0815 136.537L58.3029 111.808C58.3355 111.771 58.3581 111.725 58.3688 111.676C58.3795 111.628 58.3778 111.577 58.364 111.529L50.9973 86.3938C50.9804 86.3339 50.9449 86.2809 50.8959 86.2425C50.8469 86.2041 50.787 86.1822 50.7248 86.18L29.757 85.1629C29.6757 85.1598 29.5965 85.1891 29.5368 85.2444C29.4771 85.2997 29.4418 85.3764 29.4387 85.4577C29.4356 85.539 29.4649 85.6182 29.5202 85.6779C29.5754 85.7376 29.6522 85.7729 29.7335 85.776L50.4875 86.7838L57.7438 111.541L36.6305 136.14C36.5787 136.2 36.5528 136.278 36.5585 136.357C36.5643 136.437 36.6011 136.51 36.661 136.562C36.7119 136.609 36.7776 136.637 36.8466 136.64Z" fill="url(#paint14_linear_4988_48374)"/>
<path d="M56.101 56.6645C56.1459 56.6645 56.1901 56.654 56.2302 56.6339L84.0338 43.1597C84.0885 43.1332 84.1337 43.0906 84.1635 43.0377C84.1933 42.9849 84.2062 42.9241 84.2006 42.8637L82.7043 26.5142C82.7076 26.4701 82.7011 26.4258 82.6854 26.3845C82.6696 26.3432 82.6449 26.3059 82.6131 26.2752C82.5813 26.2445 82.5431 26.2212 82.5012 26.207C82.4594 26.1928 82.4149 26.1879 82.371 26.1929C82.327 26.1978 82.2847 26.2123 82.247 26.2355C82.2094 26.2586 82.1773 26.2898 82.153 26.3267C82.1288 26.3637 82.113 26.4055 82.1067 26.4493C82.1005 26.4931 82.104 26.5377 82.117 26.5799L83.5946 42.7228L56.1833 56.0067L42.4538 41.4865C42.3993 41.4347 42.3273 41.4052 42.2521 41.4039C42.1769 41.4026 42.1039 41.4295 42.0476 41.4794C41.9912 41.5292 41.9556 41.5984 41.9478 41.6732C41.9399 41.748 41.9604 41.8231 42.0052 41.8835L55.8755 56.5752C55.9049 56.6049 55.9401 56.6282 55.9789 56.6436C56.0177 56.659 56.0593 56.6661 56.101 56.6645Z" fill="url(#paint15_linear_4988_48374)"/>
<path d="M117.097 86.7836H117.12L138.079 85.7758C138.158 85.7721 138.232 85.7371 138.286 85.6785C138.339 85.6199 138.367 85.5425 138.363 85.4634C138.359 85.3843 138.324 85.3099 138.266 85.2566C138.207 85.2033 138.13 85.1754 138.051 85.1792L117.355 86.1728L112.037 56.4547L128.412 38.3037C128.457 38.2432 128.477 38.1682 128.469 38.0934C128.462 38.0186 128.426 37.9494 128.37 37.8996C128.313 37.8497 128.24 37.8228 128.165 37.8241C128.09 37.8254 128.018 37.8549 127.963 37.9067L111.483 56.1775C111.453 56.2113 111.431 56.2515 111.418 56.2951C111.406 56.3386 111.404 56.3844 111.412 56.4289L116.801 86.5369C116.813 86.6062 116.85 86.6688 116.904 86.7139C116.958 86.759 117.026 86.7836 117.097 86.7836Z" fill="url(#paint16_linear_4988_48374)"/>
<path d="M130.58 39.5777C128.395 39.5777 126.624 37.8066 126.624 35.6218C126.624 33.4371 128.395 31.666 130.58 31.666C132.765 31.666 134.536 33.4371 134.536 35.6218C134.536 37.8066 132.765 39.5777 130.58 39.5777Z" fill="#7894F5"/>
<path d="M130.58 138.11C128.395 138.11 126.624 136.339 126.624 134.155C126.624 131.97 128.395 130.199 130.58 130.199C132.765 130.199 134.536 131.97 134.536 134.155C134.536 136.339 132.765 138.11 130.58 138.11Z" fill="url(#paint17_linear_4988_48374)"/>
<path d="M82.4092 30.4981C80.2244 30.4981 78.4533 28.7271 78.4533 26.5423C78.4533 24.3576 80.2244 22.5865 82.4092 22.5865C84.5939 22.5865 86.365 24.3576 86.365 26.5423C86.365 28.7271 84.5939 30.4981 82.4092 30.4981Z" fill="url(#paint18_linear_4988_48374)"/>
<path d="M41.2851 44.1964C39.1004 44.1964 37.3293 42.4253 37.3293 40.2406C37.3293 38.0559 39.1004 36.2848 41.2851 36.2848C43.4699 36.2848 45.241 38.0559 45.241 40.2406C45.241 42.4253 43.4699 44.1964 41.2851 44.1964Z" fill="url(#paint19_linear_4988_48374)"/>
<path d="M138.065 89.4244C135.88 89.4244 134.109 87.6533 134.109 85.4686C134.109 83.2838 135.88 81.5127 138.065 81.5127C140.25 81.5127 142.021 83.2838 142.021 85.4686C142.021 87.6533 140.25 89.4244 138.065 89.4244Z" fill="url(#paint20_linear_4988_48374)"/>
<path d="M29.7431 89.4244C27.5584 89.4244 25.7873 87.6533 25.7873 85.4686C25.7873 83.2838 27.5584 81.5127 29.7431 81.5127C31.9279 81.5127 33.699 83.2838 33.699 85.4686C33.699 87.6533 31.9279 89.4244 29.7431 89.4244Z" fill="url(#paint21_linear_4988_48374)"/>
<path d="M36.6653 141.19C34.4805 141.19 32.7094 139.419 32.7094 137.234C32.7094 135.049 34.4805 133.278 36.6653 133.278C38.85 133.278 40.6211 135.049 40.6211 137.234C40.6211 139.419 38.85 141.19 36.6653 141.19Z" fill="url(#paint22_linear_4988_48374)"/>
</g>
</g>
<ellipse opacity="0.3" cx="84.6638" cy="86.4899" rx="79.6638" ry="81.4899" stroke="url(#paint23_linear_4988_48374)" stroke-width="9.23746" stroke-dasharray="2.54 2.54"/>
<defs>
<linearGradient id="paint0_linear_4988_48374" x1="88.1197" y1="40.9033" x2="84.2708" y2="133.278" gradientUnits="userSpaceOnUse">
<stop/>
<stop offset="1" stop-color="#4B4B4B"/>
</linearGradient>
<linearGradient id="paint1_linear_4988_48374" x1="113.36" y1="85.4691" x2="51.4616" y2="85.4691" gradientUnits="userSpaceOnUse">
<stop stop-color="#FBE4CE"/>
<stop offset="1" stop-color="#F9EBDA"/>
</linearGradient>
<linearGradient id="paint2_linear_4988_48374" x1="48.9884" y1="91.4009" x2="43.548" y2="91.4009" gradientUnits="userSpaceOnUse">
<stop stop-color="#FFB978"/>
<stop offset="1" stop-color="#FFCC8E"/>
</linearGradient>
<linearGradient id="paint3_linear_4988_48374" x1="123.404" y1="91.4008" x2="117.968" y2="91.4008" gradientUnits="userSpaceOnUse">
<stop stop-color="#FFB978"/>
<stop offset="1" stop-color="#FFCC8E"/>
</linearGradient>
<linearGradient id="paint4_linear_4988_48374" x1="91.9113" y1="116.844" x2="69.6444" y2="116.844" gradientUnits="userSpaceOnUse">
<stop stop-color="#FFB978"/>
<stop offset="1" stop-color="#FFCC8E"/>
</linearGradient>
<linearGradient id="paint5_linear_4988_48374" x1="91.9099" y1="116.844" x2="69.6431" y2="116.844" gradientUnits="userSpaceOnUse">
<stop stop-color="#FFB978"/>
<stop offset="1" stop-color="#FFCC8E"/>
</linearGradient>
<linearGradient id="paint6_linear_4988_48374" x1="83.9976" y1="138.03" x2="84.6859" y2="185.164" gradientUnits="userSpaceOnUse">
<stop stop-color="#87A6F8"/>
<stop offset="1" stop-color="#677DF2"/>
</linearGradient>
<linearGradient id="paint7_linear_4988_48374" x1="84.2313" y1="145.223" x2="84.2313" y2="142.953" gradientUnits="userSpaceOnUse">
<stop stop-color="#4DADF7"/>
<stop offset="1" stop-color="#2A6AF5"/>
</linearGradient>
<linearGradient id="paint8_linear_4988_48374" x1="98.9749" y1="135.519" x2="69.8699" y2="135.519" gradientUnits="userSpaceOnUse">
<stop stop-color="#FFB978"/>
<stop offset="1" stop-color="#FFCC8E"/>
</linearGradient>
<linearGradient id="paint9_linear_4988_48374" x1="100.501" y1="19.3932" x2="100.501" y2="144.892" gradientUnits="userSpaceOnUse">
<stop stop-color="#57BFF3"/>
<stop offset="1" stop-color="#2B6AF1"/>
</linearGradient>
<linearGradient id="paint10_linear_4988_48374" x1="100.501" y1="19.3953" x2="100.501" y2="144.894" gradientUnits="userSpaceOnUse">
<stop stop-color="#57BFF3"/>
<stop offset="1" stop-color="#2B6AF1"/>
</linearGradient>
<linearGradient id="paint11_linear_4988_48374" x1="67.3073" y1="19.3946" x2="67.3073" y2="144.894" gradientUnits="userSpaceOnUse">
<stop stop-color="#57BFF3"/>
<stop offset="1" stop-color="#2B6AF1"/>
</linearGradient>
<linearGradient id="paint12_linear_4988_48374" x1="67.3061" y1="19.3953" x2="67.3061" y2="144.894" gradientUnits="userSpaceOnUse">
<stop stop-color="#57BFF3"/>
<stop offset="1" stop-color="#2B6AF1"/>
</linearGradient>
<linearGradient id="paint13_linear_4988_48374" x1="110.234" y1="19.3945" x2="110.234" y2="144.894" gradientUnits="userSpaceOnUse">
<stop stop-color="#57BFF3"/>
<stop offset="1" stop-color="#2B6AF1"/>
</linearGradient>
<linearGradient id="paint14_linear_4988_48374" x1="43.9101" y1="19.3936" x2="43.9101" y2="144.893" gradientUnits="userSpaceOnUse">
<stop stop-color="#57BFF3"/>
<stop offset="1" stop-color="#2B6AF1"/>
</linearGradient>
<linearGradient id="paint15_linear_4988_48374" x1="56.8222" y1="19.3941" x2="56.8222" y2="144.893" gradientUnits="userSpaceOnUse">
<stop stop-color="#57BFF3"/>
<stop offset="1" stop-color="#2B6AF1"/>
</linearGradient>
<linearGradient id="paint16_linear_4988_48374" x1="124.886" y1="19.3932" x2="124.886" y2="144.892" gradientUnits="userSpaceOnUse">
<stop stop-color="#57BFF3"/>
<stop offset="1" stop-color="#2B6AF1"/>
</linearGradient>
<linearGradient id="paint17_linear_4988_48374" x1="130.58" y1="9.15354" x2="130.58" y2="134.653" gradientUnits="userSpaceOnUse">
<stop stop-color="#57BFF3"/>
<stop offset="1" stop-color="#2B6AF1"/>
</linearGradient>
<linearGradient id="paint18_linear_4988_48374" x1="82.4092" y1="19.3941" x2="82.4092" y2="144.893" gradientUnits="userSpaceOnUse">
<stop stop-color="#57BFF3"/>
<stop offset="1" stop-color="#2B6AF1"/>
</linearGradient>
<linearGradient id="paint19_linear_4988_48374" x1="41.2851" y1="33.0924" x2="41.2851" y2="158.591" gradientUnits="userSpaceOnUse">
<stop stop-color="#57BFF3"/>
<stop offset="1" stop-color="#2B6AF1"/>
</linearGradient>
<linearGradient id="paint20_linear_4988_48374" x1="138.065" y1="19.3939" x2="138.065" y2="144.893" gradientUnits="userSpaceOnUse">
<stop stop-color="#57BFF3"/>
<stop offset="1" stop-color="#2B6AF1"/>
</linearGradient>
<linearGradient id="paint21_linear_4988_48374" x1="29.7431" y1="19.3939" x2="29.7431" y2="144.893" gradientUnits="userSpaceOnUse">
<stop stop-color="#57BFF3"/>
<stop offset="1" stop-color="#2B6AF1"/>
</linearGradient>
<linearGradient id="paint22_linear_4988_48374" x1="36.6653" y1="12.2327" x2="36.6653" y2="137.732" gradientUnits="userSpaceOnUse">
<stop stop-color="#57BFF3"/>
<stop offset="1" stop-color="#2B6AF1"/>
</linearGradient>
<linearGradient id="paint23_linear_4988_48374" x1="84.6638" y1="5" x2="84.6638" y2="167.98" gradientUnits="userSpaceOnUse">
<stop stop-color="#3A9EFC"/>
<stop offset="1" stop-color="#3A9EFC" stop-opacity="0"/>
</linearGradient>
<clipPath id="clip0_4988_48374">
<rect width="116.232" height="163.037" fill="white" transform="matrix(-1 0 0 1 142.023 22.5865)"/>
</clipPath>
</defs>
</svg>
