<svg width="24" height="24" viewBox="0 0 24 24" fill="none" xmlns="http://www.w3.org/2000/svg">
<path d="M10.9797 22C10.5176 22 10.0652 21.8873 9.64171 21.662C8.79465 21.2019 8.28449 20.3662 8.28449 19.4272V14.4507C8.28449 13.9812 7.96684 13.277 7.66845 12.9202L4.06845 9.20188C3.46203 8.61033 3 7.59624 3 6.83568V4.67606C3 3.17371 4.16471 2 5.64706 2H18.3529C19.816 2 21 3.15493 21 4.58216V6.64789C21 7.6338 20.3936 8.75117 19.8257 9.30516L15.6578 12.9014C15.2535 13.23 14.9358 13.9531 14.9358 14.5352V18.5728C14.9358 19.4085 14.3968 20.3756 13.723 20.77L12.3947 21.6056C11.9615 21.8685 11.4706 22 10.9797 22ZM5.64706 3.40845C4.97326 3.40845 4.44385 3.96244 4.44385 4.67606V6.83568C4.44385 7.1831 4.73262 7.85915 5.0984 8.21596L8.76578 11.9812C9.25668 12.5728 9.73797 13.5587 9.73797 14.4413V19.4178C9.73797 20.0282 10.1711 20.3286 10.354 20.4225C10.7583 20.6385 11.2492 20.6385 11.6246 20.4131L12.9626 19.5775C13.2321 19.4178 13.5016 18.9108 13.5016 18.5728V14.5352C13.5016 13.5305 14.0021 12.4225 14.7241 11.831L18.8439 8.2723C19.1711 7.95305 19.5658 7.19249 19.5658 6.6385V4.58216C19.5658 3.93427 19.0267 3.40845 18.3626 3.40845H5.64706Z" fill="#1B1D29"/>
<path fill-rule="evenodd" clip-rule="evenodd" d="M9.25 7C9.25 6.58579 9.58579 6.25 10 6.25H14C14.4142 6.25 14.75 6.58579 14.75 7C14.75 7.41421 14.4142 7.75 14 7.75H10C9.58579 7.75 9.25 7.41421 9.25 7Z" fill="#1B1D29"/>
</svg>
