<svg width="20" height="21" viewBox="0 0 20 21" fill="none" xmlns="http://www.w3.org/2000/svg">
<path fill-rule="evenodd" clip-rule="evenodd" d="M4.64286 8.82421C4.35805 8.82421 4.09161 8.86586 3.84852 8.95514C4.4271 6.0634 6.96134 3.88594 10 3.88594C13.0387 3.88594 15.5729 6.0634 16.1515 8.95514C15.9084 8.86586 15.642 8.82421 15.3571 8.82421C14.9568 8.82421 14.5928 8.9065 14.2789 9.0877C13.9626 9.27027 13.7355 9.5312 13.5775 9.82639C13.2764 10.3891 13.2143 11.1012 13.2143 11.7563V13.2995C13.2143 13.9546 13.2764 14.6667 13.5775 15.2294C13.7355 15.5246 13.9626 15.7856 14.2789 15.9681C14.5928 16.1493 14.9568 16.2316 15.3571 16.2316C15.4608 16.2316 15.562 16.2261 15.6605 16.2148C14.9893 17.2836 13.8308 18.0105 12.5 18.0783C12.5 18.0749 12.5 18.0715 12.5 18.068C12.5 17.3777 11.9404 16.818 11.25 16.818H10.4167C9.72631 16.818 9.16667 17.3777 9.16667 18.068C9.16667 18.7584 9.72631 19.318 10.4167 19.318H10.8333H11.25H12.2959C15.1701 19.318 17.5 16.9689 17.5 14.0711V10.2131C17.5 6.03687 14.1421 2.65137 10 2.65137C5.85786 2.65137 2.5 6.03687 2.5 10.2131V13.2995C2.5 13.9546 2.56213 14.6667 2.86322 15.2294C3.02118 15.5246 3.24827 15.7856 3.56457 15.9681C3.87849 16.1493 4.24252 16.2316 4.64286 16.2316C5.04319 16.2316 5.40722 16.1493 5.72114 15.9681C6.03744 15.7856 6.26454 15.5246 6.42249 15.2294C6.72358 14.6667 6.78572 13.9546 6.78572 13.2995V11.7563C6.78572 11.1012 6.72358 10.3891 6.42249 9.82639C6.26454 9.5312 6.03744 9.27027 5.72114 9.0877C5.40722 8.9065 5.04319 8.82421 4.64286 8.82421ZM16.0591 10.4126C16.2063 10.6877 16.2755 11.1329 16.2755 11.7563V13.2995C16.2755 13.9229 16.2063 14.3681 16.0591 14.6432C15.9929 14.767 15.9166 14.845 15.8271 14.8967C15.7351 14.9498 15.5908 14.997 15.3571 14.997C15.1235 14.997 14.9792 14.9498 14.8872 14.8967C14.7977 14.845 14.7214 14.767 14.6552 14.6432C14.508 14.3681 14.4388 13.9229 14.4388 13.2995V11.7563C14.4388 11.1329 14.508 10.6877 14.6552 10.4126C14.7214 10.2889 14.7977 10.2108 14.8872 10.1591C14.9792 10.106 15.1235 10.0588 15.3571 10.0588C15.5908 10.0588 15.7351 10.106 15.8271 10.1591C15.9166 10.2108 15.9929 10.2889 16.0591 10.4126ZM3.94088 10.4126C3.79366 10.6877 3.72449 11.1329 3.72449 11.7563V13.2995C3.72449 13.9229 3.79366 14.3681 3.94088 14.6432C4.00708 14.767 4.08338 14.845 4.17295 14.8967C4.2649 14.9498 4.40919 14.997 4.64286 14.997C4.87653 14.997 5.02082 14.9498 5.11276 14.8967C5.20233 14.845 5.27864 14.767 5.34483 14.6432C5.49205 14.3681 5.56122 13.9229 5.56122 13.2995V11.7563C5.56122 11.1329 5.49205 10.6877 5.34483 10.4126C5.27864 10.2889 5.20233 10.2108 5.11276 10.1591C5.02082 10.106 4.87653 10.0588 4.64286 10.0588C4.40919 10.0588 4.2649 10.106 4.17295 10.1591C4.08338 10.2108 4.00708 10.2889 3.94088 10.4126Z" fill="#1B1D29"/>
</svg>
