<svg width="36" height="36" viewBox="0 0 36 36" fill="none" xmlns="http://www.w3.org/2000/svg">
<rect width="36" height="36" rx="18" fill="#E6EFFD"/>
<path d="M24.5398 10.1198L19.0398 8.05984C18.4698 7.84984 17.5398 7.84984 16.9698 8.05984L11.4698 10.1198C10.4098 10.5198 9.5498 11.7598 9.5498 12.8898V20.9898C9.5498 21.7998 10.0798 22.8698 10.7298 23.3498L16.2298 27.4598C17.1998 28.1898 18.7898 28.1898 19.7598 27.4598L25.2598 23.3498C25.9098 22.8598 26.4398 21.7998 26.4398 20.9898V12.8898C26.4498 11.7598 25.5898 10.5198 24.5398 10.1198ZM21.4798 15.7198L17.1798 20.0198C17.0298 20.1698 16.8398 20.2398 16.6498 20.2398C16.4598 20.2398 16.2698 20.1698 16.1198 20.0198L14.5198 18.3998C14.2298 18.1098 14.2298 17.6298 14.5198 17.3398C14.8098 17.0498 15.2898 17.0498 15.5798 17.3398L16.6598 18.4198L20.4298 14.6498C20.7198 14.3598 21.1998 14.3598 21.4898 14.6498C21.7798 14.9398 21.7798 15.4298 21.4798 15.7198Z" fill="#005FEB"/>
</svg>
