<svg width="117" height="95" viewBox="0 0 117 95" fill="none" xmlns="http://www.w3.org/2000/svg">
<circle opacity="0.1" cx="60.8656" cy="43.5229" r="37.7524" stroke="#4263EB" stroke-width="1.54091"/>
<g filter="url(#filter0_d_3794_151917)">
<circle cx="60.8651" cy="43.5228" r="27.2479" fill="url(#paint0_linear_3794_151917)"/>
</g>
<path d="M52.0967 43.5232L58.3606 49.787L70.8883 37.2593" stroke="white" stroke-width="3.08183" stroke-linecap="round" stroke-linejoin="round"/>
<path d="M109.64 67.6883C109.808 66.8667 110.982 66.8667 111.15 67.6883L111.414 68.9797C111.476 69.2821 111.712 69.5184 112.014 69.5802L113.306 69.8442C114.127 70.0121 114.127 71.186 113.306 71.3539L112.014 71.6178C111.712 71.6797 111.476 71.916 111.414 72.2184L111.15 73.5098C110.982 74.3314 109.808 74.3314 109.64 73.5098L109.376 72.2184C109.314 71.916 109.078 71.6797 108.776 71.6178L107.484 71.3539C106.663 71.186 106.663 70.0121 107.484 69.8442L108.776 69.5802C109.078 69.5184 109.314 69.2821 109.376 68.9797L109.64 67.6883Z" fill="#1EBB4D"/>
<path opacity="0.2" d="M110.411 15.2972C110.578 14.4756 111.752 14.4756 111.92 15.2972L111.997 15.6747C112.059 15.9771 112.296 16.2134 112.598 16.2753L112.975 16.3524C113.797 16.5203 113.797 17.6942 112.975 17.8621L112.598 17.9393C112.296 18.0011 112.059 18.2374 111.997 18.5399L111.92 18.9174C111.752 19.7389 110.578 19.7389 110.411 18.9174L110.333 18.5399C110.272 18.2374 110.035 18.0011 109.733 17.9393L109.355 17.8621C108.534 17.6942 108.534 16.5203 109.355 16.3524L109.733 16.2753C110.035 16.2134 110.272 15.9771 110.333 15.6747L110.411 15.2972Z" fill="#4263EB"/>
<path d="M6.17927 16.3977C6.34719 15.5762 7.52105 15.5762 7.68897 16.3977L8.00896 17.9633C8.07077 18.2657 8.3071 18.5021 8.60952 18.5639L10.1751 18.8839C10.9966 19.0518 10.9966 20.2256 10.1751 20.3936L8.60952 20.7135C8.3071 20.7754 8.07077 21.0117 8.00896 21.3141L7.68897 22.8797C7.52105 23.7012 6.34719 23.7012 6.17927 22.8797L5.85928 21.3141C5.79747 21.0117 5.56113 20.7754 5.25871 20.7135L3.69315 20.3936C2.87159 20.2256 2.87159 19.0518 3.69315 18.8839L5.25871 18.5639C5.56113 18.5021 5.79747 18.2657 5.85928 17.9633L6.17927 16.3977Z" fill="#1EBB4D"/>
<defs>
<filter id="filter0_d_3794_151917" x="13.6172" y="0.274902" width="94.4961" height="94.4956" filterUnits="userSpaceOnUse" color-interpolation-filters="sRGB">
<feFlood flood-opacity="0" result="BackgroundImageFix"/>
<feColorMatrix in="SourceAlpha" type="matrix" values="0 0 0 0 0 0 0 0 0 0 0 0 0 0 0 0 0 0 127 0" result="hardAlpha"/>
<feOffset dy="4"/>
<feGaussianBlur stdDeviation="10"/>
<feComposite in2="hardAlpha" operator="out"/>
<feColorMatrix type="matrix" values="0 0 0 0 0.258824 0 0 0 0 0.388235 0 0 0 0 0.921569 0 0 0 0.2 0"/>
<feBlend mode="normal" in2="BackgroundImageFix" result="effect1_dropShadow_3794_151917"/>
<feBlend mode="normal" in="SourceGraphic" in2="effect1_dropShadow_3794_151917" result="shape"/>
</filter>
<linearGradient id="paint0_linear_3794_151917" x1="60.8651" y1="16.2749" x2="60.8651" y2="70.7707" gradientUnits="userSpaceOnUse">
<stop stop-color="#00F936"/>
<stop offset="0.845" stop-color="#06C540"/>
</linearGradient>
</defs>
</svg>
