<svg width="40" height="40" viewBox="0 0 40 40" fill="none" xmlns="http://www.w3.org/2000/svg">
<rect width="40" height="40" rx="10" fill="white"/>
<path d="M12.6 15.75H27.4C27.728 15.75 28 15.41 28 15C28 14.59 27.728 14.25 27.4 14.25H12.6C12.272 14.25 12 14.59 12 15C12 15.41 12.272 15.75 12.6 15.75Z" fill="#3D4657"/>
<path d="M14.525 20.75H27.475C27.762 20.75 28 20.41 28 20C28 19.59 27.762 19.25 27.475 19.25H14.525C14.238 19.25 14 19.59 14 20C14 20.41 14.238 20.75 14.525 20.75Z" fill="#3D4657"/>
<path d="M16.45 25.75H27.55C27.796 25.75 28 25.41 28 25C28 24.59 27.796 24.25 27.55 24.25H16.45C16.204 24.25 16 24.59 16 25C16 25.41 16.204 25.75 16.45 25.75Z" fill="#3D4657"/>
</svg>
