<svg width="20" height="21" viewBox="0 0 20 21" fill="none" xmlns="http://www.w3.org/2000/svg">
<path fill-rule="evenodd" clip-rule="evenodd" d="M15.4167 6.81803V15.1514C15.4167 16.827 15.1769 17.3733 14.9494 17.6008C14.722 17.8283 14.1756 18.068 12.5 18.068H7.5C5.8244 18.068 5.27804 17.8283 5.05055 17.6008C4.82306 17.3733 4.58333 16.827 4.58333 15.1514V6.81803C4.58333 5.14243 4.82306 4.59607 5.05055 4.36858C5.27804 4.14109 5.8244 3.90137 7.5 3.90137H12.5C14.1756 3.90137 14.722 4.14109 14.9494 4.36858C15.1769 4.59607 15.4167 5.14243 15.4167 6.81803ZM16.6667 6.81803V15.1514C16.6667 18.4847 15.8333 19.318 12.5 19.318H7.5C4.16667 19.318 3.33333 18.4847 3.33333 15.1514V6.81803C3.33333 3.4847 4.16667 2.65137 7.5 2.65137H12.5C15.8333 2.65137 16.6667 3.4847 16.6667 6.81803ZM7.5 5.15137C7.15482 5.15137 6.875 5.43119 6.875 5.77637C6.875 6.12154 7.15482 6.40137 7.5 6.40137H12.5C12.8452 6.40137 13.125 6.12154 13.125 5.77637C13.125 5.43119 12.8452 5.15137 12.5 5.15137H7.5Z" fill="#1B1D29"/>
<path fill-rule="evenodd" clip-rule="evenodd" d="M10 14.1094C9.65482 14.1094 9.375 14.3892 9.375 14.7344C9.375 15.0796 9.65482 15.3594 10 15.3594C10.3452 15.3594 10.625 15.0796 10.625 14.7344C10.625 14.3892 10.3452 14.1094 10 14.1094ZM8.125 14.7344C8.125 13.6988 8.96447 12.8594 10 12.8594C11.0355 12.8594 11.875 13.6988 11.875 14.7344C11.875 15.7699 11.0355 16.6094 10 16.6094C8.96447 16.6094 8.125 15.7699 8.125 14.7344Z" fill="#1B1D29"/>
</svg>
