<svg width="48" height="48" viewBox="0 0 48 48" fill="none" xmlns="http://www.w3.org/2000/svg">
<rect width="48" height="48" rx="24" fill="white"/>
<path fill-rule="evenodd" clip-rule="evenodd" d="M28 17.75C28 16.5074 29.0074 15.5 30.25 15.5C31.4926 15.5 32.5 16.5074 32.5 17.75C32.5 18.9926 31.4926 20 30.25 20C29.0074 20 28 18.9926 28 17.75ZM30.25 14C28.1789 14 26.5 15.6789 26.5 17.75C26.5 18.0514 26.5355 18.3444 26.6027 18.6252L20.6737 20.6015C19.9864 19.7469 18.9321 19.2 17.75 19.2C15.6789 19.2 14 20.8789 14 22.95C14 25.0211 15.6789 26.7 17.75 26.7C18.9017 26.7 19.9321 26.1809 20.62 25.3638L26.8424 28.6824C26.6226 29.1594 26.5 29.6904 26.5 30.25C26.5 32.3211 28.1789 34 30.25 34C32.3211 34 34 32.3211 34 30.25C34 28.1789 32.3211 26.5 30.25 26.5C29.2856 26.5 28.4063 26.864 27.7419 27.4622L21.3372 24.0463C21.4431 23.6995 21.5 23.3314 21.5 22.95C21.5 22.6044 21.4533 22.2698 21.3657 21.952L27.2441 19.9925C27.9279 20.9076 29.0198 21.5 30.25 21.5C32.3211 21.5 34 19.8211 34 17.75C34 15.6789 32.3211 14 30.25 14ZM17.75 20.7C16.5074 20.7 15.5 21.7074 15.5 22.95C15.5 24.1927 16.5074 25.2 17.75 25.2C18.9926 25.2 20 24.1927 20 22.95C20 21.7074 18.9926 20.7 17.75 20.7ZM28 30.25C28 29.0074 29.0074 28 30.25 28C31.4926 28 32.5 29.0074 32.5 30.25C32.5 31.4926 31.4926 32.5 30.25 32.5C29.0074 32.5 28 31.4926 28 30.25Z" fill="#005FEB"/>
</svg>
