<svg width="107" height="108" viewBox="0 0 107 108" fill="none" xmlns="http://www.w3.org/2000/svg">
<g clip-path="url(#clip0_1828_20504)">
<path d="M104.557 117.144L104.53 117.166C104.435 117.261 104.34 117.356 104.241 117.446L104.15 117.532C102.245 119.335 100.242 121.032 98.1497 122.616L97.8833 122.819C94.1765 125.6 90.2121 128.019 86.0443 130.044L85.5928 130.251C84.2352 130.902 82.8535 131.504 81.4478 132.057C78.0971 133.412 74.648 134.51 71.1304 135.34C70.1822 135.566 69.225 135.77 68.2588 135.954C65.4334 136.502 62.5776 136.881 59.7069 137.087L58.8625 137.146C58.2394 137.187 57.6164 137.214 56.9887 137.236H51.6878C50.2881 137.187 48.9064 137.092 47.5292 136.965L46.73 136.884C38.5546 136.03 30.5859 133.782 23.1695 130.238L22.7405 130.03C18.5733 128.004 14.609 125.585 10.9016 122.806L10.6351 122.602C8.49531 120.982 6.44826 119.242 4.5035 117.392C4.44303 117.341 4.38567 117.287 4.33186 117.229L4.29118 117.189L4.24158 117.144L3.9661 116.877L3.93457 116.845L4.22802 116.448C6.27297 113.728 8.6058 111.236 11.186 109.016C11.4388 108.795 11.6918 108.565 11.9446 108.37C16.0853 104.995 20.9251 102.582 26.1134 101.309C26.5649 101.191 27.0165 101.065 27.468 100.929C29.2006 100.394 30.8668 99.6639 32.4348 98.753L32.6696 98.6175C32.796 98.5452 32.9179 98.4685 33.0353 98.3917C33.2295 98.2698 33.4191 98.1479 33.6042 98.0214C33.7894 97.895 34.0061 97.7551 34.1913 97.6151C34.5299 97.3758 34.8414 97.1365 35.1258 96.9062C36.0491 96.1864 36.8815 95.357 37.6047 94.4363V74.9756H38.0562L67.9201 75.1789H68.3129V94.4273C69.2606 95.542 70.3576 96.5205 71.5729 97.3351L71.6452 97.3893C72.0471 97.6693 72.4895 97.9582 72.9727 98.2472C73.0449 98.2923 73.1126 98.3375 73.1849 98.3736C74.6567 99.2312 76.2101 99.9406 77.822 100.491C78.9756 100.892 80.1535 101.219 81.3485 101.471C86.0705 102.485 90.525 104.485 94.4201 107.341C95.1245 107.856 95.8469 108.407 96.5784 108.998C99.3245 111.197 101.823 113.689 104.029 116.43C104.205 116.687 104.385 116.913 104.557 117.144Z" fill="#FFC181"/>
<path d="M72.9576 53.2662C72.9576 53.2662 81.374 49.2747 78.9132 57.7499C76.4524 66.225 71.585 64.744 71.585 64.744" fill="#FFC384"/>
<path d="M32.9532 52.5084C32.9532 52.5084 24.5368 48.517 26.9977 56.9921C29.4585 65.4672 34.3259 63.9862 34.3259 63.9862" fill="#FFC384"/>
<path d="M53.041 82.6829C65.4572 82.6829 75.5224 69.2457 75.5224 52.6701C75.5224 36.0944 65.4572 22.6572 53.041 22.6572C40.6249 22.6572 30.5596 36.0944 30.5596 52.6701C30.5596 69.2457 40.6249 82.6829 53.041 82.6829Z" fill="#FAE8D4"/>
<path d="M51.6191 52.5615V62.2603C51.6191 62.2603 52.8879 65.9132 56.8072 62.8744" stroke="black" stroke-width="0.90305" stroke-linecap="round" stroke-linejoin="round"/>
<path d="M47.6279 67.5938C47.6279 67.5938 53.1906 74.1273 59.7242 67.5938" stroke="black" stroke-width="0.90305" stroke-linecap="round" stroke-linejoin="round"/>
<path d="M30.532 51.5683C30.532 51.5683 26.4683 53.5504 28.017 35.6023C29.5658 17.6542 43.2289 13.6266 43.2289 13.6266L41.924 15.7081C41.924 15.7081 61.7098 8.07743 71.8601 19.8667L66.8301 18.8282C66.8301 18.8282 84.8911 31.6696 77.0075 52.6655L75.0975 53.0899C75.0975 53.0899 72.3884 34.4329 59.7231 33.5659L49.338 38.596L52.9502 34.4329C52.9502 34.4329 35.8465 27.0911 30.532 51.5683Z" fill="#101010"/>
<path d="M64.8977 32.302L58.8789 38.673V29.5703L64.8977 32.302Z" fill="#532A2B"/>
<path d="M68.5913 84.4906C55.4067 97.4945 42.2523 89.4574 37.4361 84.0391C36.533 86.7482 28.2178 89.4939 19.8266 93.2953C10.2542 97.6319 -7.58105 117.273 -7.58105 126.304C-1.1092 133.603 29.8053 128.469 55.2713 127.385C87.1038 126.031 112.75 130.546 116.137 127.385C116.137 112.758 90.9417 93.7468 84.1689 92.1665C77.396 90.5862 72.2035 88.1028 68.5913 84.4906Z" fill="#7A96F6"/>
<path d="M75.3232 29.7139L25.7526 32.1036L25.5947 28.8291C25.2863 22.4313 27.5321 16.1731 31.8379 11.4311C36.1437 6.6891 42.1569 3.85179 48.5547 3.54337L49.8559 3.48064C56.2536 3.17221 62.5119 5.41794 67.2539 9.72375C71.9958 14.0296 74.8332 20.0427 75.1416 26.4405L75.2995 29.715L75.3232 29.7139Z" fill="#728BF4"/>
<path d="M25.684 30.7433C25.684 30.7433 19.0443 37.7884 25.6846 39.9042C52.7173 48.5182 75.2359 28.3525 75.2359 28.3525L25.684 30.7433Z" fill="url(#paint0_linear_1828_20504)"/>
<path d="M41.7014 58.5007C46.4041 58.5007 50.2164 54.6884 50.2164 49.9857C50.2164 45.283 46.4041 41.4707 41.7014 41.4707C36.9987 41.4707 33.1865 45.283 33.1865 49.9857C33.1865 54.6884 36.9987 58.5007 41.7014 58.5007Z" stroke="black" stroke-width="0.895844" stroke-miterlimit="10"/>
<path d="M62.2445 58.5007C66.9472 58.5007 70.7595 54.6884 70.7595 49.9857C70.7595 45.283 66.9472 41.4707 62.2445 41.4707C57.5418 41.4707 53.7295 45.283 53.7295 49.9857C53.7295 54.6884 57.5418 58.5007 62.2445 58.5007Z" stroke="black" stroke-width="0.895844" stroke-miterlimit="10"/>
<path d="M50.2178 50.9072H53.6041" stroke="black" stroke-width="0.895844" stroke-miterlimit="10"/>
<path d="M33.1925 50.416L30.0078 54.3353" stroke="black" stroke-width="0.895844" stroke-miterlimit="10"/>
<path d="M70.7285 50.8671L74.6478 54.0518" stroke="black" stroke-width="0.895844" stroke-miterlimit="10"/>
<path d="M67.5957 66.5284C70.2367 65.655 71.911 62.498 72.5505 60.6634C73.2374 58.6951 74.1757 53.5171 75.4266 54.0353" stroke="#E3DFF8" stroke-width="0.54008" stroke-linecap="round" stroke-linejoin="round"/>
<path d="M37.8389 61.8307C35.3149 61.0787 33.7147 58.3608 33.1036 56.7814C32.4471 55.0869 31.2035 52.0314 30.008 52.4776" stroke="#EDEAFC" stroke-width="0.54008" stroke-linecap="round" stroke-linejoin="round"/>
<path d="M67.5957 72.7947C71.1102 71.5863 73.0251 68.5723 73.8604 64.9639" stroke="#E3DFF8" stroke-width="0.54008" stroke-linecap="round" stroke-linejoin="round"/>
<path d="M37.8389 71.2283C33.7837 70.1447 32.538 66.6332 31.5742 63.3975" stroke="#EDEAFC" stroke-width="0.54008" stroke-linecap="round" stroke-linejoin="round"/>
<path d="M51.1555 52.4343C52.4721 52.4542 53.7591 52.9265 54.904 53.5581C56.0489 54.1898 57.0266 55.03 58.0528 55.815C60.6518 57.8081 63.5304 59.3995 66.245 61.1811C67.3087 63.6843 67.7544 66.3989 67.5457 69.1034C67.3369 71.8078 66.4797 74.4256 65.0439 76.7428C60.9028 79.9159 56.1902 82.2954 51.1523 83.7571C46.1145 82.2952 41.402 79.9157 37.2608 76.7428C35.8235 74.4247 34.9652 71.8057 34.7562 69.0998C34.5472 66.3938 34.9933 63.6778 36.0581 61.1734C38.7727 59.3965 41.6529 57.8004 44.2503 55.8073C45.278 55.0223 46.2652 54.1745 47.4007 53.5505C48.6377 52.8789 49.7388 52.4128 51.1555 52.4343Z" fill="white"/>
<g style="mix-blend-mode:multiply" opacity="0.16">
<path d="M58.4552 55.8192C57.4725 55.0334 56.5272 54.1847 55.4397 53.5601C54.3523 52.9354 53.1631 52.4781 51.9336 52.4336V83.7571C56.7258 82.2921 61.2085 79.92 65.1504 76.7634C66.5261 74.4433 67.3475 71.8221 67.5474 69.114C67.7473 66.406 67.3201 63.6878 66.3006 61.1815C63.701 59.4073 60.9442 57.8051 58.4552 55.8192Z" fill="#B9B7E4"/>
</g>
</g>
<defs>
<linearGradient id="paint0_linear_1828_20504" x1="48.9846" y1="28.3525" x2="48.9846" y2="42.0448" gradientUnits="userSpaceOnUse">
<stop stop-color="#0D2DB3"/>
<stop offset="1" stop-color="#728BF4"/>
</linearGradient>
<clipPath id="clip0_1828_20504">
<rect width="106.5" height="106.5" fill="white" transform="translate(0.25 0.75)"/>
</clipPath>
</defs>
</svg>
