<svg width="41" height="40" viewBox="0 0 41 40" fill="none" xmlns="http://www.w3.org/2000/svg">
<path fill-rule="evenodd" clip-rule="evenodd" d="M37.1663 19.9997C37.1663 29.1663 29.6663 36.6663 20.4997 36.6663C11.333 36.6663 3.83301 29.1663 3.83301 19.9997C3.83301 10.833 11.333 3.33301 20.4997 3.33301C29.6663 3.33301 37.1663 10.833 37.1663 19.9997ZM26.1001 14.399C26.5883 14.8871 26.5883 15.6786 26.1001 16.1668L22.2673 19.9995L26.1001 23.8323C26.5883 24.3205 26.5883 25.1119 26.1001 25.6001C25.6119 26.0883 24.8205 26.0883 24.3323 25.6001L20.4995 21.7673L16.6668 25.6001C16.1786 26.0883 15.3871 26.0883 14.899 25.6001C14.4108 25.1119 14.4108 24.3205 14.899 23.8323L18.7318 19.9995L14.899 16.1668C14.4108 15.6786 14.4108 14.8871 14.899 14.399C15.3871 13.9108 16.1786 13.9108 16.6668 14.399L20.4995 18.2318L24.3323 14.399C24.8205 13.9108 25.6119 13.9108 26.1001 14.399Z" fill="#E43434"/>
</svg>
