<svg width="48" height="48" viewBox="0 0 48 48" fill="none" xmlns="http://www.w3.org/2000/svg">
<rect width="48" height="48" rx="24" fill="white"/>
<path fill-rule="evenodd" clip-rule="evenodd" d="M24.75 15.75C24.75 15.3358 24.4142 15 24 15C23.5858 15 23.25 15.3358 23.25 15.75V25.9596L20.0225 22.7321C19.7296 22.4392 19.2548 22.4392 18.9619 22.7321C18.669 23.025 18.669 23.4999 18.9619 23.7928L23.4694 28.3003C23.5513 28.3823 23.6475 28.4413 23.75 28.4774C23.8282 28.505 23.9123 28.52 24 28.52C24.2143 28.52 24.4076 28.4302 24.5442 28.2861L29.0375 23.7928C29.3304 23.4999 29.3304 23.025 29.0375 22.7321C28.7447 22.4392 28.2698 22.4392 27.9769 22.7321L24.75 25.959V15.75Z" fill="#005FEB"/>
<path fill-rule="evenodd" clip-rule="evenodd" d="M20.9038 31.5H27.0654C29.4808 31.5 30.7709 31.0204 31.496 30.3143C31.8858 29.9347 32.2084 29.3961 32.4234 28.6137C32.5197 28.263 32.8253 28 33.1891 28H33.2489C33.7073 28 34.0623 28.4102 33.95 28.8547C33.2111 31.7775 31.0798 33 27.0654 33H20.9038C16.8894 33 14.7582 31.7775 14.0193 28.8547C13.9069 28.4102 14.2619 28 14.7204 28H14.7801C15.1439 28 15.4495 28.263 15.5459 28.6137C15.7608 29.3961 16.0834 29.9347 16.4733 30.3143C17.1983 31.0204 18.4884 31.5 20.9038 31.5Z" fill="#005FEB"/>
</svg>
