<svg width="77" height="76" viewBox="0 0 77 76" fill="none" xmlns="http://www.w3.org/2000/svg">
<g filter="url(#filter0_d_3108_16184)">
<path d="M10.5 36C10.5 20.536 23.036 8 38.5 8C53.964 8 66.5 20.536 66.5 36C66.5 51.464 53.964 64 38.5 64C23.036 64 10.5 51.464 10.5 36Z" fill="white"/>
<path d="M47.1665 22C47.7188 22 48.1665 22.4477 48.1665 23V25.6667H50.8332C51.3855 25.6667 51.8332 26.1144 51.8332 26.6667C51.8332 27.219 51.3855 27.6667 50.8332 27.6667H48.1665V30.3333C48.1665 30.8856 47.7188 31.3333 47.1665 31.3333C46.6142 31.3333 46.1665 30.8856 46.1665 30.3333V27.6667H43.4998C42.9476 27.6667 42.4998 27.219 42.4998 26.6667C42.4998 26.1144 42.9476 25.6667 43.4998 25.6667H46.1665V23C46.1665 22.4477 46.6142 22 47.1665 22Z" fill="#0D182D"/>
<path d="M40.3311 23.1093C40.8816 23.5986 40.9112 24.5065 40.1861 24.6356C40.0715 24.656 39.9536 24.6667 39.8332 24.6667H34.4998C31.3638 24.6667 29.6888 25.3061 28.7474 26.2475C27.806 27.189 27.1665 28.8639 27.1665 32V40C27.1665 43.1361 27.806 44.811 28.7474 45.7525C29.6888 46.6939 31.3638 47.3333 34.4998 47.3333H42.4998C45.6359 47.3333 47.3109 46.6939 48.2523 45.7525C49.1937 44.811 49.8332 43.1361 49.8332 40V38.1337L49.0083 37.4252C48.3431 36.8538 47.2167 36.8538 46.5515 37.4252L41.0048 42.1852C39.59 43.4002 37.3563 43.4004 35.9416 42.1852L35.9331 42.1779L35.4978 41.7953C34.8999 41.285 33.8781 41.2223 33.1903 41.6838L28.1888 45.0418C27.883 44.5475 27.6322 43.9223 27.4556 43.1251L32.0758 40.0231C33.4933 39.0722 35.5089 39.1681 36.8049 40.2815L36.8134 40.2888L37.2486 40.6713C37.9143 41.2395 39.0376 41.2385 39.7016 40.6681L45.2483 35.9081C46.5123 34.8227 48.4299 34.7068 49.8332 35.561V33.3333C49.8332 33.2928 49.8344 33.2526 49.8367 33.2128C49.8804 32.4779 50.7843 32.401 51.3345 32.8901L51.3857 32.9355C51.6703 33.1886 51.8332 33.5512 51.8332 33.9321V40C51.8332 46.6667 49.1665 49.3333 42.4998 49.3333H34.4998C27.8332 49.3333 25.1665 46.6667 25.1665 40V32C25.1665 25.3333 27.8332 22.6667 34.4998 22.6667H39.3262C39.6528 22.6667 39.968 22.7865 40.2121 23.0035L40.3311 23.1093Z" fill="#0D182D"/>
<path fill-rule="evenodd" clip-rule="evenodd" d="M30.8332 30.6667C30.8332 28.6416 32.4748 27 34.4998 27C36.5249 27 38.1665 28.6416 38.1665 30.6667C38.1665 32.6917 36.5249 34.3333 34.4998 34.3333C32.4748 34.3333 30.8332 32.6917 30.8332 30.6667ZM34.4998 29C33.5794 29 32.8332 29.7462 32.8332 30.6667C32.8332 31.5871 33.5794 32.3333 34.4998 32.3333C35.4203 32.3333 36.1665 31.5871 36.1665 30.6667C36.1665 29.7462 35.4203 29 34.4998 29Z" fill="#0D182D"/>
</g>
<defs>
<filter id="filter0_d_3108_16184" x="0.5" y="0" width="76" height="76" filterUnits="userSpaceOnUse" color-interpolation-filters="sRGB">
<feFlood flood-opacity="0" result="BackgroundImageFix"/>
<feColorMatrix in="SourceAlpha" type="matrix" values="0 0 0 0 0 0 0 0 0 0 0 0 0 0 0 0 0 0 127 0" result="hardAlpha"/>
<feOffset dy="2"/>
<feGaussianBlur stdDeviation="5"/>
<feColorMatrix type="matrix" values="0 0 0 0 0 0 0 0 0 0 0 0 0 0 0 0 0 0 0.1 0"/>
<feBlend mode="normal" in2="BackgroundImageFix" result="effect1_dropShadow_3108_16184"/>
<feBlend mode="normal" in="SourceGraphic" in2="effect1_dropShadow_3108_16184" result="shape"/>
</filter>
</defs>
</svg>
