<svg width="44" height="44" viewBox="0 0 44 44" fill="none" xmlns="http://www.w3.org/2000/svg">
<rect width="44" height="44" rx="12" fill="#E6EFFD"/>
<path fill-rule="evenodd" clip-rule="evenodd" d="M15 21.75C15 21.3358 15.3358 21 15.75 21L28.25 21C28.6642 21 29 21.3358 29 21.75C29 22.1642 28.6642 22.5 28.25 22.5L15.75 22.5C15.3358 22.5 15 22.1642 15 21.75Z" fill="#1B1D29"/>
<path fill-rule="evenodd" clip-rule="evenodd" d="M22 15C22.4142 15 22.75 15.3358 22.75 15.75V28.25C22.75 28.6642 22.4142 29 22 29C21.5858 29 21.25 28.6642 21.25 28.25V15.75C21.25 15.3358 21.5858 15 22 15Z" fill="#1B1D29"/>
</svg>
