<svg width="16" height="16" viewBox="0 0 16 16" fill="none" xmlns="http://www.w3.org/2000/svg">
<path fill-rule="evenodd" clip-rule="evenodd" d="M1.83339 5.06065C1.55725 5.06065 1.33339 4.83679 1.33339 4.56065V2.92428C1.33339 2.04541 2.04543 1.33337 2.9243 1.33337L4.56067 1.33337C4.83681 1.33337 5.06067 1.55723 5.06067 1.83337C5.06067 2.10952 4.83681 2.33337 4.56067 2.33337L2.9243 2.33337C2.59772 2.33337 2.33339 2.5977 2.33339 2.92428V4.56065C2.33339 4.83679 2.10954 5.06065 1.83339 5.06065ZM11.4402 1.33343C11.164 1.33343 10.9402 1.55729 10.9402 1.83343C10.9402 2.10958 11.164 2.33343 11.4402 2.33343H13.0765C13.4031 2.33343 13.6674 2.59776 13.6674 2.92434V4.56071C13.6674 4.83685 13.8913 5.06071 14.1674 5.06071C14.4436 5.06071 14.6674 4.83685 14.6674 4.56071V2.92434C14.6674 2.04547 13.9554 1.33343 13.0765 1.33343H11.4402ZM4.56061 14.6668C4.83675 14.6668 5.06061 14.4429 5.06061 14.1668C5.06061 13.8906 4.83675 13.6668 4.56061 13.6668H2.92425C2.59766 13.6668 2.33334 13.4024 2.33334 13.0759L2.33334 11.4395C2.33334 11.1634 2.10948 10.9395 1.83334 10.9395C1.55719 10.9395 1.33334 11.1634 1.33334 11.4395L1.33334 13.0759C1.33334 13.9547 2.04537 14.6668 2.92425 14.6668H4.56061ZM14.6674 11.4401C14.6674 11.164 14.4436 10.9401 14.1674 10.9401C13.8913 10.9401 13.6674 11.164 13.6674 11.4401V13.0765C13.6674 13.4031 13.4031 13.6674 13.0765 13.6674H11.4402C11.164 13.6674 10.9402 13.8913 10.9402 14.1674C10.9402 14.4435 11.164 14.6674 11.4402 14.6674H13.0765C13.9554 14.6674 14.6674 13.9554 14.6674 13.0765V11.4401ZM4.33339 6.33343V4.33343H6.3334V6.33343H4.33339ZM3.33339 3.66677C3.33339 3.48267 3.48263 3.33343 3.66673 3.33343H7.00006C7.18416 3.33343 7.3334 3.48267 7.3334 3.66677V7.0001C7.3334 7.18419 7.18416 7.33343 7.00006 7.33343H3.66673C3.48263 7.33343 3.33339 7.18419 3.33339 7.0001V3.66677ZM9.66673 4.33343V6.33343H11.6667V4.33343H9.66673ZM9.00006 3.33343C8.81597 3.33343 8.66673 3.48267 8.66673 3.66677V7.0001C8.66673 7.18419 8.81597 7.33343 9.00006 7.33343H12.3334C12.5175 7.33343 12.6667 7.18419 12.6667 7.0001V3.66677C12.6667 3.48267 12.5175 3.33343 12.3334 3.33343H9.00006ZM4.33339 11.6668V9.66677H6.3334V11.6668H4.33339ZM3.33339 9.0001C3.33339 8.816 3.48263 8.66677 3.66673 8.66677H7.00006C7.18416 8.66677 7.3334 8.816 7.3334 9.0001V12.3334C7.3334 12.5175 7.18416 12.6668 7.00006 12.6668H3.66673C3.48263 12.6668 3.33339 12.5175 3.33339 12.3334V9.0001ZM4.8334 5.0001C4.8334 4.90805 4.90801 4.83343 5.00006 4.83343H5.66673C5.75878 4.83343 5.8334 4.90805 5.8334 5.0001V5.66677C5.8334 5.75881 5.75878 5.83343 5.66673 5.83343H5.00006C4.90801 5.83343 4.8334 5.75881 4.8334 5.66677V5.0001ZM5.00006 10.1668C4.90801 10.1668 4.8334 10.2414 4.8334 10.3334V11.0001C4.8334 11.0921 4.90801 11.1668 5.00006 11.1668H5.66673C5.75878 11.1668 5.8334 11.0921 5.8334 11.0001V10.3334C5.8334 10.2414 5.75878 10.1668 5.66673 10.1668H5.00006ZM8.66673 9.0001C8.66673 8.816 8.81597 8.66677 9.00006 8.66677H10.0001V10.0001H8.66673V9.0001ZM12.3334 8.66677H11.3334V10.0001H12.6667V9.0001C12.6667 8.816 12.5175 8.66677 12.3334 8.66677ZM11.3334 11.3334H12.6667V12.3334C12.6667 12.5175 12.5175 12.6668 12.3334 12.6668H11.3334V11.3334ZM10.0001 11.3334H8.66673V12.3334C8.66673 12.5175 8.81597 12.6668 9.00006 12.6668H10.0001V11.3334ZM10.0001 10.1668C10.0001 10.0747 10.0747 10.0001 10.1667 10.0001H11.1667C11.2588 10.0001 11.3334 10.0747 11.3334 10.1668V11.1668C11.3334 11.2588 11.2588 11.3334 11.1667 11.3334H10.1667C10.0747 11.3334 10.0001 11.2588 10.0001 11.1668V10.1668ZM10.3334 4.83343C10.2413 4.83343 10.1667 4.90805 10.1667 5.0001V5.66677C10.1667 5.75881 10.2413 5.83343 10.3334 5.83343H11.0001C11.0921 5.83343 11.1667 5.75881 11.1667 5.66677V5.0001C11.1667 4.90805 11.0921 4.83343 11.0001 4.83343H10.3334Z" fill="#005FEB"/>
</svg>
