<svg width="20" height="21" viewBox="0 0 20 21" fill="none" xmlns="http://www.w3.org/2000/svg">
<path fill-rule="evenodd" clip-rule="evenodd" d="M9.82461 3.94238C9.51462 3.94238 9.23918 3.99658 9.06336 4.07531L9.0616 4.0761L4.14355 6.26004C3.49801 6.54484 3.45378 6.80251 3.45378 6.82988C3.45378 6.85725 3.49801 7.11493 4.14355 7.39973L4.14494 7.40034L9.06336 9.58445C9.23918 9.66318 9.51462 9.71738 9.82461 9.71738C10.1346 9.71738 10.41 9.66318 10.5859 9.58446L10.5876 9.58367L15.5043 7.40034L15.5057 7.39973C16.1512 7.11493 16.1954 6.85725 16.1954 6.82988C16.1954 6.80251 16.1512 6.54484 15.5057 6.26004L10.5876 4.07609L10.5859 4.07531C10.41 3.99658 10.1346 3.94238 9.82461 3.94238ZM11.0958 2.93404C10.7134 2.76307 10.2518 2.69238 9.82461 2.69238C9.39745 2.69238 8.93579 2.76307 8.55346 2.93404C8.55315 2.93418 8.55284 2.93432 8.55253 2.93445L3.639 5.11639C3.63878 5.11649 3.63922 5.1163 3.639 5.11639C2.86816 5.45663 2.20378 6.02832 2.20378 6.82988C2.20378 7.63142 2.86746 8.20281 3.63826 8.54305C3.63801 8.54294 3.63851 8.54315 3.63826 8.54305L8.55253 10.7253C8.55288 10.7255 8.55324 10.7256 8.55359 10.7258C8.93589 10.8967 9.3975 10.9674 9.82461 10.9674C10.2517 10.9674 10.7134 10.8967 11.0957 10.7258C11.096 10.7256 11.0964 10.7255 11.0967 10.7253L16.0102 8.54337C16.01 8.54347 16.0104 8.54328 16.0102 8.54337C16.7811 8.20314 17.4454 7.63145 17.4454 6.82988C17.4454 6.02829 16.7817 5.45688 16.0108 5.11665C16.0106 5.11656 16.011 5.11673 16.0108 5.11665L11.0967 2.93445C11.0964 2.93432 11.0961 2.93418 11.0958 2.93404Z" fill="#1B1D29"/>
<path fill-rule="evenodd" clip-rule="evenodd" d="M2.5 9.52637C2.84518 9.52637 3.125 9.80619 3.125 10.1514C3.125 10.3542 3.20524 10.6146 3.36658 10.8626C3.52792 11.1106 3.73339 11.2893 3.91912 11.3713L3.92066 11.372L9.57782 13.8881C9.57761 13.888 9.57802 13.8882 9.57782 13.8881C9.85156 14.009 10.1582 14.0072 10.4181 13.89L10.421 13.8886L16.0793 11.372L16.0809 11.3713C16.2666 11.2893 16.4721 11.1106 16.6334 10.8626C16.7948 10.6146 16.875 10.3542 16.875 10.1514C16.875 9.80619 17.1548 9.52637 17.5 9.52637C17.8452 9.52637 18.125 9.80619 18.125 10.1514C18.125 10.6485 17.9427 11.1423 17.6812 11.5443C17.4197 11.9461 17.0421 12.3131 16.5865 12.5145C16.5863 12.5146 16.5867 12.5144 16.5865 12.5145L10.9319 15.0294C10.9314 15.0297 10.9308 15.0299 10.9303 15.0302C10.3407 15.2955 9.66439 15.2932 9.07218 15.0313L3.41421 12.5148C3.41392 12.5147 3.41364 12.5145 3.41335 12.5144C2.95781 12.313 2.58025 11.9461 2.31883 11.5443C2.05726 11.1423 1.875 10.6485 1.875 10.1514C1.875 9.80619 2.15482 9.52637 2.5 9.52637Z" fill="#1B1D29"/>
<path fill-rule="evenodd" clip-rule="evenodd" d="M2.5 13.6094C2.84518 13.6094 3.125 13.8892 3.125 14.2344C3.125 14.76 3.43579 15.238 3.92128 15.4553C3.92112 15.4552 3.92144 15.4553 3.92128 15.4553L9.57782 17.9711C9.57761 17.971 9.57802 17.9712 9.57782 17.9711C9.85156 18.092 10.1582 18.0902 10.4181 17.973L10.421 17.9716L16.0783 15.4555C16.0781 15.4555 16.0784 15.4554 16.0783 15.4555C16.5637 15.2382 16.875 14.76 16.875 14.2344C16.875 13.8892 17.1548 13.6094 17.5 13.6094C17.8452 13.6094 18.125 13.8892 18.125 14.2344C18.125 15.2586 17.5193 16.1804 16.5884 16.5966L16.5873 16.5971L10.9319 19.1125C10.9314 19.1127 10.9308 19.1129 10.9303 19.1132C10.3407 19.3785 9.66439 19.3762 9.07218 19.1143L3.41159 16.5966C2.48068 16.1804 1.875 15.2586 1.875 14.2344C1.875 13.8892 2.15482 13.6094 2.5 13.6094Z" fill="#1B1D29"/>
</svg>
