<svg width="117" height="95" viewBox="0 0 117 95" fill="none" xmlns="http://www.w3.org/2000/svg">
<circle opacity="0.1" cx="60.8656" cy="43.5229" r="37.7524" stroke="#4263EB" stroke-width="1.54091"/>
<g filter="url(#filter0_d_4881_64715)">
<circle cx="60.8651" cy="43.5233" r="27.2479" fill="url(#paint0_linear_4881_64715)"/>
</g>
<path d="M52.0967 43.5236L58.3606 49.7875L70.8883 37.2598" stroke="white" stroke-width="3.08183" stroke-linecap="round" stroke-linejoin="round"/>
<path d="M109.64 67.6892C109.808 66.8677 110.982 66.8677 111.15 67.6892L111.414 68.9806C111.476 69.2831 111.712 69.5194 112.014 69.5812L113.306 69.8452C114.127 70.0131 114.127 71.1869 113.306 71.3549L112.014 71.6188C111.712 71.6806 111.476 71.917 111.414 72.2194L111.15 73.5108C110.982 74.3323 109.808 74.3323 109.64 73.5108L109.376 72.2194C109.314 71.917 109.078 71.6806 108.776 71.6188L107.484 71.3549C106.663 71.1869 106.663 70.0131 107.484 69.8452L108.776 69.5812C109.078 69.5194 109.314 69.2831 109.376 68.9806L109.64 67.6892Z" fill="#1EBB4D"/>
<path opacity="0.2" d="M110.411 15.2986C110.578 14.4771 111.752 14.4771 111.92 15.2986L111.997 15.6762C112.059 15.9786 112.296 16.2149 112.598 16.2767L112.975 16.3539C113.797 16.5218 113.797 17.6957 112.975 17.8636L112.598 17.9408C112.296 18.0026 112.059 18.2389 111.997 18.5413L111.92 18.9189C111.752 19.7404 110.578 19.7404 110.411 18.9188L110.333 18.5413C110.272 18.2389 110.035 18.0026 109.733 17.9408L109.355 17.8636C108.534 17.6957 108.534 16.5218 109.355 16.3539L109.733 16.2767C110.035 16.2149 110.272 15.9786 110.333 15.6762L110.411 15.2986Z" fill="#4263EB"/>
<path d="M6.17927 16.3982C6.34719 15.5767 7.52105 15.5767 7.68897 16.3982L8.00896 17.9638C8.07077 18.2662 8.3071 18.5025 8.60952 18.5644L10.1751 18.8843C10.9966 19.0523 10.9966 20.2261 10.1751 20.394L8.60952 20.714C8.3071 20.7758 8.07077 21.0122 8.00896 21.3146L7.68897 22.8802C7.52105 23.7017 6.34719 23.7017 6.17927 22.8802L5.85928 21.3146C5.79747 21.0122 5.56113 20.7758 5.25871 20.714L3.69315 20.394C2.87159 20.2261 2.87159 19.0523 3.69315 18.8843L5.25871 18.5644C5.56113 18.5025 5.79747 18.2662 5.85928 17.9638L6.17927 16.3982Z" fill="#1EBB4D"/>
<defs>
<filter id="filter0_d_4881_64715" x="13.6172" y="0.275391" width="94.4961" height="94.4961" filterUnits="userSpaceOnUse" color-interpolation-filters="sRGB">
<feFlood flood-opacity="0" result="BackgroundImageFix"/>
<feColorMatrix in="SourceAlpha" type="matrix" values="0 0 0 0 0 0 0 0 0 0 0 0 0 0 0 0 0 0 127 0" result="hardAlpha"/>
<feOffset dy="4"/>
<feGaussianBlur stdDeviation="10"/>
<feComposite in2="hardAlpha" operator="out"/>
<feColorMatrix type="matrix" values="0 0 0 0 0.258824 0 0 0 0 0.388235 0 0 0 0 0.921569 0 0 0 0.2 0"/>
<feBlend mode="normal" in2="BackgroundImageFix" result="effect1_dropShadow_4881_64715"/>
<feBlend mode="normal" in="SourceGraphic" in2="effect1_dropShadow_4881_64715" result="shape"/>
</filter>
<linearGradient id="paint0_linear_4881_64715" x1="60.8651" y1="16.2754" x2="60.8651" y2="70.7712" gradientUnits="userSpaceOnUse">
<stop stop-color="#00F936"/>
<stop offset="0.845" stop-color="#06C540"/>
</linearGradient>
</defs>
</svg>
