<svg width="124" height="122" viewBox="0 0 124 122" fill="none" xmlns="http://www.w3.org/2000/svg">
<g opacity="0.6">
<path fill-rule="evenodd" clip-rule="evenodd" d="M90.6279 74.369C91.5468 73.6903 97.9293 71.2407 99.7895 70.4187L99.8365 70.3805C100.759 69.8795 101.125 69.8912 101.254 69.4167C95.3103 68.2667 93.4262 63.5201 92.7089 58.2165C91.8154 57.1335 91.1435 55.6406 90.9323 54.5599C90.6693 53.2222 91.1762 52.9643 92.1478 52.8318C91.7437 44.8455 94.0965 40.7332 94.0965 40.7332C94.0965 40.7332 96.4452 36.4643 100.653 36.25C100.908 36.2562 101.168 36.2586 101.433 36.257C101.592 36.2696 101.752 36.2696 101.911 36.257C108.549 36.3053 112.214 38.3607 112.671 38.6287L112.719 38.6583C112.719 38.6583 113.129 38.9271 113.705 39.39C114.778 40.3662 115.136 41.3947 115.136 41.3947C115.988 41.1804 117.054 43.4431 117.112 43.5693C117.316 44.0922 117.404 44.6509 117.373 45.2094C117.246 47.01 116.941 50.2365 116.688 52.8334C117.653 52.9658 118.156 53.2268 117.894 54.5599C117.682 55.6406 117.01 57.1311 116.119 58.2157C115.401 63.2755 113.602 67.7735 108.216 69.2063C108.296 69.9029 108.633 69.8149 109.673 70.3805L109.72 70.4187C111.58 71.2407 117.964 73.6911 118.886 74.369C120.604 74.93 121.618 77.2004 122.241 79.8386C122.437 80.6686 122.438 81.5311 122.245 82.3617C122.052 83.1923 121.67 83.9698 121.128 84.6362C120.585 85.3026 119.896 85.8408 119.111 86.2107C118.326 86.5807 117.466 86.7729 116.595 86.773H92.9057C92.0345 86.7729 91.1745 86.5807 90.3897 86.2107C89.6049 85.8408 88.9156 85.3026 88.373 84.6362C87.8304 83.9698 87.4485 83.1923 87.2558 82.3617C87.063 81.5311 87.0644 80.6686 87.2597 79.8386C87.883 77.2004 88.9 74.93 90.6279 74.369Z" fill="url(#paint0_linear_1803_13131)"/>
<path fill-rule="evenodd" clip-rule="evenodd" d="M107.895 61.5131C107.895 61.5131 114.547 60.5228 114.547 55.7816C114.547 51.9288 113.033 50.1095 112.459 49.5625C112.197 49.3147 111.974 49.0297 111.799 48.7171C111.48 48.139 111.214 47.3045 111.847 46.7381C111.847 46.7381 102.546 48.8418 97.899 45.2227C97.899 45.2227 93.5489 46.4934 93.5489 54.2171C93.5489 61.9408 98.7494 61.8917 98.7494 61.8917C98.7494 61.8917 99.7991 59.5449 103.249 59.5449C106.7 59.5449 107.895 61.5131 107.895 61.5131Z" fill="url(#paint1_linear_1803_13131)"/>
<path fill-rule="evenodd" clip-rule="evenodd" d="M92.708 58.2167C91.8146 57.1337 91.1427 55.6409 90.9315 54.5602C90.6685 53.2224 91.1754 52.9645 92.1469 52.832L92.708 58.2167Z" fill="url(#paint2_linear_1803_13131)"/>
<path fill-rule="evenodd" clip-rule="evenodd" d="M116.108 58.2154C117 57.1316 117.672 55.6403 117.884 54.5596C118.146 53.2265 117.645 52.9655 116.677 52.833L116.108 58.2154Z" fill="url(#paint3_linear_1803_13131)"/>
<path fill-rule="evenodd" clip-rule="evenodd" d="M103.255 62.9172C103.255 62.9172 105.334 62.8136 106.595 63.6434C107.285 64.0969 106.82 65.1534 106.004 64.9991C105.188 64.8448 104.181 64.7015 103.255 64.7015" fill="url(#paint4_linear_1803_13131)"/>
<path fill-rule="evenodd" clip-rule="evenodd" d="M103.257 62.9172C103.257 62.9172 101.209 62.8152 99.9461 63.6247C99.2359 64.0805 99.6759 65.1557 100.51 64.9991C101.319 64.8433 102.332 64.7015 103.257 64.7015" fill="url(#paint5_linear_1803_13131)"/>
<path fill-rule="evenodd" clip-rule="evenodd" d="M90.6279 74.3697C91.5468 73.691 97.9293 71.2414 99.7895 70.4194L99.8365 70.3812C100.759 69.8802 101.125 69.8919 101.254 69.4174C104.464 70.0828 108.207 69.207 108.207 69.207C108.287 69.9036 108.624 69.8155 109.664 70.3812L109.711 70.4194C111.572 71.2414 117.955 73.6918 118.877 74.3697C120.604 74.9306 121.618 77.2011 122.241 79.8393C122.437 80.6693 122.438 81.5317 122.245 82.3624C122.052 83.193 121.67 83.9704 121.128 84.6369C120.585 85.3033 119.896 85.8415 119.111 86.2114C118.326 86.5814 117.466 86.7736 116.595 86.7737H92.9057C92.0345 86.7736 91.1745 86.5814 90.3897 86.2114C89.6049 85.8415 88.9156 85.3033 88.373 84.6369C87.8304 83.9704 87.4485 83.193 87.2558 82.3624C87.063 81.5317 87.0644 80.6693 87.2597 79.8393C87.883 77.2011 88.9 74.9306 90.6279 74.3697Z" fill="black"/>
<path fill-rule="evenodd" clip-rule="evenodd" d="M90.6271 74.3697C91.5461 73.691 97.9285 71.2414 99.7887 70.4194L99.8358 70.3812C100.758 69.8802 101.125 69.8919 101.254 69.4174C104.463 70.0828 108.207 69.207 108.207 69.207C108.286 69.9036 108.624 69.8155 109.664 70.3812L109.711 70.4194C111.571 71.2414 117.954 73.6918 118.876 74.3697C120.928 75.0327 121.977 78.1251 122.554 81.3742C123.056 84.197 120.822 86.7776 117.894 86.7776H91.6091C88.6777 86.7776 86.4437 84.197 86.9458 81.3742C87.5228 78.1251 88.5717 75.0327 90.6271 74.3697Z" fill="url(#paint6_linear_1803_13131)"/>
<path fill-rule="evenodd" clip-rule="evenodd" d="M109.663 70.3815C109.663 70.3815 104.716 71.9951 99.7886 70.4196C99.7886 70.4196 98.0431 70.4064 97.6558 71.3063C97.6558 71.3063 102.364 74.1307 111.668 71.2354C111.668 71.2354 110.849 70.0792 109.663 70.3815Z" fill="url(#paint7_linear_1803_13131)"/>
<path fill-rule="evenodd" clip-rule="evenodd" d="M99.7882 70.4194L99.8352 70.3812C100.757 69.8802 101.124 69.8919 101.253 69.4174C104.463 70.0828 108.206 69.207 108.206 69.207C108.286 69.9036 108.623 69.8155 109.663 70.3812C109.663 70.3812 104.716 71.9948 99.7882 70.4194Z" fill="url(#paint8_linear_1803_13131)"/>
</g>
<g opacity="0.6">
<path fill-rule="evenodd" clip-rule="evenodd" d="M6.17529 62.7662C6.95286 62.192 12.3534 60.1192 13.9274 59.4237L13.9672 59.3914C14.7475 58.9675 15.0577 58.9774 15.1669 58.5759C10.1373 57.6028 8.54308 53.5864 7.93612 49.0987C7.18013 48.1823 6.61162 46.9192 6.43291 46.0047C6.21036 44.8728 6.63927 44.6545 7.46135 44.5425C7.11944 37.7849 9.11024 34.3052 9.11024 34.3052C9.11024 34.3052 11.0977 30.693 14.6578 30.5117C14.8736 30.517 15.0937 30.519 15.318 30.5177C15.4527 30.5283 15.588 30.5283 15.7226 30.5177C21.339 30.5585 24.4405 32.2977 24.8269 32.5245L24.868 32.5495C24.868 32.5495 25.2147 32.777 25.7023 33.1686C26.61 33.9947 26.9128 34.8649 26.9128 34.8649C27.6337 34.6836 28.5361 36.5982 28.5853 36.705C28.7573 37.1474 28.8324 37.6202 28.8058 38.0928C28.6979 39.6163 28.4403 42.3464 28.2258 44.5438C29.0425 44.6559 29.4687 44.8767 29.2469 46.0047C29.0675 46.9192 28.499 48.1804 27.7443 49.0981C27.1374 53.3794 25.6153 57.1854 21.0577 58.3979C21.1252 58.9872 21.4104 58.9128 22.2905 59.3914L22.3303 59.4237C23.9043 60.1192 29.3055 62.1927 30.0858 62.7662C31.5398 63.2409 32.3976 65.162 32.925 67.3944C33.0903 68.0967 33.0914 68.8265 32.9283 69.5293C32.7652 70.2321 32.4421 70.89 31.983 71.4539C31.5239 72.0177 30.9406 72.4731 30.2766 72.7862C29.6125 73.0992 28.8848 73.2618 28.1476 73.2619H8.1027C7.36548 73.2618 6.63777 73.0992 5.97373 72.7862C5.30969 72.4731 4.72641 72.0177 4.2673 71.4539C3.80819 70.89 3.48506 70.2321 3.32197 69.5293C3.15888 68.8265 3.16003 68.0967 3.32532 67.3944C3.85269 65.162 4.71321 63.2409 6.17529 62.7662Z" fill="url(#paint9_linear_1803_13131)"/>
<path fill-rule="evenodd" clip-rule="evenodd" d="M20.7866 51.8877C20.7866 51.8877 26.415 51.0498 26.415 47.038C26.415 43.7779 25.1337 42.2385 24.6481 41.7757C24.4263 41.566 24.238 41.3249 24.0897 41.0604C23.82 40.5712 23.5947 39.8651 24.1302 39.3858C24.1302 39.3858 16.2607 41.1659 12.3284 38.1035C12.3284 38.1035 8.64756 39.1788 8.64756 45.7142C8.64756 52.2496 13.048 52.2081 13.048 52.2081C13.048 52.2081 13.9361 50.2224 16.8556 50.2224C19.775 50.2224 20.7866 51.8877 20.7866 51.8877Z" fill="url(#paint10_linear_1803_13131)"/>
<path fill-rule="evenodd" clip-rule="evenodd" d="M7.93555 49.0983C7.17956 48.1819 6.61104 46.9187 6.43233 46.0043C6.20978 44.8723 6.63869 44.6541 7.46078 44.542L7.93555 49.0983Z" fill="url(#paint11_linear_1803_13131)"/>
<path fill-rule="evenodd" clip-rule="evenodd" d="M27.7358 49.0982C28.4905 48.1812 29.059 46.9193 29.2384 46.0049C29.4603 44.8769 29.0361 44.656 28.2174 44.5439L27.7358 49.0982Z" fill="url(#paint12_linear_1803_13131)"/>
<path fill-rule="evenodd" clip-rule="evenodd" d="M16.8595 53.0767C16.8595 53.0767 18.6183 52.9891 19.6852 53.6912C20.2692 54.0749 19.8761 54.9689 19.1855 54.8383C18.4949 54.7078 17.6432 54.5865 16.8595 54.5865" fill="url(#paint13_linear_1803_13131)"/>
<path fill-rule="evenodd" clip-rule="evenodd" d="M16.8613 53.0767C16.8613 53.0767 15.1288 52.9904 14.0599 53.6754C13.459 54.061 13.8313 54.9709 14.5374 54.8383C15.2212 54.7065 16.0784 54.5865 16.8613 54.5865" fill="url(#paint14_linear_1803_13131)"/>
<path fill-rule="evenodd" clip-rule="evenodd" d="M6.17529 62.7668C6.95286 62.1926 12.3534 60.1198 13.9274 59.4243L13.9672 59.392C14.7475 58.9681 15.0577 58.9779 15.1669 58.5764C17.8827 59.1395 21.0503 58.3984 21.0503 58.3984C21.1178 58.9878 21.403 58.9133 22.2831 59.392L22.3229 59.4243C23.8969 60.1198 29.2981 62.1932 30.0784 62.7668C31.5398 63.2415 32.3976 65.1626 32.925 67.3949C33.0903 68.0973 33.0914 68.827 32.9283 69.5299C32.7652 70.2327 32.4421 70.8906 31.983 71.4544C31.5239 72.0183 30.9406 72.4737 30.2766 72.7868C29.6125 73.0998 28.8848 73.2624 28.1476 73.2625H8.1027C7.36548 73.2624 6.63777 73.0998 5.97373 72.7868C5.30969 72.4737 4.72641 72.0183 4.2673 71.4544C3.80819 70.8906 3.48506 70.2327 3.32197 69.5299C3.15888 68.827 3.16003 68.0973 3.32532 67.3949C3.85269 65.1626 4.71321 63.2415 6.17529 62.7668Z" fill="black"/>
<path fill-rule="evenodd" clip-rule="evenodd" d="M6.17489 62.7668C6.95246 62.1926 12.353 60.1198 13.927 59.4243L13.9668 59.392C14.7471 58.9681 15.0573 58.9779 15.1665 58.5764C17.8823 59.1395 21.0499 58.3984 21.0499 58.3984C21.1174 58.9878 21.4026 58.9133 22.2827 59.392L22.3225 59.4243C23.8965 60.1198 29.2977 62.1932 30.078 62.7668C31.8139 63.3279 32.7014 65.9445 33.1903 68.6937C33.6145 71.0823 31.7242 73.2658 29.2465 73.2658H7.00574C4.52533 73.2658 2.63502 71.0823 3.05988 68.6937C3.54814 65.9445 4.43564 63.3279 6.17489 62.7668Z" fill="url(#paint15_linear_1803_13131)"/>
<path fill-rule="evenodd" clip-rule="evenodd" d="M22.2824 59.3923C22.2824 59.3923 18.0965 60.7576 13.9267 59.4246C13.9267 59.4246 12.4498 59.4134 12.1221 60.1748C12.1221 60.1748 16.1057 62.5647 23.9785 60.1148C23.9785 60.1148 23.2859 59.1365 22.2824 59.3923Z" fill="url(#paint16_linear_1803_13131)"/>
<path fill-rule="evenodd" clip-rule="evenodd" d="M13.9265 59.4243L13.9663 59.392C14.7466 58.9681 15.0568 58.9779 15.1661 58.5764C17.8818 59.1395 21.0494 58.3984 21.0494 58.3984C21.1169 58.9878 21.4021 58.9133 22.2822 59.392C22.2822 59.392 18.0963 60.7573 13.9265 59.4243Z" fill="url(#paint17_linear_1803_13131)"/>
</g>
<path fill-rule="evenodd" clip-rule="evenodd" d="M32.0161 87.1552C33.8858 85.7745 46.8711 80.7906 50.6558 79.1182L50.7514 79.0405C52.6276 78.0212 53.3735 78.045 53.6362 77.0796C41.5427 74.7399 37.7094 65.0828 36.25 54.2923C34.4322 52.0889 33.0653 49.0516 32.6356 46.8529C32.1005 44.1311 33.1318 43.6064 35.1084 43.3369C34.2863 27.0886 39.0731 18.7219 39.0731 18.7219C39.0731 18.7219 43.8518 10.0365 52.4119 9.60059C52.9308 9.61327 53.46 9.61802 53.9994 9.61485C54.3232 9.64053 54.6485 9.64053 54.9723 9.61485C68.4765 9.71314 75.934 13.8949 76.8632 14.4402L76.9621 14.5005C76.9621 14.5005 77.7955 15.0474 78.9679 15.989C81.1505 17.9752 81.8786 20.0677 81.8786 20.0677C83.612 19.6318 85.7816 24.2352 85.9 24.492C86.3135 25.5558 86.4941 26.6926 86.4303 27.8289C86.1708 31.4923 85.5514 38.0566 85.0357 43.3401C86.9994 43.6096 88.0242 44.1406 87.4907 46.8529C87.0594 49.0516 85.6925 52.0841 83.8779 54.2907C82.4186 64.585 78.7587 73.7364 67.8003 76.6516C67.9625 78.0688 68.6484 77.8897 70.7645 79.0405L70.8602 79.1182C74.6449 80.7906 87.6318 85.7761 89.5079 87.1552C93.004 88.2965 95.0666 92.9158 96.3346 98.2833C96.7321 99.9721 96.7348 101.727 96.3427 103.417C95.9505 105.107 95.1736 106.688 94.0697 108.044C92.9658 109.4 91.5633 110.495 89.9666 111.248C88.37 112 86.6202 112.391 84.8476 112.392H36.6505C34.8779 112.391 33.1282 112 31.5315 111.248C29.9348 110.495 28.5324 109.4 27.4285 108.044C26.3245 106.688 25.5476 105.107 25.1555 103.417C24.7633 101.727 24.7661 99.9721 25.1635 98.2833C26.4315 92.9158 28.5006 88.2965 32.0161 87.1552Z" fill="url(#paint18_linear_1803_13131)"/>
<path fill-rule="evenodd" clip-rule="evenodd" d="M67.1482 60.999C67.1482 60.999 80.6816 58.9842 80.6816 49.3382C80.6816 41.4993 77.6007 37.7979 76.4332 36.6851C75.8998 36.181 75.4471 35.6011 75.0906 34.9651C74.4419 33.7889 73.9003 32.0911 75.1879 30.9387C75.1879 30.9387 56.2661 35.2188 46.8109 27.8555C46.8109 27.8555 37.9605 30.4409 37.9605 46.1551C37.9605 61.8692 48.541 61.7694 48.541 61.7694C48.541 61.7694 50.6766 56.9947 57.6963 56.9947C64.7159 56.9947 67.1482 60.999 67.1482 60.999Z" fill="url(#paint19_linear_1803_13131)"/>
<path fill-rule="evenodd" clip-rule="evenodd" d="M36.249 54.2932C34.4313 52.0898 33.0643 49.0526 32.6346 46.8539C32.0995 44.1321 33.1308 43.6074 35.1075 43.3379L36.249 54.2932Z" fill="url(#paint20_linear_1803_13131)"/>
<path fill-rule="evenodd" clip-rule="evenodd" d="M83.8579 54.2914C85.6724 52.0864 87.0394 49.0523 87.4707 46.8536C88.0042 44.1413 86.9842 43.6103 85.0157 43.3408L83.8579 54.2914Z" fill="url(#paint21_linear_1803_13131)"/>
<path fill-rule="evenodd" clip-rule="evenodd" d="M57.7086 63.8571C57.7086 63.8571 61.9375 63.6462 64.5028 65.3345C65.9071 66.2571 64.9617 68.4066 63.3013 68.0927C61.6408 67.7789 59.5928 67.4872 57.7086 67.4872" fill="url(#paint22_linear_1803_13131)"/>
<path fill-rule="evenodd" clip-rule="evenodd" d="M57.709 63.8571C57.709 63.8571 53.5432 63.6494 50.9731 65.2964C49.5283 66.2238 50.4234 68.4114 52.1211 68.0927C53.7654 67.7757 55.8264 67.4872 57.709 67.4872" fill="url(#paint23_linear_1803_13131)"/>
<path fill-rule="evenodd" clip-rule="evenodd" d="M32.0161 87.1559C33.8858 85.7752 46.8711 80.7913 50.6558 79.1189L50.7514 79.0412C52.6276 78.022 53.3735 78.0457 53.6362 77.0803C60.1661 78.4341 67.7825 76.6523 67.7825 76.6523C67.9447 78.0695 68.6306 77.8904 70.7467 79.0412L70.8424 79.1189C74.627 80.7913 87.614 85.7768 89.4901 87.1559C93.004 88.2973 95.0666 92.9166 96.3346 98.2841C96.7321 99.9728 96.7348 101.727 96.3427 103.417C95.9505 105.107 95.1736 106.689 94.0697 108.045C92.9658 109.401 91.5633 110.496 89.9666 111.248C88.37 112.001 86.6202 112.392 84.8476 112.392H36.6505C34.8779 112.392 33.1282 112.001 31.5315 111.248C29.9348 110.496 28.5324 109.401 27.4285 108.045C26.3245 106.689 25.5476 105.107 25.1555 103.417C24.7633 101.727 24.7661 99.9728 25.1635 98.2841C26.4315 92.9166 28.5006 88.2973 32.0161 87.1559Z" fill="black"/>
<path fill-rule="evenodd" clip-rule="evenodd" d="M32.0162 87.1559C33.8859 85.7752 46.8712 80.7913 50.6559 79.1189L50.7515 79.0412C52.6277 78.022 53.3736 78.0457 53.6363 77.0803C60.1662 78.4341 67.7826 76.6523 67.7826 76.6523C67.9448 78.0695 68.6307 77.8904 70.7468 79.0412L70.8425 79.1189C74.6271 80.7913 87.6141 85.7768 89.4902 87.1559C93.664 88.5049 95.798 94.7966 96.9736 101.407C97.9936 107.15 93.4484 112.4 87.4908 112.4H34.014C28.0499 112.4 23.5048 107.15 24.5263 101.407C25.7003 94.7966 27.8343 88.5049 32.0162 87.1559Z" fill="url(#paint24_linear_1803_13131)"/>
<path fill-rule="evenodd" clip-rule="evenodd" d="M70.746 79.041C70.746 79.041 60.6811 82.324 50.6551 79.1187C50.6551 79.1187 47.1039 79.0918 46.3159 80.9227C46.3159 80.9227 55.8943 86.669 74.8242 80.7784C74.8242 80.7784 73.1589 78.426 70.746 79.041Z" fill="url(#paint25_linear_1803_13131)"/>
<path fill-rule="evenodd" clip-rule="evenodd" d="M50.6552 79.1189L50.7508 79.0412C52.627 78.022 53.3729 78.0457 53.6356 77.0803C60.1655 78.4341 67.7819 76.6523 67.7819 76.6523C67.9441 78.0695 68.63 77.8904 70.7461 79.0412C70.7461 79.0412 60.6812 82.3242 50.6552 79.1189Z" fill="url(#paint26_linear_1803_13131)"/>
<defs>
<linearGradient id="paint0_linear_1803_13131" x1="105.982" y1="38.7756" x2="104.734" y2="69.417" gradientUnits="userSpaceOnUse">
<stop/>
<stop offset="1" stop-color="#4B4B4B"/>
</linearGradient>
<linearGradient id="paint1_linear_1803_13131" x1="114.545" y1="53.5572" x2="93.5442" y2="53.5572" gradientUnits="userSpaceOnUse">
<stop stop-color="#FBE4CE"/>
<stop offset="1" stop-color="#F9EBDA"/>
</linearGradient>
<linearGradient id="paint2_linear_1803_13131" x1="92.7048" y1="55.5248" x2="90.859" y2="55.5248" gradientUnits="userSpaceOnUse">
<stop stop-color="#FFB978"/>
<stop offset="1" stop-color="#FFCC8E"/>
</linearGradient>
<linearGradient id="paint3_linear_1803_13131" x1="117.953" y1="55.5242" x2="116.108" y2="55.5242" gradientUnits="userSpaceOnUse">
<stop stop-color="#FFB978"/>
<stop offset="1" stop-color="#FFCC8E"/>
</linearGradient>
<linearGradient id="paint4_linear_1803_13131" x1="107.267" y1="63.9636" x2="99.7124" y2="63.9636" gradientUnits="userSpaceOnUse">
<stop stop-color="#FFB978"/>
<stop offset="1" stop-color="#FFCC8E"/>
</linearGradient>
<linearGradient id="paint5_linear_1803_13131" x1="107.269" y1="63.9636" x2="99.7141" y2="63.9636" gradientUnits="userSpaceOnUse">
<stop stop-color="#FFB978"/>
<stop offset="1" stop-color="#FFCC8E"/>
</linearGradient>
<linearGradient id="paint6_linear_1803_13131" x1="104.583" y1="70.9913" x2="104.806" y2="86.625" gradientUnits="userSpaceOnUse">
<stop stop-color="#87A6F8"/>
<stop offset="1" stop-color="#677DF2"/>
</linearGradient>
<linearGradient id="paint7_linear_1803_13131" x1="104.662" y1="73.3773" x2="104.662" y2="72.6246" gradientUnits="userSpaceOnUse">
<stop stop-color="#4DADF7"/>
<stop offset="1" stop-color="#2A6AF5"/>
</linearGradient>
<linearGradient id="paint8_linear_1803_13131" x1="109.663" y1="70.1584" x2="99.7882" y2="70.1584" gradientUnits="userSpaceOnUse">
<stop stop-color="#FFB978"/>
<stop offset="1" stop-color="#FFCC8E"/>
</linearGradient>
<linearGradient id="paint9_linear_1803_13131" x1="19.1671" y1="32.6487" x2="18.111" y2="58.5761" gradientUnits="userSpaceOnUse">
<stop/>
<stop offset="1" stop-color="#4B4B4B"/>
</linearGradient>
<linearGradient id="paint10_linear_1803_13131" x1="26.4137" y1="45.1558" x2="8.64351" y2="45.1558" gradientUnits="userSpaceOnUse">
<stop stop-color="#FBE4CE"/>
<stop offset="1" stop-color="#F9EBDA"/>
</linearGradient>
<linearGradient id="paint11_linear_1803_13131" x1="7.93285" y1="46.8205" x2="6.37096" y2="46.8205" gradientUnits="userSpaceOnUse">
<stop stop-color="#FFB978"/>
<stop offset="1" stop-color="#FFCC8E"/>
</linearGradient>
<linearGradient id="paint12_linear_1803_13131" x1="29.2964" y1="46.8211" x2="27.7358" y2="46.8211" gradientUnits="userSpaceOnUse">
<stop stop-color="#FFB978"/>
<stop offset="1" stop-color="#FFCC8E"/>
</linearGradient>
<linearGradient id="paint13_linear_1803_13131" x1="20.2544" y1="53.9622" x2="13.8619" y2="53.9622" gradientUnits="userSpaceOnUse">
<stop stop-color="#FFB978"/>
<stop offset="1" stop-color="#FFCC8E"/>
</linearGradient>
<linearGradient id="paint14_linear_1803_13131" x1="20.2562" y1="53.9622" x2="13.8637" y2="53.9622" gradientUnits="userSpaceOnUse">
<stop stop-color="#FFB978"/>
<stop offset="1" stop-color="#FFCC8E"/>
</linearGradient>
<linearGradient id="paint15_linear_1803_13131" x1="17.9835" y1="59.9082" x2="18.1723" y2="73.1367" gradientUnits="userSpaceOnUse">
<stop stop-color="#87A6F8"/>
<stop offset="1" stop-color="#677DF2"/>
</linearGradient>
<linearGradient id="paint16_linear_1803_13131" x1="18.0506" y1="61.9272" x2="18.0506" y2="61.2903" gradientUnits="userSpaceOnUse">
<stop stop-color="#4DADF7"/>
<stop offset="1" stop-color="#2A6AF5"/>
</linearGradient>
<linearGradient id="paint17_linear_1803_13131" x1="22.2822" y1="59.2034" x2="13.9265" y2="59.2034" gradientUnits="userSpaceOnUse">
<stop stop-color="#FFB978"/>
<stop offset="1" stop-color="#FFCC8E"/>
</linearGradient>
<linearGradient id="paint18_linear_1803_13131" x1="63.2545" y1="14.739" x2="60.7151" y2="77.0802" gradientUnits="userSpaceOnUse">
<stop/>
<stop offset="1" stop-color="#4B4B4B"/>
</linearGradient>
<linearGradient id="paint19_linear_1803_13131" x1="80.6784" y1="44.8124" x2="37.9507" y2="44.8124" gradientUnits="userSpaceOnUse">
<stop stop-color="#FBE4CE"/>
<stop offset="1" stop-color="#F9EBDA"/>
</linearGradient>
<linearGradient id="paint20_linear_1803_13131" x1="36.2425" y1="48.8164" x2="32.487" y2="48.8164" gradientUnits="userSpaceOnUse">
<stop stop-color="#FFB978"/>
<stop offset="1" stop-color="#FFCC8E"/>
</linearGradient>
<linearGradient id="paint21_linear_1803_13131" x1="87.6101" y1="48.8161" x2="83.8579" y2="48.8161" gradientUnits="userSpaceOnUse">
<stop stop-color="#FFB978"/>
<stop offset="1" stop-color="#FFCC8E"/>
</linearGradient>
<linearGradient id="paint22_linear_1803_13131" x1="65.8714" y1="65.986" x2="50.5008" y2="65.986" gradientUnits="userSpaceOnUse">
<stop stop-color="#FFB978"/>
<stop offset="1" stop-color="#FFCC8E"/>
</linearGradient>
<linearGradient id="paint23_linear_1803_13131" x1="65.8718" y1="65.986" x2="50.5012" y2="65.986" gradientUnits="userSpaceOnUse">
<stop stop-color="#FFB978"/>
<stop offset="1" stop-color="#FFCC8E"/>
</linearGradient>
<linearGradient id="paint24_linear_1803_13131" x1="60.4094" y1="80.2825" x2="60.8635" y2="112.09" gradientUnits="userSpaceOnUse">
<stop stop-color="#87A6F8"/>
<stop offset="1" stop-color="#677DF2"/>
</linearGradient>
<linearGradient id="paint25_linear_1803_13131" x1="60.5709" y1="85.1362" x2="60.5709" y2="83.6048" gradientUnits="userSpaceOnUse">
<stop stop-color="#4DADF7"/>
<stop offset="1" stop-color="#2A6AF5"/>
</linearGradient>
<linearGradient id="paint26_linear_1803_13131" x1="70.7461" y1="78.5879" x2="50.6552" y2="78.5879" gradientUnits="userSpaceOnUse">
<stop stop-color="#FFB978"/>
<stop offset="1" stop-color="#FFCC8E"/>
</linearGradient>
</defs>
</svg>
