<svg width="25" height="24" viewBox="0 0 25 24" fill="none" xmlns="http://www.w3.org/2000/svg">
<path d="M21.65 23.4488H9.24826C7.70655 23.4488 6.45674 22.199 6.45674 20.6573V3.34983C6.45674 1.80811 7.70655 0.558304 9.24826 0.558304H16.7639L24.4415 8.18812V20.6573C24.4415 22.199 23.1917 23.4488 21.65 23.4488Z" fill="#F3F3F5" stroke="#CFD1D5" stroke-width="1.11661"/>
<rect y="10.6077" width="16.8542" height="9.77032" rx="1.95406" fill="#F54444"/>
<path d="M2.67662 17.1685V12.7352H4.34793C5.18051 12.7352 5.77038 13.3097 5.77038 14.1515V14.1576C5.77038 14.9994 5.18051 15.5862 4.34793 15.5862H3.22963V17.1685H2.67662ZM4.2066 13.2268H3.22963V15.0947H4.2066C4.83949 15.0947 5.20509 14.7475 5.20509 14.1638V14.1576C5.20509 13.5739 4.83949 13.2268 4.2066 13.2268ZM6.70816 17.1685V12.7352H8.22892C9.54385 12.7352 10.3211 13.5555 10.3211 14.9472V14.9534C10.3211 16.3482 9.54692 17.1685 8.22892 17.1685H6.70816ZM7.26116 16.6708H8.19205C9.18132 16.6708 9.75583 16.0379 9.75583 14.9595V14.9534C9.75583 13.8719 9.17518 13.2329 8.19205 13.2329H7.26116V16.6708ZM11.3111 17.1685V12.7352H14.0024V13.2329H11.8641V14.7567H13.8273V15.2483H11.8641V17.1685H11.3111Z" fill="white"/>
</svg>
