<svg width="41" height="30" viewBox="0 0 41 30" fill="none" xmlns="http://www.w3.org/2000/svg">
<path d="M12.9751 29.0312C10.6235 27.5675 9.75002 24.2009 11.161 21.6394L21.0378 2.90372C22.3816 0.342207 25.4723 -0.609213 27.8239 0.927697C30.1755 2.39142 31.049 5.75799 29.638 8.3195L19.7612 27.0552C18.3502 29.6899 15.3267 30.5681 12.9751 29.0312Z" fill="url(#paint0_linear_2467_21304)"/>
<path d="M38.0365 29.0719C35.6849 30.5356 32.5942 29.6573 31.2504 27.0958L21.3064 8.28698C19.9626 5.72546 20.7689 2.3589 23.1205 0.895177C25.4722 -0.568547 28.5629 0.309687 29.9067 2.8712L39.8507 21.6069C41.1944 24.2416 40.3882 27.5349 38.0365 29.0719Z" fill="url(#paint1_linear_2467_21304)"/>
<path fill-rule="evenodd" clip-rule="evenodd" d="M25.4872 16.1922L21.3069 8.28523C19.9631 5.72372 20.7694 2.35715 23.121 0.893428C23.8525 0.438141 24.6555 0.209439 25.4551 0.1875C26.2662 0.204554 27.0818 0.441759 27.8238 0.926704C30.1754 2.39043 31.0489 5.75699 29.6379 8.31851L25.4872 16.1922Z" fill="#00E0FF" fill-opacity="0.4"/>
<path d="M17.8798 29.1041C15.5282 30.5679 12.4375 29.6896 11.0937 27.1281L1.14969 8.39245C-0.194096 5.83093 0.612175 2.46437 2.9638 1.00065C5.31542 -0.463078 8.40612 0.415156 9.74991 2.97667L19.6939 21.7123C21.1049 24.2738 20.2314 27.6404 17.8798 29.1041Z" fill="url(#paint2_linear_2467_21304)"/>
<path fill-rule="evenodd" clip-rule="evenodd" d="M11.1605 21.6395C9.74953 24.201 10.623 27.5675 12.9746 29.0313C14.9377 30.3143 17.3691 29.9142 18.9397 28.2143C20.4608 26.5278 20.8665 23.8422 19.6936 21.7128L15.3932 13.6104L11.1605 21.6395Z" fill="#3E8DFF"/>
<defs>
<linearGradient id="paint0_linear_2467_21304" x1="20.3995" y1="0.1875" x2="20.3995" y2="29.7875" gradientUnits="userSpaceOnUse">
<stop stop-color="#1AE3FF"/>
<stop offset="0.571753" stop-color="#0058E8"/>
<stop offset="1" stop-color="#003893"/>
</linearGradient>
<linearGradient id="paint1_linear_2467_21304" x1="30.5785" y1="0.1875" x2="30.5785" y2="29.7795" gradientUnits="userSpaceOnUse">
<stop stop-color="#1AE3FF"/>
<stop offset="0.571753" stop-color="#0058E8"/>
<stop offset="1" stop-color="#003893"/>
</linearGradient>
<linearGradient id="paint2_linear_2467_21304" x1="10.4367" y1="0.292969" x2="10.4367" y2="29.8118" gradientUnits="userSpaceOnUse">
<stop stop-color="#1AE3FF"/>
<stop offset="0.571753" stop-color="#0058E8"/>
<stop offset="1" stop-color="#003893"/>
</linearGradient>
</defs>
</svg>
