<svg width="20" height="21" viewBox="0 0 20 21" fill="none" xmlns="http://www.w3.org/2000/svg">
<path fill-rule="evenodd" clip-rule="evenodd" d="M12.1822 17.7249C11.4948 17.9473 10.7614 18.0675 9.99996 18.0675C9.172 18.0675 8.37722 17.9254 7.63867 17.6643C6.99012 17.4345 6.38516 17.1123 5.83826 16.7128C5.98153 16.4931 6.20808 16.2558 6.55287 16.0233C7.44672 15.4307 8.69481 15.0967 10.006 15.0967C11.3185 15.0967 12.5612 15.4313 13.4449 16.0221C13.7907 16.255 14.0178 16.4927 14.1613 16.7128C13.5644 17.1488 12.8985 17.4927 12.1822 17.7249ZM15.1103 15.889C14.8694 15.5625 14.5457 15.2562 14.1414 14.9842C11.8748 13.4675 8.14143 13.4675 5.8581 14.9842C5.45395 15.2561 5.13026 15.5623 4.88937 15.8888C3.66756 14.616 2.91663 12.8878 2.91663 10.9841C2.91663 7.0721 6.08794 3.90079 9.99996 3.90079C13.912 3.90079 17.0833 7.0721 17.0833 10.9841C17.0833 12.8879 16.3323 14.6162 15.1103 15.889ZM11.8632 19.1084C15.5686 18.2621 18.3333 14.946 18.3333 10.9841C18.3333 6.38175 14.6023 2.65079 9.99996 2.65079C5.39759 2.65079 1.66663 6.38175 1.66663 10.9841C1.66663 14.8349 4.27848 18.0756 7.82728 19.0314C8.51943 19.2181 9.24755 19.3175 9.99976 19.3175C10.6409 19.3175 11.2645 19.2453 11.8632 19.1084ZM10.1219 12.6508C11.9105 12.5897 13.3231 11.1241 13.3333 9.32254C13.3333 7.4803 11.8394 5.98412 9.99996 5.98412C8.15037 5.98412 6.66663 7.4803 6.66663 9.32254C6.66663 11.1241 8.08939 12.5897 9.87801 12.6508C9.95931 12.6406 10.0508 12.6406 10.1219 12.6508ZM9.85288 11.3981C8.76934 11.3262 7.91663 10.4271 7.91663 9.32254C7.91663 8.16637 8.845 7.23412 9.99996 7.23412C11.1461 7.23412 12.0814 8.16696 12.0833 9.31903C12.0752 10.4325 11.2248 11.325 10.1497 11.3979C10.0491 11.3912 9.94851 11.3918 9.85288 11.3981Z" fill="#1B1D29"/>
</svg>
