<svg width="66" height="60" viewBox="0 0 66 60" fill="none" xmlns="http://www.w3.org/2000/svg">
<ellipse cx="28.4078" cy="28.3339" rx="28.4078" ry="28.3339" transform="matrix(-0.998169 0.0604943 -0.0608114 -0.998149 65.6673 56.563)" fill="url(#paint0_linear_3073_31572)"/>
<ellipse opacity="0.2" cx="24.3031" cy="3.51137" rx="24.3031" ry="3.51137" transform="matrix(-0.999882 0.0153923 0.0154732 0.99988 60.1105 49.6815)" fill="url(#paint1_linear_3073_31572)"/>
<g clip-path="url(#clip0_3073_31572)">
<path d="M24.571 29.4654L24.1853 29.5622C24.0331 29.6004 23.879 29.5079 23.8413 29.3555L23.0979 26.3558C23.0602 26.2034 23.1529 26.0489 23.3051 26.0108L23.6908 25.914C23.843 25.8758 23.9971 25.9683 24.0348 26.1207L24.7782 29.1204C24.8159 29.2728 24.7232 29.4273 24.571 29.4654Z" fill="#2670DB"/>
<path d="M24.6725 29.8735L24.2867 29.9704C24.1346 30.0086 24.0418 30.163 24.0796 30.3154L24.8232 33.3151C24.861 33.4674 25.015 33.5599 25.1671 33.5217L25.5529 33.4248C25.7051 33.3866 25.7978 33.2322 25.7601 33.0798L25.0164 30.0801C24.9787 29.9278 24.8247 29.8353 24.6725 29.8735Z" fill="#2670DB"/>
<path d="M27.3791 51.5955L15.5274 54.5704C14.2764 54.8844 13.0108 54.1237 12.7005 52.8714L6.81113 29.1069C6.50077 27.8545 7.26327 26.5848 8.51427 26.2708L20.366 23.2958C21.617 22.9818 22.8826 23.7425 23.193 24.9948L29.0821 48.7594C29.3925 50.0118 28.63 51.2815 27.379 51.5955L27.3791 51.5955Z" fill="#07C968"/>
<path d="M13.1485 52.4781L7.39041 29.2423C7.11963 28.1496 7.78501 27.0418 8.87641 26.7678L20.2777 23.9059C21.3692 23.6319 22.4735 24.2957 22.7443 25.3883L28.5024 48.6241C28.7732 49.7168 28.1078 50.8246 27.0164 51.0986L15.6152 53.9605C14.5236 54.2345 13.4194 53.5707 13.1485 52.4781Z" fill="white"/>
<path d="M15.596 39.0351C18.134 39.7115 20.744 38.1974 21.4256 35.6534C22.1072 33.1094 20.6023 30.4987 18.0643 29.8223C15.5263 29.1459 12.9163 30.6599 12.2347 33.2039C11.5531 35.748 13.058 38.3587 15.596 39.0351Z" fill="#ECF3FE"/>
<path d="M24.2871 42.6504L14.084 45.2115C13.7556 45.2938 13.4234 45.0943 13.3419 44.7654L12.8033 42.5921C12.7219 42.2634 12.9219 41.9301 13.2504 41.8477L23.4535 39.2866C23.7819 39.2043 24.1141 39.4038 24.1956 39.7327L24.7342 41.906C24.8156 42.2347 24.6156 42.568 24.2871 42.6504Z" fill="#ECF3FE"/>
<path d="M25.3915 47.1073L15.1883 49.6684C14.8599 49.7507 14.5278 49.5511 14.4463 49.2223L13.9076 47.049C13.8262 46.7202 14.0263 46.387 14.3547 46.3045L24.5578 43.7435C24.8863 43.661 25.2184 43.8607 25.2999 44.1895L25.8386 46.3628C25.92 46.6916 25.7199 47.0248 25.3915 47.1073Z" fill="#07C968"/>
</g>
<mask id="path-10-inside-1_3073_31572" fill="white">
<path d="M28.5341 19.2792C29.0622 17.2135 31.1653 15.9649 33.2317 16.4904L56.6517 22.4457C58.7181 22.9712 59.9651 25.0717 59.4371 27.1374L53.6455 49.7939C53.1175 51.8596 51.0143 53.1082 48.948 52.5828L25.528 46.6274C23.4616 46.102 22.2146 44.0014 22.7426 41.9358L28.5341 19.2792Z"/>
</mask>
<path d="M28.5341 19.2792C29.0622 17.2135 31.1653 15.9649 33.2317 16.4904L56.6517 22.4457C58.7181 22.9712 59.9651 25.0717 59.4371 27.1374L53.6455 49.7939C53.1175 51.8596 51.0143 53.1082 48.948 52.5828L25.528 46.6274C23.4616 46.102 22.2146 44.0014 22.7426 41.9358L28.5341 19.2792Z" fill="white"/>
<path d="M28.5341 19.2792C29.1867 16.7266 31.7856 15.1837 34.339 15.833L57.8448 21.8101C60.3982 22.4594 61.9392 25.0551 61.2867 27.6077L57.5875 26.667C57.991 25.0883 57.4712 23.5931 56.4263 23.3274L33.0063 17.372C30.94 16.8466 28.9377 17.7005 28.5341 19.2792ZM52.6894 53.5342L21.7865 45.676L52.6894 53.5342ZM21.7865 45.676L29.4902 15.539L21.7865 45.676ZM57.8448 21.8101C60.3982 22.4594 61.9392 25.0551 61.2867 27.6077L55.9678 48.4152C55.1787 51.5021 52.0358 53.368 48.948 52.5828C49.9928 52.8485 51.2679 51.3893 51.7959 49.3236L57.5875 26.667C57.991 25.0883 57.4712 23.5931 56.4263 23.3274L57.8448 21.8101Z" fill="#ADCBF8" mask="url(#path-10-inside-1_3073_31572)"/>
<path fill-rule="evenodd" clip-rule="evenodd" d="M30.8653 19.596C30.9914 19.1028 31.505 18.8076 32.0126 18.9367L41.2028 21.2736C41.7103 21.4027 42.0196 21.9071 41.8935 22.4003L39.6108 31.3301C39.4848 31.8233 38.9711 32.1184 38.4636 31.9894L29.2734 29.6525C28.7658 29.5234 28.4566 29.019 28.5826 28.5258L30.8653 19.596ZM34.7868 23.9226C34.533 23.8581 34.2762 24.0057 34.2131 24.2523L33.7566 26.0382C33.6936 26.2848 33.8482 26.537 34.102 26.6015L35.94 27.0689C36.1938 27.1335 36.4506 26.9859 36.5137 26.7393L36.9702 24.9533C37.0332 24.7067 36.8786 24.4545 36.6248 24.39L34.7868 23.9226Z" fill="url(#paint2_linear_3073_31572)"/>
<path fill-rule="evenodd" clip-rule="evenodd" d="M45.3391 23.2757C45.4652 22.7825 45.9788 22.4873 46.4864 22.6164L55.6765 24.9533C56.1841 25.0824 56.4934 25.5868 56.3673 26.08L54.0846 35.0098C53.9586 35.503 53.4449 35.7981 52.9373 35.6691L43.7472 33.3321C43.2396 33.2031 42.9304 32.6987 43.0564 32.2055L45.3391 23.2757ZM49.262 27.6023C49.0082 27.5378 48.7513 27.6853 48.6883 27.9319L48.2318 29.7179C48.1687 29.9645 48.3234 30.2167 48.5772 30.2812L50.4152 30.7486C50.669 30.8132 50.9258 30.6656 50.9888 30.419L51.4454 28.633C51.5084 28.3864 51.3538 28.1342 51.1 28.0697L49.262 27.6023Z" fill="url(#paint3_linear_3073_31572)"/>
<path fill-rule="evenodd" clip-rule="evenodd" d="M27.1885 33.973C27.3145 33.4798 27.8282 33.1847 28.3358 33.3137L37.5259 35.6507C38.0335 35.7797 38.3428 36.2842 38.2167 36.7773L35.934 45.7071C35.808 46.2003 35.2943 46.4955 34.7867 46.3664L25.5966 44.0295C25.089 43.9004 24.7798 43.396 24.9058 42.9028L27.1885 33.973ZM31.1106 38.299C30.8569 38.2344 30.6 38.382 30.537 38.6286L30.0805 40.4146C30.0174 40.6612 30.1721 40.9134 30.4259 40.9779L32.2639 41.4453C32.5177 41.5098 32.7745 41.3622 32.8375 41.1156L33.2941 39.3297C33.3571 39.0831 33.2025 38.8309 32.9487 38.7663L31.1106 38.299Z" fill="url(#paint4_linear_3073_31572)"/>
<path d="M41.9146 37.6225C42.0407 37.1293 42.5544 36.8341 43.0619 36.9632L45.819 37.6643L44.9059 41.2362L41.2298 40.3014L41.9146 37.6225Z" fill="#458CFF"/>
<path d="M49.494 38.5981L52.2511 39.2991C52.7587 39.4282 53.0679 39.9326 52.9418 40.4258L52.257 43.1047L48.581 42.17L49.494 38.5981Z" fill="#458CFF"/>
<path d="M47.6677 45.742L51.3438 46.6768L50.659 49.3557C50.5329 49.8489 50.0192 50.1441 49.5117 50.015L46.7546 49.314L47.6677 45.742Z" fill="#458CFF"/>
<path d="M40.3158 43.8728L43.9919 44.8076L43.0788 48.3795L40.3218 47.6784C39.8142 47.5494 39.505 47.0449 39.631 46.5517L40.3158 43.8728Z" fill="#458CFF"/>
<path d="M44.7929 41.6826C44.8559 41.436 45.1128 41.2884 45.3665 41.353L48.1236 42.054C48.3774 42.1186 48.532 42.3708 48.469 42.6174L47.7842 45.2963C47.7211 45.5429 47.4643 45.6905 47.2105 45.626L44.4535 44.9249C44.1997 44.8603 44.0451 44.6081 44.1081 44.3615L44.7929 41.6826Z" fill="#458CFF"/>
<path opacity="0.4" d="M7.31398 15.3212C7.31398 15.1238 7.475 14.9638 7.67363 14.9638H9.11225C9.31088 14.9638 9.4719 15.1238 9.4719 15.3212V16.7508C9.4719 16.9482 9.31088 17.1082 9.11225 17.1082H7.67363C7.475 17.1082 7.31398 16.9482 7.31398 16.7508V15.3212Z" fill="white"/>
<path opacity="0.2" d="M4.34428 32.3466C4.34428 32.1492 4.50531 31.9892 4.70394 31.9892H6.14255C6.34118 31.9892 6.50221 32.1492 6.50221 32.3466V33.7762C6.50221 33.9736 6.34118 34.1336 6.14255 34.1336H4.70394C4.50531 34.1336 4.34428 33.9736 4.34428 33.7762V32.3466Z" fill="white"/>
<defs>
<linearGradient id="paint0_linear_3073_31572" x1="29.6068" y1="5.64771" x2="20.893" y2="57.8144" gradientUnits="userSpaceOnUse">
<stop offset="0.065" stop-color="white"/>
<stop offset="1" stop-color="#8BB9FF"/>
</linearGradient>
<linearGradient id="paint1_linear_3073_31572" x1="24.3031" y1="0" x2="24.3031" y2="7.02273" gradientUnits="userSpaceOnUse">
<stop stop-color="#478DFE"/>
<stop offset="1" stop-color="#004BBA"/>
</linearGradient>
<linearGradient id="paint2_linear_3073_31572" x1="36.6077" y1="20.1052" x2="33.8819" y2="30.8243" gradientUnits="userSpaceOnUse">
<stop stop-color="#1870FF"/>
<stop offset="1" stop-color="#458CFF"/>
</linearGradient>
<linearGradient id="paint3_linear_3073_31572" x1="51.0815" y1="23.7848" x2="48.3557" y2="34.504" gradientUnits="userSpaceOnUse">
<stop stop-color="#1870FF"/>
<stop offset="1" stop-color="#458CFF"/>
</linearGradient>
<linearGradient id="paint4_linear_3073_31572" x1="32.9308" y1="34.4822" x2="30.2051" y2="45.2014" gradientUnits="userSpaceOnUse">
<stop stop-color="#1870FF"/>
<stop offset="1" stop-color="#458CFF"/>
</linearGradient>
<clipPath id="clip0_3073_31572">
<rect width="27.1826" height="32.0519" fill="white" transform="matrix(0.966272 0.257522 -0.258786 0.965935 8.96087 19.953)"/>
</clipPath>
</defs>
</svg>
