<svg width="121" height="120" viewBox="0 0 121 120" fill="none" xmlns="http://www.w3.org/2000/svg">
<path fill-rule="evenodd" clip-rule="evenodd" d="M33.4245 84.4159C35.1698 83.127 47.2916 78.4745 50.8246 76.9133L50.9139 76.8408C52.6653 75.8893 53.3616 75.9115 53.6068 75.0103C42.3176 72.8262 38.7392 63.8113 37.3768 53.7383C35.6799 51.6814 34.4039 48.8461 34.0027 46.7937C33.5032 44.2529 34.4659 43.7631 36.3112 43.5115C35.5437 28.3436 40.0122 20.5333 40.0122 20.5333C40.0122 20.5333 44.4731 12.4255 52.464 12.0186C52.9484 12.0304 53.4423 12.0348 53.9459 12.0319C54.2482 12.0558 54.5519 12.0558 54.8541 12.0319C67.4603 12.1236 74.4219 16.0273 75.2893 16.5364L75.3816 16.5926C75.3816 16.5926 76.1596 17.1031 77.2541 17.9821C79.2915 19.8363 79.9712 21.7896 79.9712 21.7896C81.5893 21.3827 83.6147 25.68 83.7252 25.9197C84.1112 26.9128 84.2798 27.9739 84.2202 29.0347C83.978 32.4545 83.3997 38.5823 82.9184 43.5144C84.7515 43.766 85.7081 44.2617 85.2101 46.7937C84.8075 48.8461 83.5314 51.677 81.8376 53.7368C80.4752 63.3466 77.0588 71.8895 66.8291 74.6108C66.9805 75.9337 67.6208 75.7665 69.5962 76.8408L69.6855 76.9133C73.2185 78.4745 85.3418 83.1285 87.0932 84.4159C90.3568 85.4813 92.2822 89.7935 93.4659 94.804C93.8369 96.3805 93.8395 98.0185 93.4734 99.596C93.1074 101.174 92.3821 102.65 91.3516 103.916C90.3211 105.182 89.0119 106.204 87.5214 106.906C86.0309 107.609 84.3975 107.974 82.7428 107.974H37.7507C36.096 107.974 34.4626 107.609 32.9721 106.906C31.4816 106.204 30.1724 105.182 29.1419 103.916C28.1114 102.65 27.3861 101.174 27.0201 99.596C26.654 98.0185 26.6565 96.3805 27.0276 94.804C28.2113 89.7935 30.1428 85.4813 33.4245 84.4159Z" fill="url(#paint0_linear_1803_13152)"/>
<path fill-rule="evenodd" clip-rule="evenodd" d="M66.2289 59.9991C66.2289 59.9991 78.8623 58.1182 78.8623 49.1137C78.8623 41.7961 75.9863 38.3408 74.8964 37.302C74.3984 36.8314 73.9759 36.2902 73.643 35.6964C73.0375 34.5984 72.532 33.0136 73.7338 31.9378C73.7338 31.9378 56.0703 35.9332 47.2439 29.0596C47.2439 29.0596 38.982 31.4731 38.982 46.1423C38.982 60.8115 48.859 60.7182 48.859 60.7182C48.859 60.7182 50.8526 56.2611 57.4054 56.2611C63.9583 56.2611 66.2289 59.9991 66.2289 59.9991Z" fill="url(#paint1_linear_1803_13152)"/>
<path fill-rule="evenodd" clip-rule="evenodd" d="M37.3779 53.7395C35.6811 51.6826 34.405 48.8473 34.0039 46.7949C33.5043 44.2541 34.4671 43.7643 36.3123 43.5127L37.3779 53.7395Z" fill="url(#paint2_linear_1803_13152)"/>
<path fill-rule="evenodd" clip-rule="evenodd" d="M81.8194 53.7371C83.5133 51.6787 84.7893 48.8463 85.192 46.7939C85.69 44.2619 84.7378 43.7662 82.9002 43.5146L81.8194 53.7371Z" fill="url(#paint3_linear_1803_13152)"/>
<path fill-rule="evenodd" clip-rule="evenodd" d="M57.4049 62.6709C57.4049 62.6709 61.3527 62.4741 63.7474 64.0501C65.0583 64.9114 64.1758 66.918 62.6257 66.625C61.0757 66.332 59.1639 66.0597 57.4049 66.0597" fill="url(#paint4_linear_1803_13152)"/>
<path fill-rule="evenodd" clip-rule="evenodd" d="M57.4092 62.6709C57.4092 62.6709 53.5205 62.4771 51.1212 64.0146C49.7725 64.8803 50.6081 66.9224 52.1929 66.625C53.7278 66.329 55.6518 66.0597 57.4092 66.0597" fill="url(#paint5_linear_1803_13152)"/>
<path fill-rule="evenodd" clip-rule="evenodd" d="M33.4245 84.4164C35.1698 83.1275 47.2916 78.4751 50.8246 76.9139L50.9139 76.8414C52.6653 75.8899 53.3616 75.9121 53.6068 75.0109C59.7026 76.2746 66.8125 74.6113 66.8125 74.6113C66.9638 75.9343 67.6041 75.767 69.5795 76.8414L69.6688 76.9139C73.2019 78.4751 85.3252 83.129 87.0765 84.4164C90.3568 85.4819 92.2822 89.794 93.4659 94.8046C93.8369 96.381 93.8395 98.019 93.4734 99.5966C93.1074 101.174 92.3821 102.651 91.3516 103.916C90.3211 105.182 89.0119 106.204 87.5214 106.907C86.0309 107.61 84.3975 107.975 82.7428 107.975H37.7507C36.096 107.975 34.4626 107.61 32.9721 106.907C31.4816 106.204 30.1724 105.182 29.1419 103.916C28.1114 102.651 27.3861 101.174 27.0201 99.5966C26.654 98.019 26.6565 96.381 27.0276 94.8046C28.2113 89.794 30.1428 85.4819 33.4245 84.4164Z" fill="black"/>
<path fill-rule="evenodd" clip-rule="evenodd" d="M33.4274 84.4164C35.1727 83.1275 47.2945 78.4751 50.8275 76.9139L50.9168 76.8414C52.6682 75.8899 53.3645 75.9121 53.6097 75.0109C59.7054 76.2746 66.8153 74.6113 66.8153 74.6113C66.9667 75.9343 67.607 75.767 69.5824 76.8414L69.6717 76.9139C73.2047 78.4751 85.328 83.129 87.0794 84.4164C90.9757 85.6757 92.9678 91.549 94.0652 97.7198C95.0173 103.081 90.7744 107.982 85.213 107.982H35.2923C29.7248 107.982 25.4819 103.081 26.4356 97.7198C27.5315 91.549 29.5235 85.6757 33.4274 84.4164Z" fill="url(#paint6_linear_1803_13152)"/>
<path fill-rule="evenodd" clip-rule="evenodd" d="M69.5797 76.8389C69.5797 76.8389 60.1841 79.9035 50.8248 76.9114C50.8248 76.9114 47.5098 76.8863 46.7741 78.5954C46.7741 78.5954 55.7156 83.9597 73.3867 78.4608C73.3867 78.4608 71.8321 76.2647 69.5797 76.8389Z" fill="url(#paint7_linear_1803_13152)"/>
<path fill-rule="evenodd" clip-rule="evenodd" d="M50.831 76.9139L50.9203 76.8414C52.6717 75.8899 53.368 75.9121 53.6132 75.0109C59.709 76.2746 66.8189 74.6113 66.8189 74.6113C66.9702 75.9343 67.6105 75.767 69.5859 76.8414C69.5859 76.8414 60.1903 79.906 50.831 76.9139Z" fill="url(#paint8_linear_1803_13152)"/>
<defs>
<linearGradient id="paint0_linear_1803_13152" x1="62.5855" y1="16.8153" x2="60.2151" y2="75.0109" gradientUnits="userSpaceOnUse">
<stop/>
<stop offset="1" stop-color="#4B4B4B"/>
</linearGradient>
<linearGradient id="paint1_linear_1803_13152" x1="78.8593" y1="44.8889" x2="38.9729" y2="44.8889" gradientUnits="userSpaceOnUse">
<stop stop-color="#FBE4CE"/>
<stop offset="1" stop-color="#F9EBDA"/>
</linearGradient>
<linearGradient id="paint2_linear_1803_13152" x1="37.3719" y1="48.6269" x2="33.8661" y2="48.6269" gradientUnits="userSpaceOnUse">
<stop stop-color="#FFB978"/>
<stop offset="1" stop-color="#FFCC8E"/>
</linearGradient>
<linearGradient id="paint3_linear_1803_13152" x1="85.3221" y1="48.6259" x2="81.8194" y2="48.6259" gradientUnits="userSpaceOnUse">
<stop stop-color="#FFB978"/>
<stop offset="1" stop-color="#FFCC8E"/>
</linearGradient>
<linearGradient id="paint4_linear_1803_13152" x1="65.025" y1="64.6583" x2="50.6765" y2="64.6583" gradientUnits="userSpaceOnUse">
<stop stop-color="#FFB978"/>
<stop offset="1" stop-color="#FFCC8E"/>
</linearGradient>
<linearGradient id="paint5_linear_1803_13152" x1="65.0292" y1="64.6583" x2="50.6807" y2="64.6583" gradientUnits="userSpaceOnUse">
<stop stop-color="#FFB978"/>
<stop offset="1" stop-color="#FFCC8E"/>
</linearGradient>
<linearGradient id="paint6_linear_1803_13152" x1="59.9325" y1="78.0001" x2="60.3564" y2="107.692" gradientUnits="userSpaceOnUse">
<stop stop-color="#87A6F8"/>
<stop offset="1" stop-color="#677DF2"/>
</linearGradient>
<linearGradient id="paint7_linear_1803_13152" x1="60.0812" y1="82.5287" x2="60.0812" y2="81.0992" gradientUnits="userSpaceOnUse">
<stop stop-color="#4DADF7"/>
<stop offset="1" stop-color="#2A6AF5"/>
</linearGradient>
<linearGradient id="paint8_linear_1803_13152" x1="69.5859" y1="76.4182" x2="50.831" y2="76.4182" gradientUnits="userSpaceOnUse">
<stop stop-color="#FFB978"/>
<stop offset="1" stop-color="#FFCC8E"/>
</linearGradient>
</defs>
</svg>
