<svg width="20" height="21" viewBox="0 0 20 21" fill="none" xmlns="http://www.w3.org/2000/svg">
<path fill-rule="evenodd" clip-rule="evenodd" d="M15.9913 15.9801L12.2413 18.6555C11.0116 19.5389 8.98837 19.5389 7.75872 18.6555L4.00872 15.9801C3.18023 15.3884 2.5 14.0965 2.5 13.1131V6.92065C2.5 5.90386 3.31977 4.77038 4.32267 4.412L8.67442 2.84514C9.39826 2.58678 10.5843 2.58678 11.3256 2.84514L15.6773 4.40367C16.6802 4.76205 17.5 5.89552 17.5 6.92065V13.1131C17.5 14.0965 16.8198 15.3884 15.9913 15.9801ZM9.09462 4.02239L9.09594 4.02193C9.28143 3.956 9.60559 3.90137 9.99346 3.90137C10.3781 3.90137 10.7098 3.95512 10.91 4.02407L15.2567 5.58077C15.4789 5.66019 15.7416 5.85421 15.9522 6.14509C16.1643 6.43816 16.25 6.72696 16.25 6.92065V13.1131C16.25 13.3448 16.1601 13.7124 15.9502 14.1113C15.7417 14.5075 15.4807 14.8087 15.2648 14.9629L11.5153 17.6379L11.5119 17.6403C11.1503 17.9001 10.6064 18.068 10 18.068C9.39359 18.068 8.84974 17.9001 8.48807 17.6403L4.73524 14.9629C4.51935 14.8087 4.25834 14.5075 4.04982 14.1113C3.83989 13.7124 3.75 13.3448 3.75 13.1131V6.92065C3.75 6.73306 3.83425 6.44672 4.04701 6.15348C4.25785 5.86288 4.52087 5.66859 4.7433 5.58911L9.09462 4.02239ZM12.9084 9.07664C13.1525 8.83256 13.1525 8.43683 12.9084 8.19275C12.6644 7.94868 12.2686 7.94868 12.0246 8.19275L8.88317 11.3341L7.98345 10.4344C7.73937 10.1903 7.34364 10.1903 7.09956 10.4344C6.85548 10.6785 6.85548 11.0742 7.09956 11.3183L8.44123 12.66C8.68531 12.904 9.08103 12.904 9.32511 12.66L12.9084 9.07664Z" fill="#1B1D29"/>
</svg>
