<svg width="24" height="24" viewBox="0 0 24 24" fill="none" xmlns="http://www.w3.org/2000/svg">
<path fill-rule="evenodd" clip-rule="evenodd" d="M4.85057 20.7578H7.89885C8.92143 20.7578 9.74942 19.9289 9.74942 18.9072V15.859C9.74942 14.8364 8.92143 14.0084 7.89885 14.0084H4.85057C3.82799 14.0084 3 14.8364 3 15.859V18.9072C3 19.9289 3.82799 20.7578 4.85057 20.7578Z" stroke="black" stroke-width="1.5" stroke-linecap="round" stroke-linejoin="round"/>
<path d="M6.375 17.3867V17.375" stroke="black" stroke-width="1.5" stroke-linecap="round" stroke-linejoin="round"/>
<path d="M6.375 6.13672V6.12512" stroke="black" stroke-width="1.5" stroke-linecap="round" stroke-linejoin="round"/>
<path fill-rule="evenodd" clip-rule="evenodd" d="M4.85057 9.50781H7.89885C8.92143 9.50781 9.74942 8.67891 9.74942 7.65721V4.60901C9.74942 3.58641 8.92143 2.75841 7.89885 2.75841H4.85057C3.82799 2.75841 3 3.58641 3 4.60901V7.65721C3 8.67891 3.82799 9.50781 4.85057 9.50781Z" stroke="black" stroke-width="1.5" stroke-linecap="round" stroke-linejoin="round"/>
<path fill-rule="evenodd" clip-rule="evenodd" d="M16.1006 2.75841H19.1489C20.1714 2.75841 20.9994 3.58741 20.9994 4.60901V7.65721C20.9994 8.67981 20.1714 9.50781 19.1489 9.50781H16.1006C15.078 9.50781 14.25 8.67981 14.25 7.65721V4.60901C14.25 3.58741 15.078 2.75841 16.1006 2.75841Z" stroke="black" stroke-width="1.5" stroke-linecap="round" stroke-linejoin="round"/>
<path d="M17.625 6.13283V6.14453" stroke="black" stroke-width="1.5" stroke-linecap="round" stroke-linejoin="round"/>
<path d="M14.25 20.7617V20.75" stroke="black" stroke-width="1.5" stroke-linecap="round" stroke-linejoin="round"/>
<path d="M21.0002 17.3826V19.2867C21.0002 20.0991 20.3415 20.7578 19.5301 20.7578H17.625" stroke="black" stroke-width="1.5" stroke-linecap="round" stroke-linejoin="round"/>
<path d="M21.0002 14.0098H17.625" stroke="black" stroke-width="1.5" stroke-linecap="round" stroke-linejoin="round"/>
<path d="M17.6252 17.3828H15.7211C14.9087 17.3828 14.25 16.7241 14.25 15.9127V14.0076" stroke="black" stroke-width="1.5" stroke-linecap="round" stroke-linejoin="round"/>
</svg>
