<svg width="24" height="24" viewBox="0 0 24 24" fill="none" xmlns="http://www.w3.org/2000/svg">
<path fill-rule="evenodd" clip-rule="evenodd" d="M19.5 12C19.5 16.1456 16.1485 19.5 12.022 19.5C10.4051 19.5 9.64855 19.09 7.89351 18.139C7.73402 18.0526 7.56628 17.9617 7.3889 17.8663C7.33727 17.8385 7.27858 17.8234 7.21995 17.8234C6.41349 17.8234 6.01574 18.7379 6.66178 19.2206C8.15771 20.3384 10.0128 21 12.022 21C16.9804 21 21 16.9706 21 12C21 7.02944 16.9804 3 12.022 3C7.06355 3 3.04395 7.02944 3.04395 12C3.04395 12.3528 3.06419 12.7008 3.10358 13.0429L1.53033 11.4697C1.23744 11.1768 0.762563 11.1768 0.46967 11.4697C0.176777 11.7626 0.176777 12.2375 0.46967 12.5304L3.30041 15.3611C3.67611 15.7368 4.28988 15.7583 4.68822 15.384C5.32408 14.7865 7.05121 13.1218 7.58047 12.475C7.84276 12.1544 7.79551 11.6819 7.47493 11.4196C7.15434 11.1573 6.68183 11.2045 6.41953 11.5251C6.13031 11.8786 5.35596 12.6544 4.66135 13.3313C4.58421 12.8993 4.54395 12.4544 4.54395 12C4.54395 7.85441 7.89543 4.5 12.022 4.5C16.1485 4.5 19.5 7.85441 19.5 12ZM12.75 8C12.75 7.58579 12.4142 7.25 12 7.25C11.5858 7.25 11.25 7.58579 11.25 8V12C11.25 12.2226 11.3489 12.4337 11.5199 12.5762L14.5199 15.0762C14.8381 15.3413 15.311 15.2983 15.5762 14.9801C15.8413 14.6619 15.7983 14.189 15.4801 13.9238L13.0199 11.8736C12.8489 11.7311 12.75 11.52 12.75 11.2974V8Z" fill="white"/>
</svg>
