<svg width="61" height="60" viewBox="0 0 61 60" fill="none" xmlns="http://www.w3.org/2000/svg">
<ellipse cx="30.8333" cy="30" rx="28.3337" ry="28.3337" transform="rotate(176.523 30.8333 30)" fill="url(#paint0_linear_3073_31578)"/>
<ellipse opacity="0.2" cx="24.2394" cy="3.51136" rx="24.2394" ry="3.51136" transform="matrix(-0.999881 0.0154327 0.0154327 0.999881 55.2937 46.6765)" fill="url(#paint1_linear_3073_31578)"/>
<path d="M44.7868 11.976H18.1226C17.0992 11.976 16.2695 12.7747 16.2695 13.7598V48.7107C16.2695 49.6959 17.0992 50.4945 18.1226 50.4945H44.7868C45.8103 50.4945 46.6399 49.6959 46.6399 48.7107V13.7598C46.6399 12.7747 45.8103 11.976 44.7868 11.976Z" fill="white"/>
<path d="M31.4547 30.8303C29.0026 30.8303 27.0086 28.9108 27.0086 26.5503V19.4922C27.0086 17.1317 29.0026 15.2122 31.4547 15.2122C33.9068 15.2122 35.9008 17.1317 35.9008 19.4922V26.5503C35.9008 28.9108 33.9068 30.8303 31.4547 30.8303ZM31.4547 16.6479C29.826 16.6479 28.5 17.9244 28.5 19.4922V26.5503C28.5 28.1182 29.826 29.3946 31.4547 29.3946C33.0834 29.3946 34.4094 28.1182 34.4094 26.5503V19.4922C34.4094 17.9244 33.0834 16.6479 31.4547 16.6479Z" fill="#07C968"/>
<path d="M25.422 22.515C25.099 23.3291 24.9477 24.2247 25.0123 25.1611C25.2282 28.2385 27.8176 30.7311 31.0144 30.9351C34.7805 31.176 37.9148 28.3065 37.9148 24.7318C37.9148 23.9488 37.7634 23.2008 37.4889 22.5112C37.3537 22.1731 37.0227 21.9458 36.6473 21.9458H26.2656C25.8882 21.9458 25.5572 22.175 25.424 22.5131L25.422 22.515Z" fill="#014CC6"/>
<path d="M32.7001 25.123C32.7001 24.4605 32.1431 23.9243 31.4549 23.9243C30.7667 23.9243 30.2096 24.4605 30.2096 25.123C30.2096 25.5931 30.4902 25.9972 30.8999 26.1934V27.4543C30.8999 27.7477 31.1501 27.9886 31.4549 27.9886C31.7596 27.9886 32.0099 27.7477 32.0099 27.4543V26.1934C32.4176 25.9972 32.7001 25.5912 32.7001 25.123Z" fill="#EBF1FE"/>
<path d="M42.4705 35.4687H20.439C20.0992 35.4687 19.8213 35.2011 19.8213 34.8741C19.8213 34.5471 20.0992 34.2795 20.439 34.2795H42.4705C42.8102 34.2795 43.0882 34.5471 43.0882 34.8741C43.0882 35.2011 42.8102 35.4687 42.4705 35.4687Z" fill="#8FB7F7"/>
<path d="M42.4705 38.1443H20.439C20.0992 38.1443 19.8213 37.8768 19.8213 37.5497C19.8213 37.2227 20.0992 36.9551 20.439 36.9551H42.4705C42.8102 36.9551 43.0882 37.2227 43.0882 37.5497C43.0882 37.8768 42.8102 38.1443 42.4705 38.1443Z" fill="#8FB7F7"/>
<path d="M37.3097 40.8205H20.439C20.0992 40.8205 19.8213 40.5529 19.8213 40.2259C19.8213 39.8989 20.0992 39.6313 20.439 39.6313H37.3097C37.6494 39.6313 37.9274 39.8989 37.9274 40.2259C37.9274 40.5529 37.6494 40.8205 37.3097 40.8205Z" fill="#8FB7F7"/>
<path d="M40.3981 43.4961H20.439C20.0992 43.4961 19.8213 43.2286 19.8213 42.9015C19.8213 42.5745 20.0992 42.3069 20.439 42.3069H40.3981C40.7379 42.3069 41.0158 42.5745 41.0158 42.9015C41.0158 43.2286 40.7379 43.4961 40.3981 43.4961Z" fill="#8FB7F7"/>
<path d="M42.4705 46.1717H20.439C20.0992 46.1717 19.8213 45.9042 19.8213 45.5771C19.8213 45.2501 20.0992 44.9825 20.439 44.9825H42.4705C42.8102 44.9825 43.0882 45.2501 43.0882 45.5771C43.0882 45.9042 42.8102 46.1717 42.4705 46.1717Z" fill="#8FB7F7"/>
<defs>
<linearGradient id="paint0_linear_3073_31578" x1="30.8333" y1="1.66636" x2="30.8333" y2="58.3337" gradientUnits="userSpaceOnUse">
<stop stop-color="white"/>
<stop offset="1" stop-color="#8BB9FF"/>
</linearGradient>
<linearGradient id="paint1_linear_3073_31578" x1="24.2394" y1="0" x2="24.2394" y2="7.02273" gradientUnits="userSpaceOnUse">
<stop stop-color="#478DFE"/>
<stop offset="1" stop-color="#004BBA"/>
</linearGradient>
</defs>
</svg>
