<svg width="33" height="32" viewBox="0 0 33 32" fill="none" xmlns="http://www.w3.org/2000/svg">
<path fill-rule="evenodd" clip-rule="evenodd" d="M15.938 4C11.1288 4 7.17668 7.58775 6.6168 12.2104C4.60262 13.0045 3.16669 14.9464 3.16669 17.2397C3.16669 20.2368 5.61379 22.6667 8.63209 22.6667H12.0041C12.5395 22.6667 12.9735 22.2357 12.9735 21.704C12.9735 21.1724 12.5395 20.7414 12.0041 20.7414H8.63209C6.6846 20.7414 5.10557 19.1735 5.10557 17.2397C5.10557 15.6114 6.23514 14.2458 7.76665 13.8602C8.17981 13.7561 8.47606 13.3963 8.49664 12.9736C8.6877 9.04873 11.9426 5.92526 15.938 5.92526C19.8889 5.92526 23.1168 8.9788 23.3725 12.8418C23.4062 13.3505 23.8334 13.7449 24.3468 13.7412C26.3223 13.7272 27.8945 15.3145 27.8945 17.2397C27.8945 19.1735 26.3154 20.7414 24.368 20.7414H20.996C20.4606 20.7414 20.0265 21.1724 20.0265 21.704C20.0265 22.2357 20.4606 22.6667 20.996 22.6667H24.368C27.3863 22.6667 29.8334 20.2368 29.8334 17.2397C29.8334 14.5524 27.8529 12.2822 25.2139 11.8794C24.5104 7.41668 20.6315 4 15.938 4Z" fill="#A7ABC3"/>
<path d="M16.4991 11.5225C16.7571 11.5225 16.9923 11.6202 17.1697 11.7807C17.1821 11.7919 17.1943 11.8035 17.2062 11.8154L20.6844 15.2936C21.075 15.6841 21.075 16.3173 20.6844 16.7078C20.2939 17.0984 19.6608 17.0984 19.2702 16.7078L17.4991 14.9367V27.5949C17.4991 28.1472 17.0513 28.5949 16.4991 28.5949C15.9468 28.5949 15.4991 28.1472 15.4991 27.5949V14.9367L13.7279 16.7078C13.3374 17.0984 12.7042 17.0984 12.3137 16.7078C11.9232 16.3173 11.9232 15.6841 12.3137 15.2936L15.7894 11.8179C15.9706 11.6354 16.2216 11.5225 16.4991 11.5225Z" fill="#A7ABC3"/>
</svg>
