<svg width="20" height="21" viewBox="0 0 20 21" fill="none" xmlns="http://www.w3.org/2000/svg">
<path fill-rule="evenodd" clip-rule="evenodd" d="M9.82461 3.94246C9.51462 3.94246 9.23919 3.99666 9.06336 4.07539L9.06161 4.07618L4.14356 6.26012C3.49801 6.54492 3.45378 6.80259 3.45378 6.82996C3.45378 6.85734 3.49801 7.11501 4.14356 7.39981L4.14494 7.40042L9.06336 9.58453C9.23919 9.66326 9.51462 9.71746 9.82461 9.71746C10.1346 9.71746 10.41 9.66326 10.5859 9.58454L10.5876 9.58375L15.5043 7.40042L15.5057 7.39981C16.1512 7.11501 16.1954 6.85734 16.1954 6.82996C16.1954 6.80259 16.1512 6.54492 15.5057 6.26012L10.5876 4.07618L10.5859 4.07539C10.41 3.99666 10.1346 3.94246 9.82461 3.94246ZM11.0958 2.93412C10.7134 2.76315 10.2518 2.69246 9.82461 2.69246C9.39745 2.69246 8.93579 2.76315 8.55346 2.93412C8.55315 2.93426 8.55284 2.9344 8.55253 2.93454L3.63901 5.11647C3.63879 5.11657 3.63923 5.11638 3.63901 5.11647C2.86817 5.45671 2.20378 6.0284 2.20378 6.82996C2.20378 7.6315 2.86746 8.20289 3.63826 8.54313C3.63802 8.54302 3.63851 8.54323 3.63826 8.54313L8.55253 10.7254C8.55289 10.7255 8.55324 10.7257 8.5536 10.7259C8.9359 10.8968 9.3975 10.9675 9.82461 10.9675C10.2517 10.9675 10.7134 10.8968 11.0957 10.7258C11.096 10.7257 11.0964 10.7255 11.0967 10.7254L16.0102 8.54345C16.01 8.54355 16.0104 8.54336 16.0102 8.54345C16.7811 8.20322 17.4454 7.63153 17.4454 6.82996C17.4454 6.02837 16.7817 5.45696 16.0108 5.11673C16.0106 5.11664 16.011 5.11681 16.0108 5.11673L11.0967 2.93454C11.0964 2.9344 11.0961 2.93426 11.0958 2.93412Z" fill="#1B1D29"/>
<path fill-rule="evenodd" clip-rule="evenodd" d="M2.5 9.5258C2.84518 9.5258 3.125 9.80562 3.125 10.1508C3.125 10.3536 3.20524 10.614 3.36658 10.862C3.52792 11.11 3.73339 11.2887 3.91912 11.3707L3.92066 11.3714L9.57782 13.8875C9.57761 13.8875 9.57802 13.8876 9.57782 13.8875C9.85156 14.0084 10.1582 14.0066 10.4181 13.8894L10.421 13.8881L16.0793 11.3714L16.0809 11.3707C16.2666 11.2887 16.4721 11.11 16.6334 10.862C16.7948 10.614 16.875 10.3536 16.875 10.1508C16.875 9.80562 17.1548 9.5258 17.5 9.5258C17.8452 9.5258 18.125 9.80562 18.125 10.1508C18.125 10.648 17.9427 11.1417 17.6812 11.5437C17.4197 11.9456 17.0421 12.3125 16.5865 12.5139C16.5863 12.514 16.5867 12.5138 16.5865 12.5139L10.9319 15.0289C10.9314 15.0291 10.9308 15.0294 10.9303 15.0296C10.3407 15.2949 9.66439 15.2927 9.07218 15.0307L3.41421 12.5142C3.41392 12.5141 3.41364 12.514 3.41335 12.5138C2.95781 12.3124 2.58025 11.9455 2.31883 11.5437C2.05726 11.1417 1.875 10.648 1.875 10.1508C1.875 9.80562 2.15482 9.5258 2.5 9.5258Z" fill="#1B1D29"/>
<path fill-rule="evenodd" clip-rule="evenodd" d="M2.5 13.6091C2.84518 13.6091 3.125 13.889 3.125 14.2341C3.125 14.7598 3.43579 15.2377 3.92128 15.455C3.92112 15.4549 3.92144 15.4551 3.92128 15.455L9.57782 17.9709C9.57761 17.9708 9.57802 17.971 9.57782 17.9709C9.85156 18.0918 10.1582 18.0899 10.4181 17.9727L10.421 17.9714L16.0783 15.4552C16.0781 15.4553 16.0784 15.4551 16.0783 15.4552C16.5637 15.2379 16.875 14.7598 16.875 14.2341C16.875 13.889 17.1548 13.6091 17.5 13.6091C17.8452 13.6091 18.125 13.889 18.125 14.2341C18.125 15.2583 17.5193 16.1802 16.5884 16.5964L16.5873 16.5969L10.9319 19.1122C10.9314 19.1125 10.9308 19.1127 10.9303 19.113C10.3407 19.3783 9.66439 19.376 9.07218 19.114L3.41159 16.5964C2.48068 16.1802 1.875 15.2583 1.875 14.2341C1.875 13.889 2.15482 13.6091 2.5 13.6091Z" fill="#1B1D29"/>
</svg>
