<svg width="24" height="24" viewBox="0 0 24 24" fill="none" xmlns="http://www.w3.org/2000/svg">
<path fill-rule="evenodd" clip-rule="evenodd" d="M20.5 12C20.5 16.6944 16.6944 20.5 12 20.5C7.30558 20.5 3.5 16.6944 3.5 12C3.5 7.30558 7.30558 3.5 12 3.5C16.6944 3.5 20.5 7.30558 20.5 12ZM12 22C17.5228 22 22 17.5228 22 12C22 6.47715 17.5228 2 12 2C6.47715 2 2 6.47715 2 12C2 17.5228 6.47715 22 12 22ZM8.75644 9.93701L9.64741 10.048C9.93001 10.0829 10.1982 9.92056 10.3 9.6544C10.4284 9.31836 10.6072 9.05323 10.8364 8.86003C11.1611 8.58668 11.565 8.44898 12.048 8.44898C12.5484 8.44898 12.9472 8.58052 13.2431 8.84257C13.5391 9.10564 13.686 9.4201 13.686 9.78902C13.686 10.0542 13.6028 10.2967 13.4363 10.5166C13.3284 10.6564 12.9965 10.9503 12.4426 11.3993C11.8877 11.8484 11.5188 12.2533 11.3338 12.613C11.1447 12.9809 11.0789 13.3889 11.0625 13.7979C11.0481 14.1483 11.3276 14.4401 11.6791 14.4401H12.1826C12.5032 14.4401 12.7684 14.1945 12.7971 13.876C12.8177 13.6468 12.8557 13.4731 12.9133 13.355C13.0099 13.1525 13.2596 12.8853 13.6604 12.5524C14.4362 11.9101 14.9418 11.4024 15.1792 11.0284C15.4156 10.6553 15.5348 10.2597 15.5348 9.84143C15.5348 9.08612 15.2131 8.42329 14.5688 7.85397C13.9255 7.28466 13.0582 7 11.9689 7C10.933 7 10.0975 7.28055 9.46039 7.84267C8.91779 8.32155 8.58792 8.88881 8.47179 9.54342C8.43582 9.73456 8.56633 9.91337 8.75644 9.93701ZM12.1621 15.0999H11.6791C11.3389 15.0999 11.0625 15.3763 11.0625 15.7164V16.3834C11.0625 16.7235 11.3389 17 11.6791 17H12.1621C12.5022 17 12.7787 16.7235 12.7787 16.3834V15.7164C12.7787 15.3753 12.5022 15.0999 12.1621 15.0999Z" fill="#337FEF"/>
</svg>
